<svg xmlns="http://www.w3.org/2000/svg" viewBox="0 0 97.88 97.88"><defs><style>.cls-1{fill:#016b6b;}.cls-2{fill:#1f9893;}</style></defs><title>3d</title><g id="Capa_2" data-name="Capa 2"><g id="Intro_Escritorio" data-name="Intro Escritorio"><rect class="cls-1" width="97.88" height="97.88" rx="16.51" ry="16.51"/><path class="cls-2" d="M22.67,67.16l15.24-5.28L25.5,49.67,38,37,22.49,31.74c.15-.29.26-.53.4-.76q4.89-8.27,9.78-16.53a1.12,1.12,0,0,1,1.14-.64q14.67,0,29.34,0a1.06,1.06,0,0,1,1.11.68Q72.82,31.64,81.43,48.8a1.31,1.31,0,0,1,0,1.34Q72.84,67.33,64.26,84.55a1,1,0,0,1-1.11.67q-15.36,0-30.71,0c-.4,0-.74,0-1-.44C28.57,78.92,25.64,73.11,22.67,67.16ZM31,71.47c.15.33.24.56.35.79,1.13,2.24,2.28,4.48,3.36,6.74a1.09,1.09,0,0,0,1.17.72c6.26,0,12.52,0,18.78,0,.24,0,.48,0,.85,0-.29-.31-.47-.52-.67-.71-2.3-2.31-4.62-4.6-6.9-6.93a1.83,1.83,0,0,0-1.43-.57c-4.86,0-9.72,0-14.58,0Zm2.11-22.2.12.5a5.32,5.32,0,0,1,.76.56l8.56,8.41c1.17,1.14,1.17,1.16,2.66.5a1,1,0,0,0,.51-.71q0-9.09,0-18.17a1,1,0,0,0-.44-.68,3.13,3.13,0,0,0-1.11-.43,1,1,0,0,0-.8.16C39.94,42.68,36.53,46,33.11,49.27Zm37.86.2L51.29,42v15ZM31.39,27.41a3,3,0,0,0,.47.08c5,0,10,0,15,0a1.63,1.63,0,0,0,1-.5c2.36-2.32,4.7-4.66,7-7,.17-.17.32-.36.5-.56-.12-.05-.16-.09-.21-.09q-9.3,0-18.59,0a.8.8,0,0,0-.61.33C34.47,22.19,33,24.74,31.39,27.41ZM53,69.11l8.56,8.51c3.34-6.69,6.72-13.46,10.11-20.23l-.14-.1ZM71.5,41.64l.13-.12Q66.58,31.4,61.51,21.3L53,29.87Z"/></g></g></svg>