<svg xmlns="http://www.w3.org/2000/svg" viewBox="0 0 99.65 99.65"><defs><style>.cls-1{fill:#3a3375;}.cls-2{fill:#b180c5;}</style></defs><title>ae</title><g id="Capa_2" data-name="Capa 2"><g id="Intro_Escritorio" data-name="Intro Escritorio"><path class="cls-1" d="M99.65,19.27v61.3a6.57,6.57,0,0,0-.47,2.14A21.4,21.4,0,0,1,77.92,99.64q-28.11,0-56.22,0a20.9,20.9,0,0,1-7-1.1A21.33,21.33,0,0,1,0,77.84q0-28,0-56A20,20,0,0,1,.48,17Q3.69,4,16.58.56A9.34,9.34,0,0,0,19.08,0h61.3c.14.26.4.17.61.19A21.34,21.34,0,0,1,99,16.1C99.22,17.15,99.42,18.21,99.65,19.27ZM52.56,74.73l-.19-.7q-3.6-11.83-7.21-23.69Q40.86,36.17,36.56,22c-.21-.7-.51-1-1.27-.95A40.74,40.74,0,0,1,31,21c-.89-.05-1.21.28-1.45,1.1C27,31.1,24.31,40,21.68,49q-3.63,12.35-7.27,24.69c-.31,1.06-.3,1.06.85,1.06s2.4-.06,3.6,0c.92.07,1.33-.21,1.59-1.15,1.44-5.15,3-10.26,4.46-15.4.15-.51.29-.81.94-.81,4.84,0,9.67,0,14.5,0,.54,0,.81.14.95.69.27,1,.62,2,.93,3.07q2,6.41,3.91,12.82c.12.39.17.78.78.77C48.77,74.71,50.61,74.73,52.56,74.73ZM54.85,56.5h0c0,3.08-.08,6.16,0,9.24a9.29,9.29,0,0,0,6.84,9,20.19,20.19,0,0,0,5.06.82A22.9,22.9,0,0,0,79.9,72.4c.49-.27.54-.53.3-1-.42-.83-.79-1.7-1.18-2.55-.6-1.33-.61-1.34-1.93-.67a19.91,19.91,0,0,1-10.27,2.44c-4.34-.25-6.47-2.5-6.48-6.84,0-1,0-1.94,0-2.91,0-.53.14-.72.7-.75,3.86-.17,7.71-.38,11.56-.58l9-.48c.54,0,.8-.16.79-.78,0-3.73,0-7.46-.08-11.18a11.25,11.25,0,0,0-8.68-10.87,18.31,18.31,0,0,0-9.24-.06c-5.91,1.46-9.36,5.7-9.53,11.77C54.79,50.79,54.85,53.65,54.85,56.5Z"/><path class="cls-2" d="M52.56,74.73c-2,0-3.79,0-5.64,0-.61,0-.66-.38-.78-.77q-1.95-6.41-3.91-12.82c-.31-1-.66-2-.93-3.07-.14-.55-.41-.69-.95-.69-4.83,0-9.66,0-14.5,0-.65,0-.79.3-.94.81-1.49,5.14-3,10.25-4.46,15.4-.26.94-.67,1.22-1.59,1.15-1.2-.08-2.4,0-3.6,0s-1.16,0-.85-1.06Q18,61.33,21.68,49C24.31,40,27,31.1,29.56,22.14c.24-.82.56-1.15,1.45-1.1a40.74,40.74,0,0,0,4.28,0c.76,0,1.06.25,1.27.95q4.27,14.19,8.6,28.35Q48.76,62.19,52.37,74Zm-12.85-23L33.13,30.29c-.75,1.93-1.31,3.83-1.87,5.72q-2.21,7.44-4.39,14.88c-.09.29-.6.86.29.86Z"/><path class="cls-2" d="M54.85,56.5c0-2.85-.06-5.71,0-8.56.17-6.07,3.62-10.31,9.53-11.77a18.31,18.31,0,0,1,9.24.06A11.25,11.25,0,0,1,82.32,47.1c.12,3.72,0,7.45.08,11.18,0,.62-.25.76-.79.78l-9,.48c-3.85.2-7.7.41-11.56.58-.56,0-.71.22-.7.75,0,1,0,1.94,0,2.91,0,4.34,2.14,6.59,6.48,6.84a19.91,19.91,0,0,0,10.27-2.44c1.32-.67,1.33-.66,1.93.67.39.85.76,1.72,1.18,2.55.24.47.19.73-.3,1a22.9,22.9,0,0,1-13.11,3.18,20.19,20.19,0,0,1-5.06-.82,9.29,9.29,0,0,1-6.84-9c-.1-3.08,0-6.16,0-9.24Zm14.18-2c2-.11,4.52-.26,7.07-.37.54,0,.74-.18.73-.74,0-1.68,0-3.37,0-5-.06-2.84-.82-5.3-3.69-6.6a11.07,11.07,0,0,0-4.79-1c-4.69,0-7.73,2.94-8,7.61-.09,1.91,0,3.83-.06,5.73,0,.79.26.9.95.86C63.65,54.76,66.05,54.66,69,54.52Z"/><path class="cls-1" d="M39.71,51.75H27.16c-.89,0-.38-.57-.29-.86Q29,43.44,31.26,36c.56-1.89,1.12-3.79,1.87-5.72Z"/><path class="cls-1" d="M69,54.52c-3,.14-5.38.24-7.77.39-.69,0-1-.07-.95-.86.07-1.9,0-3.82.06-5.73.23-4.67,3.27-7.57,8-7.61a11.07,11.07,0,0,1,4.79,1c2.87,1.3,3.63,3.76,3.69,6.6,0,1.68,0,3.37,0,5,0,.56-.19.71-.73.74C73.55,54.26,71,54.41,69,54.52Z"/></g></g></svg>