<svg xmlns="http://www.w3.org/2000/svg" viewBox="0 0 102.64 102.63"><defs><style>.cls-1{fill:#6d4c13;}.cls-2{fill:#c9872e;}</style></defs><title>ai</title><g id="Capa_2" data-name="Capa 2"><g id="Intro_Escritorio" data-name="Intro Escritorio"><path class="cls-1" d="M83,102.63H19.45c-.59-.45-1.32-.32-2-.47A22,22,0,0,1,0,80.37Q0,51.32,0,22.26a21.34,21.34,0,0,1,1.12-7.09A22,22,0,0,1,22.46,0H80.17a20.61,20.61,0,0,1,5,.49C94,2.7,99.69,8.21,102.06,17.08a9.87,9.87,0,0,0,.58,2.57V83.19c-.45.59-.31,1.32-.48,2-2.26,8.9-7.78,14.57-16.7,16.9A9.52,9.52,0,0,0,83,102.63ZM40.5,21.69c-.73,0-1.48.06-2.2,0s-1.2.27-1.44,1.08Q31.83,40,26.73,57.23,24,66.44,21.31,75.66c-.39,1.32-.39,1.32,1,1.32,1.26,0,2.54,0,3.8,0,.74,0,1-.22,1.23-.93,1.53-5.32,3.11-10.63,4.63-16,.21-.74.5-1,1.28-1q7.22.06,14.43,0a1.12,1.12,0,0,1,1.31,1c1.6,5.34,3.26,10.66,4.86,16a1,1,0,0,0,1.23.91c1.47,0,2.94-.07,4.41,0,.95,0,1-.24.75-1Q52.14,49.3,44,22.62c-.2-.68-.48-1-1.24-.94S41.27,21.69,40.5,21.69ZM67.8,57.13c0,6.28,0,12.55,0,18.83,0,.75.14,1.09,1,1a37.05,37.05,0,0,1,3.8,0c.75,0,1-.19,1-.95,0-2.93,0-5.87,0-8.81,0-9.52,0-19,0-28.55,0-1.06-.31-1.33-1.29-1.25a24.38,24.38,0,0,1-3.31,0c-.92-.07-1.18.24-1.17,1.17C67.82,44.77,67.8,51,67.8,57.13Zm-.27-33a3.36,3.36,0,0,0,3.26,3.27,3.25,3.25,0,0,0,0-6.49A3.38,3.38,0,0,0,67.53,24.13Z"/><path class="cls-2" d="M40.5,21.69c.77,0,1.54,0,2.3,0s1,.26,1.24.94Q52.14,49.29,60.27,76c.25.81.2,1.1-.75,1-1.47-.08-2.94-.06-4.41,0a1,1,0,0,1-1.23-.91c-1.6-5.34-3.26-10.66-4.86-16a1.12,1.12,0,0,0-1.31-1q-7.22.06-14.43,0c-.78,0-1.07.25-1.28,1-1.52,5.32-3.1,10.63-4.63,16-.2.71-.49,1-1.23.93-1.26-.06-2.54,0-3.8,0-1.42,0-1.42,0-1-1.32q2.7-9.21,5.42-18.43Q31.82,40,36.86,22.76c.24-.81.57-1.18,1.44-1.08S39.77,21.69,40.5,21.69Zm-.13,9.5c-.09.28-.19.52-.26.78q-3,10.11-6,20.22c-.25.85-.21,1.15.81,1.14,3.77-.06,7.54,0,11.31,0,.87,0,1.06-.14.78-1-2.07-6.65-4.09-13.32-6.14-20A1.92,1.92,0,0,0,40.37,31.19Z"/><path class="cls-2" d="M67.8,57.13c0-6.18,0-12.36,0-18.53,0-.93.25-1.24,1.17-1.17a24.38,24.38,0,0,0,3.31,0c1-.08,1.3.19,1.29,1.25,0,9.52,0,19,0,28.55,0,2.94,0,5.88,0,8.81,0,.76-.22,1-1,.95a37.05,37.05,0,0,0-3.8,0c-.84,0-1-.29-1-1C67.81,69.68,67.8,63.41,67.8,57.13Z"/><path class="cls-2" d="M67.53,24.13a3.38,3.38,0,0,1,3.22-3.22,3.25,3.25,0,0,1,0,6.49A3.36,3.36,0,0,1,67.53,24.13Z"/><path class="cls-1" d="M40.37,31.19a1.92,1.92,0,0,1,.49,1.11c2,6.66,4.07,13.33,6.14,20,.28.9.09,1-.78,1-3.77,0-7.54,0-11.31,0-1,0-1.06-.29-.81-1.14q3-10.09,6-20.22C40.18,31.71,40.28,31.47,40.37,31.19Z"/></g></g></svg>