<svg xmlns="http://www.w3.org/2000/svg" viewBox="0 0 253.56 259.06"><defs><style>.cls-1{fill:#ba2a3d;}.cls-2{fill:#fefefd;}.cls-3{fill:#bf3748;}.cls-4{fill:#cdcccd;}.cls-5{fill:#010000;}.cls-6{fill:#d19a06;}.cls-7{fill:#b12a3c;}.cls-8{fill:#cfc4c4;}.cls-9{fill:#1c445d;}.cls-10{fill:#3280ad;}.cls-11{fill:#3281ad;}.cls-12{fill:#892936;}.cls-13{fill:#a52a3b;}.cls-14{fill:#2d272a;}.cls-15{fill:#952a38;}.cls-16{fill:#7c2833;}</style></defs><title>animacion</title><g id="Capa_2" data-name="Capa 2"><g id="Proyectos_Escritorio" data-name="Proyectos Escritorio"><path class="cls-1" d="M0,257.62V1.45A8,8,0,0,1,3.17,0H233.65A3.63,3.63,0,0,1,233,2.6c-.21.31-.22.62.14.82a.49.49,0,0,0,.76-.32,1.56,1.56,0,0,1,.81-1A1.77,1.77,0,0,0,235.77,0h12.31a6.76,6.76,0,0,1,4.49,3.05,8.15,8.15,0,0,1,.8,3.83q0,12.14,0,24.27v221a9.26,9.26,0,0,1-.17,2.1,5.62,5.62,0,0,1-5.65,4.53H180.43l-19.62,0c-.08-.66.25-1,.85-1.11a5.15,5.15,0,0,1,1.66-.08,15.13,15.13,0,0,0,3.55-.25c1.21-.15,2.48.08,3.65-.45a.47.47,0,0,1,.26,0,4.39,4.39,0,0,0,3.38-1.3,4.15,4.15,0,0,1,2-1c.86.63.94.61,1-.34a9.73,9.73,0,0,1,2.58.78,1.11,1.11,0,0,0,1.37-.31,1.32,1.32,0,0,1,1.63-.46,1.66,1.66,0,0,0,1.53-.06,1.78,1.78,0,0,1,1.43-.13,2.62,2.62,0,0,0,2.19-.5,1.32,1.32,0,0,1,1.37-.25A1.46,1.46,0,0,0,191,253c.25-.26.66-.59.9-.34.7.73,1.14.35,1.64-.2.06-.07.22-.06.33-.08a1.43,1.43,0,0,0,1.22-1c.38-.94,1.67-1.27,2.1-.58a1.11,1.11,0,0,0,1.64.43,4.67,4.67,0,0,1,2.92-.64,2,2,0,0,0,1.23-.23c1.36-.54,2.48-1.67,4.07-1.59.22,0,.37-.18.46-.37a1.28,1.28,0,0,1,1.18-.63,4.66,4.66,0,0,0,3.54-1.83,2.19,2.19,0,0,1,.72-.47,12.33,12.33,0,0,0,2.69-2.46.74.74,0,0,0,.1-.59,1.58,1.58,0,0,1,.8-1.92A1.51,1.51,0,0,0,217,239c-.08-.55-.69-.27-1-.45,0,0-.06-.09-.08-.14,1-.56,1.24-1,.64-1.63a1.13,1.13,0,0,1,0-1.76,1.16,1.16,0,0,0,0-1.59,8.13,8.13,0,0,1-1.15-1.63c-.08-.23-.23-.26-.49-.17-.93.35-1.22.15-1.35-.85a2,2,0,0,0-2.81-1.4.91.91,0,0,1-1.48-.54c-.12-.33-.2-.82-.56-.83a9.6,9.6,0,0,1-2.5-.66,13,13,0,0,0-3.28-.27c-2.23-.06-4.28-1.12-6.54-1-.57,0-1.16-.35-1.73.12a.39.39,0,0,1-.49-.07c-.4-.41-.7-.22-1.12.05a2.25,2.25,0,0,1-2.71-.38l.2-.2a.45.45,0,0,0,.49-.38l1.69-.95a8.66,8.66,0,0,0,4.53-6.05,2.88,2.88,0,0,0,0-2.3c-1.27-2-2.54-4-3.8-6-.27-.42-.48-.4-.81-.07-.7.7-1.44,1.38-2.15,2.07a7.2,7.2,0,0,0-.6-.52,152.53,152.53,0,0,1-15.95-13.19,96.17,96.17,0,0,1-7.09-7.19,66,66,0,0,0,14.24-23.28,57.87,57.87,0,0,0,3-11.45,1.82,1.82,0,0,1,1-.14h11.26a1,1,0,0,0,1.06-1,1,1,0,0,0-1-1.09c-.26,0-.53,0-.79,0-3.4,0-6.8,0-10.21,0-.76,0-.95-.21-.83-.94s.16-1.75.3-2.61-.27-1.72.32-2.18,1.53-.15,2.31-.15h8.27c.62,0,1.2-.05,1.3-.86s-.24-1.34-1.24-1.34q-4.92,0-9.85,0c-.65,0-1-.11-.91-.86s.06-1,.88-1a28.05,28.05,0,0,0,2.9,0,1,1,0,0,0,1-1.09.94.94,0,0,0-1-1.09c-.64,0-1.29,0-1.93,0-1.93,0-1.89,0-2-1.94,0-.81.2-1,1-1,3.31,0,6.63,0,9.94,0,1,0,1.34-.39,1.27-1.24s-.63-1-1.31-1c-3.43,0-6.86,0-10.29,0-.59,0-.92-.09-.95-.78s-.19-1.39-.29-2.09c-.16-1.09-.15-1.08,1-1.09h29.29a4.39,4.39,0,0,0,1-.07,1,1,0,0,0,.8-1.11,1,1,0,0,0-.85-1,3.22,3.22,0,0,0-.7,0q-15.07,0-30.17,0c-.66,0-1.06-.14-1.17-.81a51,51,0,0,0-2.63-9A65.83,65.83,0,0,0,152.6,87.06,63.06,63.06,0,0,0,119.74,78l-.06-1.9a4.67,4.67,0,0,0,.14-.5,27.11,27.11,0,0,0-.25-8.14,5.26,5.26,0,0,1-.21-2.16,12,12,0,0,0-1.72-9.34,18.08,18.08,0,0,0-8.57-7.16c-4.56-2.05-9.29-3.24-14.34-2.38A32.07,32.07,0,0,0,75.11,57.66c-2.48,2.93-4.87,5.93-7.49,8.75A5.43,5.43,0,0,1,64,68.07c-.38,0-.77,0-1.28,0a32.07,32.07,0,0,0,6.61,4.54c-2.51,1.55-4.7.46-6.94-.51,2.29,4.57,9,9.27,16.79,8.46a4.53,4.53,0,0,0,.63,2.5c1.11,2.14,2.19,4.3,3.28,6.45a66.36,66.36,0,0,0-25.88,36c-.8,2.61-1.22,5.3-1.94,7.92l-.82-.3c-1.23-.47-1.29-.45-2.09.61-.24.31-.37.64-.09.94s.59.11.86-.09.49-.36.79-.15a.66.66,0,0,1,.2.79c-.21.75,0,1,.82.84,0,.38,0,.76-.06,1.14a67.74,67.74,0,0,0,19.28,55.33,63.45,63.45,0,0,0,44.16,19,64.57,64.57,0,0,0,14.41-1.27c.39.12.78.24,1.16.38l10.25,3.76c-.88.63-1.74,1.3-2.64,1.88a1.28,1.28,0,0,0-.68,1.29,8.19,8.19,0,0,1-2.75,6.67c-1.26,1.22-2.5,2.46-3.65,3.79a4.25,4.25,0,0,0-1.16,3.21c-.19.1-.37.4-.6.15-1-1.14-2.15-.46-3.3-.32a11,11,0,0,1-3.41.31c-.75-.14-1.39.72-2.22.75a.19.19,0,0,0-.07.14c.2.73-.51,1.07-.69,1.63-.06.2-.15.41-.39.43s-.38-.22-.45-.46A1,1,0,0,0,121,233c-.69,0-1.38.43-2.07-.09-.15-.12-.34.17-.47.32a2.14,2.14,0,0,1-2,.69,5.06,5.06,0,0,0-2.63.28c-.65.13-1.24.36-1.43,1.11-.06.21-.25.42-.44.36a3.62,3.62,0,0,0-2.78.18c-.06,0-.17,0-.25-.07s-.48-.28-.6,0,.21.36.41.47.4.36.22.64a.49.49,0,0,1-.77.09,5.59,5.59,0,0,1-.45-.52c-.45-.46-.91-.58-1.28.07a1.17,1.17,0,0,1-.65.55c-1.25.46-2.45,1-3.74,1.41a5.84,5.84,0,0,0-2,.85c-1.15.9-2.08,2.07-3.24,3a1,1,0,0,0-.23.46c-.34,1.17-1.23,2.13-1.27,3.41a.62.62,0,0,1-.1.24c-.72,1.17-.66,1.4.55,2,.33.17.6.59.24.7-1.46.41-.63,1-.38,1.81a13.29,13.29,0,0,0,2.1,3.47,3.6,3.6,0,0,0,2.63,1.55.79.79,0,0,1,.64.42,1.47,1.47,0,0,0,1.41.84c.55,0,1.1.11,1.66.14a1.89,1.89,0,0,1,1.84,1.37H97.48a.8.8,0,0,0-.83-.84c-.6,0-.82.34-.94.84l-1,0H47.15l-14.07,0a7.06,7.06,0,0,1-.55-2.77c.1-.64.33-.85.91-.58a1.68,1.68,0,0,0,.75.2c.24,0,.51,0,.58-.29s-.13-.5-.42-.55a1.8,1.8,0,0,1-.79-.34c-1-.72-1.65-.42-1.93.77s.11,2.48-.67,3.56H15.84c.11-.55.54-1.31-.67-.93-.23.07-.41-.2-.51-.42-.55-1.17-1.77-.88-2.7-1.23-.12,0-.33.1-.48.19-1,.58-1.1,1-.75,2.39H2.11A10.78,10.78,0,0,1,0,257.62ZM202,122.54c0-.45.34-.92-.13-1.31-.16-.14-.33-.06-.48,0-.55.44,0,.84.05,1.26a5,5,0,0,1-1.73,0v-1.77l7.73,0c.94,0,1.24-.28,1.24-1.08s-.3-1.06-1.24-1.07c-1.43,0-2.87,0-4.3,0H184.34c-.92,0-1.22.3-1.21,1.1s.42,1.08,1.17,1,1.35,0,2,0c-.14,1-1.15,1.22-1.82,1.69-.41.28-.83.51-.77,1s.64.74,1.08.89,1,.25,1.26-.27a13.8,13.8,0,0,0,1.14-3.33h9.67a1.11,1.11,0,0,1-.37.46c-.17.15-.44.29-.34.55s.45.17.69.18a1.27,1.27,0,0,0,.43,0c.56-.15.9,0,1,.63-.93,0-1.87.06-2.8.07s-1.09.42-1,1.18.62,1,1.34,1q9.36,0,18.72,0c.49,0,1.07.11,1.3-.47a1.42,1.42,0,0,0-.26-1.63l-.16-.06c-2.68,0-5.36,0-8,0C205.55,122.59,203.77,122.69,202,122.54Zm-4.77-6.87,14.59,0h3.08a.89.89,0,0,0,1-1c0-.86-.28-1.16-1.32-1.16H194.79c-.54,0-1.1,0-1.28.64a1.2,1.2,0,0,0,.56,1.51l.5.39c-.66,0-.91.61-1.46.67s-1,.2-.84.75.77.5,1.26.41a1.1,1.1,0,0,0,.37-.22,1.74,1.74,0,0,1,2.21-.21c.26.19.65.07.49-.24C196.19,116.36,197,116.14,197.23,115.67ZM174.9,93,227.52,62l-52.62-31Zm21.83,33.6h0c-1.2,0-2.4,0-3.6,0-.82,0-.86.48-.85,1.09s0,1.12.83,1.12q3.6,0,7.2,0c.86,0,.92-.51.94-1.15s-.15-1.07-.92-1C199.13,126.65,197.93,126.62,196.73,126.62Zm-79,102.85c.63,0,.85-.14.77-.56-.22-1.14.42-2.62-1.49-3.06a2.24,2.24,0,0,0-2.55.81c-.19.41,0,.65.4.67.59,0,.71.37.71.88s.16.81.66.67,1-.44,1.12.48C117.4,229.42,117.7,229.45,117.77,229.47ZM209.17,2.64a1.94,1.94,0,0,1,1.42-.05c.6.14.6-.79,1.22-.63a.5.5,0,0,0,.69-.36.52.52,0,0,0-.14-.49.69.69,0,0,0-.89-.09c-.66.57-1.21.42-1.89,0-.42-.26-1,0-.84.55s-.19.85-.55,1.13-.53.74,0,1.06a19.26,19.26,0,0,0,2,1.13.85.85,0,0,0,1.08-.35c.31-.4.1-.69-.17-1s-.74-.84-1.41-.61A.38.38,0,0,1,209.17,2.64ZM221,2.52a1.5,1.5,0,0,0-.1-.3c-.25-.45-2.77-1.45-3.2-1.17a3.18,3.18,0,0,1-1.92.4c-.37,0-.74,0-.84.47s.23.72.59.86c.65.26,1.32.46,2,.68.25.08.54.06.59-.21.19-1,.73-.77,1.34-.45a4.1,4.1,0,0,0,.82.32C220.71,3.27,220.94,3,221,2.52ZM26.11,83.12c-.11.58.06.91.74.73a.77.77,0,0,1,.85.28c.26.28.55.08.76-.12s.08-.42-.08-.6-.4-.5-.63-.73c-.47-.48-.49-.74.28-.84s.76-.51.34-1A1.88,1.88,0,0,0,26,80.54c-.82.4-.9.76-.37,1.5C25.9,82.35,26.29,82.61,26.11,83.12ZM46.82,122.5c-.64,0-1.06.13-.71.65s.08.72-.31,1-.75.45-.65,1a4.36,4.36,0,0,0,2.05.93,4.4,4.4,0,0,0,1.88-1c.33-.23.88-.26.55-.83s-.76-.36-1.18-.18c-.25.12-.42.4-.75.39s-.44,0-.57-.14.06-.37.21-.5a.54.54,0,0,0,.14-.77A.91.91,0,0,0,46.82,122.5Zm-4.28,11.58a1.53,1.53,0,0,0,1.74-1c.3-.62.61-1.34,1.56-.8a1.2,1.2,0,0,0,.68,0c.24,0,.5-.09.53-.37s-.24-.37-.47-.43-.79-.06-1-.46a1.23,1.23,0,0,0-1.57-.76c-.65.22-.58.91-.55,1.43a1.45,1.45,0,0,1-1,1.5c-.27.13-.74.16-.67.55S42.4,134.05,42.54,134.08Zm52,124.43c.63,0,.84-.35.83-.88s.27-.91.9-.89c.32,0,.67,0,.81-.38s-.07-.61-.29-.86a.71.71,0,0,0-.93-.25,4.58,4.58,0,0,1-1.65.5,1.08,1.08,0,0,0-.91,1.13A3.19,3.19,0,0,0,94.52,258.51ZM246.12,97.36a3.1,3.1,0,0,0,.69-.08A1.46,1.46,0,0,0,248,95.85c0-.82-.61-.51-1-.69a2.52,2.52,0,0,1-.44-.28,1.52,1.52,0,0,0-1.5-.15c-.84.33-.88.42-.24,1.1a.83.83,0,0,1,.24.64C245,97.26,245.46,97.42,246.12,97.36ZM5.77,45.18a1.31,1.31,0,0,0-.2-.39c-.54-.62-1.38-.85-1.91-1.5-.16-.18-.45,0-.63.16a.36.36,0,0,0,0,.6c.58.51.44,1,0,1.52s-.31.87.41.92a2.32,2.32,0,0,1,.52.07A1.27,1.27,0,0,0,5.77,45.18ZM224,124.59c-.62-.25-.82.12-1.15.52-.52.66.24,1,.24,1.48s.18,1,.84,1,.58-.64.56-1.08a.82.82,0,0,1,.86-1c.26,0,.53,0,.79,0s.65,0,.68-.4-.28-.43-.53-.52a2.29,2.29,0,0,0-.77-.12C225,124.47,224.49,124.54,224,124.59ZM176.33,257.26l.25,0c1.06.06,1.6-.92,2.48-1.25.27-.1.25-.51,0-.75-.43-.37-.92-.62-1.39-.13a1.37,1.37,0,0,1-1.94.21.54.54,0,0,0-.79.08.76.76,0,0,0-.08,1A3.15,3.15,0,0,0,176.33,257.26ZM68,246.74c-.13-.45-.43-.47-.87-.4-1.43.22-2.52,1.21-3.84,1.65a.66.66,0,0,0-.46.76.91.91,0,0,0,.53.66c.32.18.56,0,.76-.25a2.48,2.48,0,0,1,1.21-.77,17.8,17.8,0,0,0,2.31-1.07A.59.59,0,0,0,68,246.74Zm-12.62,9c.89,0,1.34-.31,1.42-1.06a6.83,6.83,0,0,1,.23-1.11c.07-.3.13-.6-.11-.82s-.63-.05-.87.12-.66.66-1,.91-.95.37-.75,1A1.15,1.15,0,0,0,55.41,255.7Zm11.45-2.58a1.38,1.38,0,0,0,1.16,0,.53.53,0,0,1,.8.22.68.68,0,0,0,1,.26c.31-.23.78-.49.59-.95s-.42-1-1-1C68.39,251.73,67.26,251.75,66.86,253.12ZM3,101.16c-.45-.06-.64,0-.76.28a.54.54,0,0,0,.22.69.94.94,0,0,1,.42,1.13.66.66,0,0,0,.4.87A1,1,0,0,0,4.34,104c.29-.29.21-.62.06-1a2.29,2.29,0,0,1-.23-.84A1,1,0,0,0,3,101.16ZM14.77,3.39c-.64,0-1.3.49-1.29.95a1.51,1.51,0,0,0,1.23,1.14c.61-.05,1.29-.05,1.3-1A1.07,1.07,0,0,0,14.77,3.39ZM153.42,76.74a1.31,1.31,0,0,0-.82-1.31.61.61,0,0,0-.73.08c-.22.18-.17.42-.06.64a2.91,2.91,0,0,1,.21,1.27c0,.25.08.47.36.53a.6.6,0,0,0,.64-.18A1.36,1.36,0,0,0,153.42,76.74ZM23.93,208v-.21c0-.59,0-1-.82-1s-.65.53-.6,1c0,.26,0,.52,0,.78s.07.6.46.64a.81.81,0,0,0,.84-.33A1.94,1.94,0,0,0,23.93,208Z"/><path class="cls-2" d="M33.08,258.83l14.07,0h47.6l1,0h10.21l.7,0h37.85l9.3,0h7l19.62,0h67.11a5.62,5.62,0,0,0,5.65-4.53,9.26,9.26,0,0,0,.17-2.1v-221q0-12.14,0-24.27a8.15,8.15,0,0,0-.8-3.83l.09-3c.74-.16.9.14.9.88q0,128.64,0,257.28c0,.71-.14.85-.86.85Q126.79,259,.88,259c.36-.35.82-.12,1.23-.2h31Z"/><path class="cls-3" d="M235.77,0a1.77,1.77,0,0,1-1.05,2.07,1.56,1.56,0,0,0-.81,1,.49.49,0,0,1-.76.32c-.36-.2-.35-.51-.14-.82A3.63,3.63,0,0,0,233.65,0Z"/><path class="cls-4" d="M252.66,0l-.09,3.05a6.76,6.76,0,0,0-4.49-3Z"/><path class="cls-4" d="M3.17,0A8,8,0,0,0,0,1.45C0,0,0,0,1.41,0Z"/><path class="cls-4" d="M2.11,258.83c-.41.08-.87-.15-1.23.2H.53c-.13-.2-.33-.19-.53-.17v-1.24A10.78,10.78,0,0,0,2.11,258.83Z"/><path class="cls-2" d="M0,258.86c.2,0,.4,0,.53.17C.36,259,.07,259.23,0,258.86Z"/><path class="cls-2" d="M174.9,93V30.91L227.52,62Z"/><path class="cls-5" d="M79.15,80.57c-7.82.81-14.5-3.89-16.79-8.46,2.24,1,4.43,2.06,6.94.51a32.07,32.07,0,0,1-6.61-4.54c.51,0,.9,0,1.28,0a5.43,5.43,0,0,0,3.65-1.66c2.62-2.82,5-5.82,7.49-8.75A32.07,32.07,0,0,1,94.73,46.4c5-.86,9.78.33,14.34,2.38a18.08,18.08,0,0,1,8.57,7.16,12,12,0,0,1,1.72,9.34,5.26,5.26,0,0,0,.21,2.16,27.11,27.11,0,0,1,.25,8.14,4.67,4.67,0,0,1-.14.5,6.43,6.43,0,0,1-.17-.76,6.45,6.45,0,0,0-1.32-3.08c-.72-.94-1.56-.86-2,.17a25.74,25.74,0,0,0-1.44,3.81c-.18-.56-.26-.9-.4-1.22a3.6,3.6,0,0,0-2-2.25,6.46,6.46,0,0,0-2.33-.31c-.69,0-1.33-.07-1.7-.85a12.6,12.6,0,0,0-1.66-2.74,3.55,3.55,0,0,0-4.26-1.25c-2.47.9-4.83,2.07-7.27,3C91.8,71.94,88.37,73,85.07,74.46A9.81,9.81,0,0,0,79.15,80.57Z"/><path class="cls-6" d="M79.15,80.57a9.81,9.81,0,0,1,5.92-6.11c3.3-1.42,6.73-2.52,10.06-3.83,2.44-1,4.8-2.13,7.27-3a3.55,3.55,0,0,1,4.26,1.25,12.6,12.6,0,0,1,1.66,2.74c.37.78,1,.81,1.7.85a6.46,6.46,0,0,1,2.33.31,3.6,3.6,0,0,1,2,2.25c.14.32.22.66.4,1.22a25.74,25.74,0,0,1,1.44-3.81c.48-1,1.32-1.11,2-.17a6.45,6.45,0,0,1,1.32,3.08,6.43,6.43,0,0,0,.17.76l.06,1.9c-.09.75-.18,1.5-.26,2.25a6.32,6.32,0,0,1-1.41,2.7,1.13,1.13,0,0,0-.42,1.14,23.18,23.18,0,0,1-1.85,12.59,1,1,0,0,0,.16,1.11c1.73,2.69,3.44,5.38,5.16,8.07a25.67,25.67,0,0,0-10.15,6.8c-1.15-1.76-2.34-3.5-3.45-5.29-.31-.49-.54-.56-1-.28a24,24,0,0,1-2.26,1.15,10.77,10.77,0,0,1-12.53-2.6c-1.43-1.54-2.08-3.51-3-5.31-1.55-2.92-3.06-5.86-4.59-8.79a9.63,9.63,0,0,0-1-2c-1.09-2.15-2.17-4.31-3.28-6.45A4.53,4.53,0,0,1,79.15,80.57Zm26.8,8.2a16.59,16.59,0,0,0-2.3-7,5.5,5.5,0,0,0-1.26-1.42c-.65-.54-1.16-.32-1.4.46a5.4,5.4,0,0,0,.19,2.9,16.09,16.09,0,0,0,2.52,5.82c.37.51.84,1.27,1.68.94S105.88,89.42,106,88.77Zm-12.7,5.1A12.92,12.92,0,0,0,92,88.59a9.82,9.82,0,0,0-2-3.17c-.37-.34-.86-.8-1.35-.29a1.9,1.9,0,0,0-.48,1.7A28.42,28.42,0,0,0,89,90.2a16.12,16.12,0,0,0,2.27,4.4c.37.46.81,1,1.44.78s.58-.85.54-1.4Zm-7.12-5.93a3.68,3.68,0,0,1,1.09-3.61,6.4,6.4,0,0,1,2.27-1.25,5.14,5.14,0,0,0,1.82-1c.39-.37.9-.83.67-1.42s-.82-.48-1.3-.53a3.31,3.31,0,0,0-1.13.09,6.44,6.44,0,0,0-3.82,2.56A4.09,4.09,0,0,0,86.13,87.94ZM106,77c-1-2.2-2.66-3.1-4.73-2.67a6,6,0,0,0-3.1,1.62,3.23,3.23,0,0,0-1.37,2.66c0,.35.19.62.5.58.56-.09,1.18,0,1.67-.42s1.25-1,1.9-1.55A5,5,0,0,1,103.91,76C104.69,76,105.21,76.53,106,77Zm1.29,21.77a2,2,0,0,0-.45.13c-1.62.73-3.26,1.42-4.84,2.24a1.15,1.15,0,0,0-.71,1.5,1.31,1.31,0,0,0,1.8.73c.83-.36,1.66-.73,2.45-1.16a15.45,15.45,0,0,0,2.63-1.33,1.08,1.08,0,0,0,.33-1.33A1.17,1.17,0,0,0,107.26,98.74ZM94.65,84.56a15.49,15.49,0,0,1,1.27,5.64c0,1.11-.27,2.2-.19,3.32a2.78,2.78,0,0,0,1.15,2c.57.45,1.07.3,1.66-.1-1.59-.09-2-.58-2-2.34,0-.66.1-1.33.14-2A9.14,9.14,0,0,0,94.65,84.56Zm22.09-5c1,.2,1.35-.2,1.43-.79a10,10,0,0,0-.56-4.57c0-.16-.12-.38-.35-.3s-.08.29,0,.43a9.13,9.13,0,0,1,.58,3.27A1.92,1.92,0,0,1,116.74,79.56Z"/><path class="cls-7" d="M160.81,258.83h-1.23a.92.92,0,0,0-1.05-1.14c-.56,0-1.12.34-.88,1.13h-2.82c-.35-.7-.7-.7-1.06,0l-9.3,0H106.62l-.7,0a1.89,1.89,0,0,0-1.84-1.37c-.56,0-1.11-.1-1.66-.14a1.47,1.47,0,0,1-1.41-.84.79.79,0,0,0-.64-.42,3.6,3.6,0,0,1-2.63-1.55,13.29,13.29,0,0,1-2.1-3.47c-.25-.79-1.08-1.4.38-1.81.36-.11.09-.53-.24-.7-1.21-.63-1.27-.86-.55-2a.62.62,0,0,0,.1-.24c0-1.28.93-2.24,1.27-3.41a1,1,0,0,1,.23-.46c1.16-.91,2.09-2.08,3.24-3a5.84,5.84,0,0,1,2-.85c1.29-.37,2.49-.95,3.74-1.41a1.17,1.17,0,0,0,.65-.55c.37-.65.83-.53,1.28-.07a5.59,5.59,0,0,0,.45.52A.49.49,0,0,0,109,237c.18-.28.06-.49-.22-.64s-.53-.18-.41-.47.39-.09.6,0,.19.1.25.07a3.62,3.62,0,0,1,2.78-.18c.19.06.38-.15.44-.36.19-.75.78-1,1.43-1.11a5.06,5.06,0,0,1,2.63-.28,2.14,2.14,0,0,0,2-.69c.13-.15.32-.44.47-.32.69.52,1.38.12,2.07.09a1,1,0,0,1,1.1.83c.07.24.15.48.45.46s.33-.23.39-.43c.18-.56.89-.9.69-1.63a.19.19,0,0,1,.07-.14c.83,0,1.47-.89,2.22-.75a11,11,0,0,0,3.41-.31c1.15-.14,2.28-.82,3.3.32.23.25.41,0,.6-.15a11,11,0,0,0,.85,1.89c0,.25-.07.49-.37.57-.11-.29-.25-.58-.35-.89-.18-.57-.62-.6-1.05-.44-.79.31-.64.91-.35,1.51-1.12-.11-2.26-.6-3.35-.09a11.91,11.91,0,0,1-3.77.62c-.31,0-.69-.09-.91.19-.41.5-1,.43-1.5.54-1.28.25-2.7.16-3.58,1.49a1,1,0,0,1-1.41.23c-1.1-.62-1.57-.49-2.19.53-.11.18-.23.57-.48.33-.43-.43-.75,0-1.12,0,0-.18,0-.35,0-.53,0-.47,0-.9-.66-.86s-1.16.32-1.21.91.61.4,1,.48c-.1.33-.36.42-.65.51-1.49.44-3,.91-4.44,1.34a23.51,23.51,0,0,0-3.59,1.78c-2.44,1.18-4.36,2.81-4.86,5.63a4.32,4.32,0,0,0,1,4.15,6.67,6.67,0,0,1,1,1c1.29,2,3.58,2.06,5.49,2.76,2.41.88,5.15.09,7.61,1.08a3.32,3.32,0,0,0,1.05,0c.53,0,.9-.12.95-.75s.28-.66.86-.33.8,1,1.53,1.08a64.45,64.45,0,0,0,9.63.45c1.76-.06,3.54-.07,5.31-.14a11.61,11.61,0,0,0,4.37-.58,1.51,1.51,0,0,1,1.28.12,2.35,2.35,0,0,0,1.78.15,3.87,3.87,0,0,1,2-.05,2.57,2.57,0,0,0,1.48,0,6.59,6.59,0,0,1,2.34-.26,10.21,10.21,0,0,0,1.66,0c.93-.14,2,.14,2.58-1.06.16-.35.76-.5,1.17-.72.19-.1.45-.13.51.13.32,1.27,1.24.92,2,.68s1.9.06,2.64-.69c.07-.06.29,0,.42,0a4.34,4.34,0,0,0,2.5,0c.91-.14,1.93-.65,2.73-.13a3.33,3.33,0,0,0,2.22.34c.49,0,.76-.58,1.28-.51.06.28-.29.66.16.85a1.37,1.37,0,0,0,1.49-.11c.18-.13.4-.32.3-.58s-.35-.15-.54-.17c.19-.89.71-.36,1.05-.19s.67.43,1.13.25c1.86-.75,3.93-.36,5.81-1.06.09,0,.23,0,.34.05a1.76,1.76,0,0,0,2-.77c.66-.85,1-.87,1.79-.15.38.36.75.59,1.25.29a5.94,5.94,0,0,1,3.38-.71,3,3,0,0,0,2.4-1.1.86.86,0,0,1,1.14-.29,3.74,3.74,0,0,0,2,.21c1.55-.21,3.05-.71,4.62-.78a1.82,1.82,0,0,0,.58-.2c1.52-.64,3.22-.85,4.62-1.81a1.21,1.21,0,0,1,.52-.08c2.67-.16,5-1.53,7.49-2.27a1.48,1.48,0,0,0,.64-.44,20.54,20.54,0,0,1,2.22-1.85,6.77,6.77,0,0,0,2.27-7.27,2.49,2.49,0,0,0-.75-1.17,17,17,0,0,0-2.07-1.76,14.48,14.48,0,0,0-2.18-1.45,5.94,5.94,0,0,0-2.65-.78,2.1,2.1,0,0,1-1.15-.21c-.74-.34-1.45-1-2.38-.11-.48.49-1.22.31-1.62-.41-.13-.23-.26-.51-.55-.52a6.66,6.66,0,0,0-3.2.21,1.43,1.43,0,0,1-1.69-.2c-1.07-.82-3.66-.74-4.83-.13-.94.49-1.9,1.18-3.09.76a8.61,8.61,0,0,1,2.59-3.15l.28-.28c-.06-.3.13-.45.36-.57a2.25,2.25,0,0,0,2.71.38c.42-.27.72-.46,1.12-.05a.39.39,0,0,0,.49.07c.57-.47,1.16-.08,1.73-.12,2.26-.13,4.31.93,6.54,1a13,13,0,0,1,3.28.27,9.6,9.6,0,0,0,2.5.66c.36,0,.44.5.56.83a.91.91,0,0,0,1.48.54,2,2,0,0,1,2.81,1.4c.13,1,.42,1.2,1.35.85.26-.09.41-.06.49.17a8.13,8.13,0,0,0,1.15,1.63,1.16,1.16,0,0,1,0,1.59,1.13,1.13,0,0,0,0,1.76c.6.63.39,1.07-.64,1.63,0,.05,0,.12.08.14.34.18,1-.1,1,.45a1.51,1.51,0,0,1-.52,1.51,1.58,1.58,0,0,0-.8,1.92.74.74,0,0,1-.1.59,12.33,12.33,0,0,1-2.69,2.46,2.19,2.19,0,0,0-.72.47,4.66,4.66,0,0,1-3.54,1.83,1.28,1.28,0,0,0-1.18.63c-.09.19-.24.38-.46.37-1.59-.08-2.71,1.05-4.07,1.59a2,2,0,0,1-1.23.23,4.67,4.67,0,0,0-2.92.64,1.11,1.11,0,0,1-1.64-.43c-.43-.69-1.72-.36-2.1.58a1.43,1.43,0,0,1-1.22,1c-.11,0-.27,0-.33.08-.5.55-.94.93-1.64.2-.24-.25-.65.08-.9.34a1.46,1.46,0,0,1-1.68.39,1.32,1.32,0,0,0-1.37.25,2.62,2.62,0,0,1-2.19.5,1.78,1.78,0,0,0-1.43.13,1.66,1.66,0,0,1-1.53.06,1.32,1.32,0,0,0-1.63.46,1.11,1.11,0,0,1-1.37.31,9.73,9.73,0,0,0-2.58-.78l-.52-.19c-.08-.21-.2-.37-.44-.24s-.21.25-.09.42v.35a4.15,4.15,0,0,0-2,1,4.39,4.39,0,0,1-3.38,1.3.47.47,0,0,0-.26,0c-1.17.53-2.44.3-3.65.45a15.13,15.13,0,0,1-3.55.25,5.15,5.15,0,0,0-1.66.08C161.06,257.87,160.73,258.17,160.81,258.83Zm22.1-6.38c-.31,0-.44.18-.41.4a.86.86,0,0,0,.73.76c.27,0,.71-.21.67-.54C183.83,252.52,183.16,252.75,182.91,252.45Zm22.47-23.18a1.45,1.45,0,0,0-.84-.62.3.3,0,0,0-.39.33.87.87,0,0,0,.72.75C205.11,229.79,205.27,229.56,205.38,229.27ZM154.83,255.2a.64.64,0,0,0-.61.61c-.05.31.18.39.43.39s.65-.1.66-.51S155.13,255.23,154.83,255.2Zm11.42,1.57c0-.24,0-.48-.35-.5a.55.55,0,0,0-.61.49c0,.33.18.46.47.48S166.24,257.08,166.25,256.77Zm-60.63-.53c-.15,0-.29.07-.27.25a.37.37,0,0,0,.36.32.26.26,0,0,0,.3-.32C106,256.28,105.81,256.24,105.62,256.24Z"/><path class="cls-6" d="M144.11,214.39l-10.25-3.76c-.38-.14-.77-.26-1.16-.38-1.33-.7-2.78-1.11-4.17-1.68-5.11-2-10.16-4.21-15.13-6.57-5.45-2.59-10.68-5.59-15.89-8.62-3.26-1.9-3.7-5-1.34-7.93a117.62,117.62,0,0,1,8.54-9.45c1,1.61,2.05,3.2,3,4.82a36.63,36.63,0,0,1,2.41,4.05,19.11,19.11,0,0,0-2.6,2.72c-.77.91-.75.91.19,1.64,9.44,7.29,20.07,12.43,30.91,17.21a16.59,16.59,0,0,0,2.88,1.3,16.09,16.09,0,0,0,1.67.93,52.59,52.59,0,0,1,5.45,2.51Z"/><path class="cls-4" d="M128.53,208.57c1.39.57,2.84,1,4.17,1.68a64.57,64.57,0,0,1-14.41,1.27,63.45,63.45,0,0,1-44.16-19,67.74,67.74,0,0,1-19.28-55.33c0-.38,0-.76.06-1.14a9.45,9.45,0,0,0,.32-2.12l0-.17v-.35c.72-2.62,1.14-5.31,1.94-7.92a66.36,66.36,0,0,1,25.88-36,9.63,9.63,0,0,1,1,2l-.29.18a64.17,64.17,0,0,0-20.73,24.61A65.1,65.1,0,0,0,57.24,154a64.57,64.57,0,0,0,36.82,49.78,61.35,61.35,0,0,0,29.44,5.44A19.43,19.43,0,0,0,128.53,208.57Z"/><path class="cls-8" d="M183.36,129.84c.11.67.51.81,1.17.81q15.09,0,30.17,0a3.22,3.22,0,0,1,.7,0,1,1,0,0,1,.85,1,1,1,0,0,1-.8,1.11,4.39,4.39,0,0,1-1,.07H185.2c-1.14,0-1.15,0-1,1.09.1.7.26,1.39.29,2.09s.36.78.95.78c3.43,0,6.86,0,10.29,0,.68,0,1.25.11,1.31,1s-.31,1.24-1.27,1.24c-3.31,0-6.63,0-9.94,0-.76,0-1,.17-1,1,.14,1.94.1,1.94,2,1.94.64,0,1.29,0,1.93,0a.94.94,0,0,1,1,1.09,1,1,0,0,1-1,1.09,28.05,28.05,0,0,1-2.9,0c-.82-.06-.84.35-.88,1s.26.87.91.86q4.93,0,9.85,0c1,0,1.36.41,1.24,1.34s-.68.85-1.3.86h-8.27c-.78,0-1.73-.3-2.31.15s-.2,1.43-.32,2.18-.15,1.75-.3,2.61.07.95.83.94c3.41,0,6.81,0,10.21,0,.26,0,.53,0,.79,0a1,1,0,0,1,1,1.09,1,1,0,0,1-1.06,1H185.07a1.82,1.82,0,0,0-1,.14c-.77-.11-1.6.09-2.31-.37a1.53,1.53,0,0,0-.15.19c-.15,0-.29,0-.44,0h-20c-.72,0-1.31-.16-1.35-1s.41-1.11,1.33-1.12h20c1.21,0,1.23,0,1.36-1.22s.2-2.56.35-3.84c.07-.64-.14-.82-.76-.81-1.73,0-3.46,0-5.19,0-.74,0-1.24-.24-1.23-1.11s.46-1.11,1.24-1.1c1.79,0,3.58,0,5.36,0,.76,0,.67-.45.68-.93s.05-1-.69-.89-1.35,0-2,0H165.71c-.59,0-1.21,0-1.41-.74-.24-1,.19-1.48,1.34-1.48H181c2,0,1.93,0,1.75-2-.06-.75-.36-.91-1-.89-2,0-4,0-6,0-.78,0-1.1-.45-1.1-1.18s.38-1.05,1.11-1.05c1.52,0,3,0,4.57,0,2.15,0,2.19,0,1.84-2.15s0-1.74-2-1.78a3.23,3.23,0,0,1-.44,0c-.66-.09-1.11-.39-1.1-1.12s.48-1,1.13-1.08,1.11-.06,1.67-.09c.37.34.8-.07,1.16.06C183.35,130.89,183.38,130.4,183.36,129.84Z"/><path class="cls-6" d="M166.84,191a96.17,96.17,0,0,0,7.09,7.19,152.53,152.53,0,0,0,15.95,13.19,7.2,7.2,0,0,1,.6.52,46.83,46.83,0,0,1-3.53,3.37,220.85,220.85,0,0,1-25.54-19.08,8.18,8.18,0,0,0-1.63-1.48c-.22-.24-.42-.48-.65-.7-2.33-2.18-4.55-4.45-6.7-6.79a65.27,65.27,0,0,1-4.7-5.41l6.62-5.85c.2.25.4.5.59.76a131.42,131.42,0,0,0,10.37,12.7A8.18,8.18,0,0,0,166.84,191Z"/><path class="cls-9" d="M144.11,214.39l4.55-3.21c.66-.44,1.34-.85,2-1.34s.76-.32,1,.28c.86,2.08,1.76,4.15,2.66,6.22a2.07,2.07,0,0,1,.11,1.45,8.69,8.69,0,0,1-5.45,6.1,10.91,10.91,0,0,0-2.61,1,52,52,0,0,0-5.07,4.17l-3.4,2.77a7.26,7.26,0,0,0-1.05.77c-.81.83-1.64,1.36-2.74.5a11,11,0,0,1-.85-1.89,4.25,4.25,0,0,1,1.16-3.21c1.15-1.33,2.39-2.57,3.65-3.79a8.19,8.19,0,0,0,2.75-6.67,1.28,1.28,0,0,1,.68-1.29C142.37,215.69,143.23,215,144.11,214.39Z"/><path class="cls-9" d="M187,215.28a46.83,46.83,0,0,0,3.53-3.37c.71-.69,1.45-1.37,2.15-2.07.33-.33.54-.35.81.07,1.26,2,2.53,4,3.8,6a2.88,2.88,0,0,1,0,2.3,8.66,8.66,0,0,1-4.53,6.05l-1.69.95a.6.6,0,0,0-.49.38l-.2.2c-.23.12-.42.27-.36.57a.37.37,0,0,0-.28.28,8.61,8.61,0,0,0-2.59,3.15,5.84,5.84,0,0,0-2.24,2.28l-2.44,2.54a1,1,0,0,0-.23.64.56.56,0,0,0-.32.37,1.52,1.52,0,0,0-.86.38l-.81-.25a.52.52,0,0,0-.43-.28c-.68-.42-.83-1.19-1.19-1.82l-.25-1a4.37,4.37,0,0,1,.68-1.64c.47-.65.84-1.37,1.25-2.06a12.88,12.88,0,0,0,1.49-2.1A8.35,8.35,0,0,0,184,219a1,1,0,0,1,.34-1.06A26.51,26.51,0,0,0,187,215.28Z"/><path class="cls-4" d="M183.36,129.84c0,.56,0,1-.82.77-.36-.13-.79.28-1.16-.06,0-.05-.09-.09-.1-.15A59.58,59.58,0,0,0,177,117.52a63.7,63.7,0,0,0-25.92-28.81,60.49,60.49,0,0,0-31.6-8.48c.08-.75.17-1.5.26-2.25a63.06,63.06,0,0,1,32.86,9.08,65.83,65.83,0,0,1,28.13,33.78A51,51,0,0,1,183.36,129.84Z"/><path class="cls-4" d="M166.84,191a8.18,8.18,0,0,1-1.53-1.58c.95-1.08,1.92-2.14,2.83-3.24a64.1,64.1,0,0,0,13.58-29c.07-.35.27-.75-.14-1.05a1.53,1.53,0,0,1,.15-.19c.71.46,1.54.26,2.31.37a57.87,57.87,0,0,1-3,11.45A66,66,0,0,1,166.84,191Z"/><path class="cls-8" d="M196.88,120.77H186.32c-.67,0-1.34,0-2,0s-1.17-.26-1.17-1,.29-1.1,1.21-1.1h18.79c1.43,0,2.87,0,4.3,0,.94,0,1.25.28,1.24,1.07s-.3,1.07-1.24,1.08l-7.73,0Z"/><path class="cls-8" d="M194.07,115.64a1.2,1.2,0,0,1-.56-1.51c.18-.67.74-.64,1.28-.64h19.78c1,0,1.36.3,1.32,1.16a.89.89,0,0,1-1,1h-3.08l-14.59,0Z"/><path class="cls-8" d="M215.53,122.68a1.42,1.42,0,0,1,.26,1.63c-.23.58-.81.47-1.3.47q-9.36,0-18.72,0c-.72,0-1.3-.1-1.34-1s.24-1.17,1-1.18,1.87,0,2.8-.07a3.18,3.18,0,0,0,1.44,0,5,5,0,0,0,1.73,0,.77.77,0,0,0,.56,0c1.77.15,3.55,0,5.33.06,2.68,0,5.36,0,8,0Z"/><path class="cls-8" d="M196.73,126.62c1.2,0,2.4,0,3.6,0,.77,0,.94.39.92,1s-.08,1.16-.94,1.15q-3.6,0-7.2,0c-.84,0-.82-.53-.83-1.12s0-1.11.85-1.09c1.2,0,2.4,0,3.6,0Z"/><path class="cls-3" d="M15.84,258.83H10.73c-.35-1.39-.22-1.81.75-2.39.15-.09.36-.23.48-.19.93.35,2.15.06,2.7,1.23.1.22.28.49.51.42C16.38,257.52,16,258.28,15.84,258.83Z"/><path class="cls-3" d="M117.77,229.47c-.07,0-.37-.05-.38-.11-.07-.92-.57-.63-1.12-.48s-.67-.24-.66-.67-.12-.84-.71-.88c-.38,0-.59-.26-.4-.67a2.24,2.24,0,0,1,2.55-.81c1.91.44,1.27,1.92,1.49,3.06C118.62,229.33,118.4,229.47,117.77,229.47Z"/><path class="cls-3" d="M209.17,2.64a.38.38,0,0,0,.52.29c.67-.23,1,.19,1.41.61s.48.6.17,1a.85.85,0,0,1-1.08.35,19.26,19.26,0,0,1-2-1.13c-.49-.32-.4-.72,0-1.06s.78-.44.55-1.13.42-.81.84-.55c.68.42,1.23.57,1.89,0a.69.69,0,0,1,.89.09.52.52,0,0,1,.14.49.5.5,0,0,1-.69.36c-.62-.16-.62.77-1.22.63A1.94,1.94,0,0,0,209.17,2.64Z"/><path class="cls-3" d="M221,2.52c0,.52-.26.75-.74.6a4.1,4.1,0,0,1-.82-.32c-.61-.32-1.15-.52-1.34.45,0,.27-.34.29-.59.21-.66-.22-1.33-.42-2-.68-.36-.14-.69-.4-.59-.86s.47-.47.84-.47a3.18,3.18,0,0,0,1.92-.4c.43-.28,3,.72,3.2,1.17A1.5,1.5,0,0,1,221,2.52Z"/><path class="cls-3" d="M26.11,83.12c.18-.51-.21-.77-.44-1.08-.53-.74-.45-1.1.37-1.5a1.88,1.88,0,0,1,2.33.25c.42.54.32,1-.34,1s-.75.36-.28.84c.23.23.42.48.63.73s.32.38.08.6-.5.4-.76.12a.77.77,0,0,0-.85-.28C26.17,84,26,83.7,26.11,83.12Z"/><path class="cls-3" d="M46.82,122.5a.91.91,0,0,1,.66.51.54.54,0,0,1-.14.77c-.15.13-.38.26-.21.5s.36.14.57.14.5-.27.75-.39c.42-.18.91-.29,1.18.18s-.22.6-.55.83a4.4,4.4,0,0,1-1.88,1,4.36,4.36,0,0,1-2.05-.93c-.1-.5.35-.73.65-1s.67-.46.31-1S46.18,122.51,46.82,122.5Z"/><path class="cls-3" d="M42.54,134.08c-.14,0-.62.17-.69-.31s.4-.42.67-.55a1.45,1.45,0,0,0,1-1.5c0-.52-.1-1.21.55-1.43a1.23,1.23,0,0,1,1.57.76c.19.4.62.38,1,.46s.5.13.47.43-.29.35-.53.37a1.2,1.2,0,0,1-.68,0c-1-.54-1.26.18-1.56.8A1.53,1.53,0,0,1,42.54,134.08Z"/><path class="cls-3" d="M33.08,258.83H31c.78-1.08.4-2.38.67-3.56s1-1.49,1.93-.77a1.8,1.8,0,0,0,.79.34c.29,0,.49.23.42.55s-.34.28-.58.29a1.68,1.68,0,0,1-.75-.2c-.58-.27-.81-.06-.91.58A7.06,7.06,0,0,0,33.08,258.83Z"/><path class="cls-3" d="M94.52,258.51a3.19,3.19,0,0,1-1.24-1.63,1.08,1.08,0,0,1,.91-1.13,4.58,4.58,0,0,0,1.65-.5.71.71,0,0,1,.93.25c.22.25.42.51.29.86s-.49.39-.81.38c-.63,0-.91.26-.9.89S95.15,258.55,94.52,258.51Z"/><path class="cls-3" d="M246.12,97.36c-.66.06-1.11-.1-1-.89a.83.83,0,0,0-.24-.64c-.64-.68-.6-.77.24-1.1a1.52,1.52,0,0,1,1.5.15,2.52,2.52,0,0,0,.44.28c.35.18,1-.13,1,.69a1.46,1.46,0,0,1-1.17,1.43A3.1,3.1,0,0,1,246.12,97.36Z"/><path class="cls-3" d="M5.77,45.18A1.27,1.27,0,0,1,4,46.56a2.32,2.32,0,0,0-.52-.07c-.72-.05-.82-.42-.41-.92s.57-1,0-1.52a.36.36,0,0,1,0-.6c.18-.17.47-.34.63-.16.53.65,1.37.88,1.91,1.5A1.31,1.31,0,0,1,5.77,45.18Z"/><path class="cls-3" d="M224,124.59c.48,0,1-.12,1.52-.15a2.29,2.29,0,0,1,.77.12c.25.09.55.23.53.52s-.4.37-.68.4-.53,0-.79,0a.82.82,0,0,0-.86,1c0,.44.13,1-.56,1.08s-.85-.41-.84-1-.76-.82-.24-1.48C223.19,124.71,223.39,124.34,224,124.59Z"/><path class="cls-3" d="M186.32,120.77h.89a13.8,13.8,0,0,1-1.14,3.33c-.25.52-.85.4-1.26.27s-1-.34-1.08-.89.36-.74.77-1C185.17,122,186.18,121.82,186.32,120.77Z"/><path class="cls-3" d="M176.33,257.26a3.15,3.15,0,0,1-1.5-.89.76.76,0,0,1,.08-1,.54.54,0,0,1,.79-.08,1.37,1.37,0,0,0,1.94-.21c.47-.49,1-.24,1.39.13.28.24.3.65,0,.75-.88.33-1.42,1.31-2.48,1.25Z"/><path class="cls-3" d="M68,246.74a.59.59,0,0,1-.36.58,17.8,17.8,0,0,1-2.31,1.07,2.48,2.48,0,0,0-1.21.77c-.2.22-.44.43-.76.25a.91.91,0,0,1-.53-.66.66.66,0,0,1,.46-.76c1.32-.44,2.41-1.43,3.84-1.65C67.6,246.27,67.9,246.29,68,246.74Z"/><path class="cls-3" d="M194.07,115.64l3.16,0c-.28.47-1,.69-.63,1.52.16.31-.23.43-.49.24a1.74,1.74,0,0,0-2.21.21,1.1,1.1,0,0,1-.37.22c-.49.09-1.1.21-1.26-.41s.39-.71.84-.75.8-.65,1.46-.67Z"/><path class="cls-3" d="M55.41,255.7a1.15,1.15,0,0,1-1.12-1c-.2-.63.36-.74.75-1s.66-.64,1-.91.55-.41.87-.12.18.52.11.82a6.83,6.83,0,0,0-.23,1.11C56.75,255.39,56.3,255.69,55.41,255.7Z"/><path class="cls-3" d="M55.24,133.41v.35l0,.17a9.45,9.45,0,0,1-.32,2.12c-.77.2-1-.09-.82-.84a.66.66,0,0,0-.2-.79c-.3-.21-.55,0-.79.15s-.59.37-.86.09-.15-.63.09-.94c.8-1.06.86-1.08,2.09-.61Z"/><path class="cls-3" d="M66.86,253.12c.4-1.37,1.53-1.39,2.58-1.44.59,0,.83.54,1,1s-.28.72-.59.95a.68.68,0,0,1-1-.26.53.53,0,0,0-.8-.22A1.38,1.38,0,0,1,66.86,253.12Z"/><path class="cls-3" d="M199.71,122.54a3.18,3.18,0,0,1-1.44,0c-.08-.6-.42-.78-1-.63a1.27,1.27,0,0,1-.43,0c-.24,0-.57.12-.69-.18s.17-.4.34-.55a1.11,1.11,0,0,0,.37-.46h2.82Z"/><path class="cls-3" d="M3,101.16a1,1,0,0,1,1.19,1,2.29,2.29,0,0,0,.23.84c.15.35.23.68-.06,1a1,1,0,0,1-1.08.13.66.66,0,0,1-.4-.87.94.94,0,0,0-.42-1.13.54.54,0,0,1-.22-.69C2.34,101.21,2.53,101.1,3,101.16Z"/><path class="cls-3" d="M14.77,3.39A1.07,1.07,0,0,1,16,4.53c0,.9-.69.9-1.3,1a1.51,1.51,0,0,1-1.23-1.14C13.47,3.88,14.13,3.39,14.77,3.39Z"/><path class="cls-3" d="M153.42,76.74a1.36,1.36,0,0,1-.4,1,.6.6,0,0,1-.64.18c-.28-.06-.35-.28-.36-.53a2.91,2.91,0,0,0-.21-1.27c-.11-.22-.16-.46.06-.64a.61.61,0,0,1,.73-.08A1.31,1.31,0,0,1,153.42,76.74Z"/><path class="cls-3" d="M23.93,208a1.94,1.94,0,0,1-.11.91.81.81,0,0,1-.84.33c-.39,0-.45-.32-.46-.64s0-.52,0-.78c-.05-.5-.22-1,.6-1s.86.41.82,1Z"/><path class="cls-3" d="M97.48,258.83H95.71c.12-.5.34-.88.94-.84A.8.8,0,0,1,97.48,258.83Z"/><path class="cls-3" d="M202,122.54a.77.77,0,0,1-.56,0c-.07-.42-.6-.82-.05-1.26.15-.11.32-.19.48,0C202.34,121.62,202,122.09,202,122.54Z"/><path class="cls-3" d="M176.65,254.1l.52.19c-.11,1-.19,1-1,.34v-.35Z"/><path class="cls-7" d="M190.58,225.61a.6.6,0,0,1,.49-.38A.45.45,0,0,1,190.58,225.61Z"/><path class="cls-3" d="M215.53,122.68l-.16-.06Z"/><path class="cls-1" d="M157.65,258.82c-.24-.79.32-1.09.88-1.13a.92.92,0,0,1,1.05,1.14Z"/><path class="cls-1" d="M153.77,258.83c.36-.7.71-.7,1.06,0Z"/><path class="cls-10" d="M128.53,208.57a19.43,19.43,0,0,1-5,.63,61.35,61.35,0,0,1-29.44-5.44A64.57,64.57,0,0,1,57.24,154a65.1,65.1,0,0,1,5.81-37.67A64.17,64.17,0,0,1,83.78,91.7l.29-.18c1.53,2.93,3,5.87,4.59,8.79,1,1.8,1.61,3.77,3,5.31a10.77,10.77,0,0,0,12.53,2.6,24,24,0,0,0,2.26-1.15c.49-.28.72-.21,1,.28,1.11,1.79,2.3,3.53,3.45,5.29a19.87,19.87,0,0,0-2.57,6.4c-1.17,4.57-2.48,9-5.41,12.86-.47.61-.69.65-1.28.21-2.54-1.93-5.19-3.71-7.91-5.39-5.53-3.42-11.3-6.42-16.82-9.87a3.91,3.91,0,0,0-1.62-.83l-1.46-1.13a2.82,2.82,0,0,0-4.07.29,2.93,2.93,0,0,0,.35,4.11c.73.66,1.55,1.23,2.34,1.84a2.2,2.2,0,0,1-.25.65c-.59.71-.24,1,.42,1.45q6.21,3.87,12.39,7.82c.47.3,1.08.48,1.34,1.07a2.73,2.73,0,0,1-.41.66c-.68.59-.33,1,.2,1.38,1.13.82,2.25.35,3.36-.06h0l.26.18a2.33,2.33,0,0,1,1,.55c3.67,2.46,7.3,5,10.85,7.61a5.12,5.12,0,0,0,4.31,1A11.35,11.35,0,0,0,113.1,139c.3-.43.44-.32.68,0a19,19,0,0,0,1.52,2.15,13,13,0,0,1,3.28,10.31,21.81,21.81,0,0,0,0,2.8,2.21,2.21,0,0,0,1.68,2.29,1.74,1.74,0,0,1,1,.44,12.76,12.76,0,0,0-2.89,2.23c-1.37,1.41-2.78,2.78-4.19,4.13q-5.15,4.9-10.33,9.78a.76.76,0,0,0-.15,1.14c.37.55.7,1.15,1,1.72a117.62,117.62,0,0,0-8.54,9.45c-2.36,2.94-1.92,6,1.34,7.93,5.21,3,10.44,6,15.89,8.62C118.37,204.36,123.42,206.53,128.53,208.57Z"/><path class="cls-11" d="M181.58,156.1c.41.3.21.7.14,1.05a64.1,64.1,0,0,1-13.58,29c-.91,1.1-1.88,2.16-2.83,3.24a131.42,131.42,0,0,1-10.37-12.7c-.19-.26-.39-.51-.58-.76.42-.4.85-.81,1.28-1.2a4.08,4.08,0,0,0,.85-5.33c-.74-1.27-1.51-2.51-2.27-3.77L144.08,148.9c1-.54,2.06-1.1,3.11-1.61a.76.76,0,0,0,.48-1c-.5-3.39-1.08-6.77-1.79-10.12a37.59,37.59,0,0,0-4.45-11.58c-2-3.34-4.26-6.52-6.52-9.69-.78-1.08-.77-1.09.58-1.22a106.85,106.85,0,0,1,15.8-.16.85.85,0,0,1,.91.73,26.56,26.56,0,0,1,1,6.13,43.59,43.59,0,0,1-1.33,11.31c-.65,3-1.36,6.06-1.76,9.14-.07.55-.41,1.24.51,1.48a2.09,2.09,0,0,0,0,.43,51.08,51.08,0,0,0,1.93,7.8,2.19,2.19,0,0,0,1.15,1.15,2.68,2.68,0,0,0,3-.22,2.83,2.83,0,0,0,1.1-3.11c-.39-1.68-.81-3.34-1.22-5,1.23.06,1.22.06,1.3-1.22.07-1.06.15-2.11.24-3.16.5-5.75,1.53-11.44,2.12-17.18a66.65,66.65,0,0,0,.07-14.74,2.84,2.84,0,0,0-1.38-2.33,12.82,12.82,0,0,0-5.94-1.94,145.4,145.4,0,0,0-22.47.89,18.85,18.85,0,0,0-4.82.92,25.46,25.46,0,0,1-4.55,1.22c-1.72-2.69-3.43-5.38-5.16-8.07a1,1,0,0,1-.16-1.11,23.18,23.18,0,0,0,1.85-12.59,1.13,1.13,0,0,1,.42-1.14,6.32,6.32,0,0,0,1.41-2.7,60.49,60.49,0,0,1,31.6,8.48A63.7,63.7,0,0,1,177,117.52a59.58,59.58,0,0,1,4.28,12.88c0,.06.06.1.1.15-.56,0-1.11,0-1.67.09s-1.13.33-1.13,1.08.44,1,1.1,1.12a3.23,3.23,0,0,0,.44,0c2,0,1.63-.35,2,1.78s.31,2.15-1.84,2.15c-1.52,0-3.05,0-4.57,0-.73,0-1.1.34-1.11,1.05s.32,1.18,1.1,1.18c2,0,4,0,6,0,.68,0,1,.14,1,.89.18,2,.22,2-1.75,2H165.64c-1.15,0-1.58.49-1.34,1.48.2.78.82.74,1.41.74h14.42c.68,0,1.35.05,2,0s.7.4.69.89.08.94-.68.93c-1.78,0-3.57,0-5.36,0-.78,0-1.23.24-1.24,1.1s.49,1.11,1.23,1.11c1.73,0,3.46,0,5.19,0,.62,0,.83.17.76.81-.15,1.28-.22,2.56-.35,3.84S182.25,154,181,154h-20c-.92,0-1.37.39-1.33,1.12s.63,1,1.35,1h20C181.29,156.14,181.43,156.11,181.58,156.1Zm-3.7-4c1.2,0,2.4,0,3.6,0,.91,0,.85-.57.86-1.17s-.09-1-.84-1c-2.41,0-4.81,0-7.21,0-.82,0-.86.49-.87,1.09s0,1.11.86,1.09C175.48,152.08,176.68,152.11,177.88,152.11Z"/><path class="cls-8" d="M121.12,105.84a25.46,25.46,0,0,0,4.55-1.22,18.85,18.85,0,0,1,4.82-.92,145.4,145.4,0,0,1,22.47-.89,12.82,12.82,0,0,1,5.94,1.94,2.84,2.84,0,0,1,1.38,2.33,66.65,66.65,0,0,1-.07,14.74c-.59,5.74-1.62,11.43-2.12,17.18-.09,1.05-.17,2.1-.24,3.16-.08,1.28-.07,1.28-1.3,1.22-2-.4-3.92-.79-5.9-1-.92-.24-.58-.93-.51-1.48.4-3.08,1.11-6.11,1.76-9.14a43.59,43.59,0,0,0,1.33-11.31,26.56,26.56,0,0,0-1-6.13.85.85,0,0,0-.91-.73,106.85,106.85,0,0,0-15.8.16c-1.35.13-1.36.14-.58,1.22,2.26,3.17,4.52,6.35,6.52,9.69a37.59,37.59,0,0,1,4.45,11.58c.71,3.35,1.29,6.73,1.79,10.12a.76.76,0,0,1-.48,1c-1.05.51-2.08,1.07-3.11,1.61l-3.21,1.41c-5.43,2.33-11.06,4.15-16.51,6.44-1,.42-2,1.09-3,.25,0,0-.06,0-.08,0a1.74,1.74,0,0,0-1-.44,2.21,2.21,0,0,1-1.68-2.29,21.81,21.81,0,0,1,0-2.8,13,13,0,0,0-3.28-10.31,19,19,0,0,1-1.52-2.15c-.24-.35-.38-.46-.68,0a11.35,11.35,0,0,1-7.14,4.43,5.12,5.12,0,0,1-4.31-1c-3.55-2.63-7.18-5.15-10.85-7.61a2.33,2.33,0,0,0-1-.55l-.26-.18h0a11.78,11.78,0,0,0-3.15-2c-.26-.59-.87-.77-1.34-1.07q-6.18-3.95-12.39-7.82c-.66-.4-1-.74-.42-1.45a2.2,2.2,0,0,0,.25-.65A44,44,0,0,0,75.36,116a3.91,3.91,0,0,1,1.62.83c5.52,3.45,11.29,6.45,16.82,9.87,2.72,1.68,5.37,3.46,7.91,5.39.59.44.81.4,1.28-.21,2.93-3.82,4.24-8.29,5.41-12.86a19.87,19.87,0,0,1,2.57-6.4A25.67,25.67,0,0,1,121.12,105.84Z"/><path class="cls-5" d="M106,88.77c-.07.65.14,1.4-.57,1.68s-1.31-.43-1.68-.94a16.09,16.09,0,0,1-2.52-5.82,5.4,5.4,0,0,1-.19-2.9c.24-.78.75-1,1.4-.46a5.5,5.5,0,0,1,1.26,1.42A16.59,16.59,0,0,1,106,88.77Z"/><path class="cls-5" d="M93.25,93.87V94c0,.55.12,1.22-.54,1.4s-1.07-.32-1.44-.78A16.12,16.12,0,0,1,89,90.2a28.42,28.42,0,0,1-.8-3.37,1.9,1.9,0,0,1,.48-1.7c.49-.51,1,0,1.35.29a9.82,9.82,0,0,1,2,3.17A12.92,12.92,0,0,1,93.25,93.87Z"/><path class="cls-5" d="M86.13,87.94a4.09,4.09,0,0,1-.4-5.16,6.44,6.44,0,0,1,3.82-2.56,3.31,3.31,0,0,1,1.13-.09c.48.05,1.11,0,1.3.53s-.28,1-.67,1.42a5.14,5.14,0,0,1-1.82,1,6.4,6.4,0,0,0-2.27,1.25A3.68,3.68,0,0,0,86.13,87.94Z"/><path class="cls-5" d="M106,77c-.76-.44-1.28-1-2.06-.94a5,5,0,0,0-3.07,1.16c-.65.5-1.28,1-1.9,1.55s-1.11.33-1.67.42c-.31,0-.46-.23-.5-.58a3.23,3.23,0,0,1,1.37-2.66,6,6,0,0,1,3.1-1.62C103.31,73.87,105,74.77,106,77Z"/><path class="cls-5" d="M107.26,98.74a1.17,1.17,0,0,1,1.21.78,1.08,1.08,0,0,1-.33,1.33,15.45,15.45,0,0,1-2.63,1.33c-.79.43-1.62.8-2.45,1.16a1.31,1.31,0,0,1-1.8-.73,1.15,1.15,0,0,1,.71-1.5c1.58-.82,3.22-1.51,4.84-2.24A2,2,0,0,1,107.26,98.74Z"/><path class="cls-5" d="M94.65,84.56a9.14,9.14,0,0,1,2,6.57c0,.67-.12,1.34-.14,2,0,1.76.41,2.25,2,2.34-.59.4-1.09.55-1.66.1a2.78,2.78,0,0,1-1.15-2c-.08-1.12.18-2.21.19-3.32A15.49,15.49,0,0,0,94.65,84.56Z"/><path class="cls-12" d="M116.74,79.56a1.92,1.92,0,0,0,1.07-2,9.13,9.13,0,0,0-.58-3.27c0-.14-.23-.33,0-.43s.3.14.35.3a10,10,0,0,1,.56,4.57C118.09,79.36,117.72,79.76,116.74,79.56Z"/><path class="cls-13" d="M180.31,228.94c-.41.69-.78,1.41-1.25,2.06a4.37,4.37,0,0,0-.68,1.64c-.17,0-.46-.07-.4-.24.2-.53,0-.52-.45-.51-2.14.05-4.28-.08-6.4.1-1.19.09-2.48-.18-3.59.56a.92.92,0,0,1-.93-.05,1.2,1.2,0,0,0-.67-.17l-7.86.68a1.58,1.58,0,0,0-1.19.5c-.43.56-.83.66-1.36.12-.34-.35-.62-.3-.7.24a.87.87,0,0,1-.19.47c-.29.27-.59.77-1,.46s-.08-.66.24-.91.19-.35-.07-.47a5,5,0,0,0-2.44.9c-.15.63-.69.49-1.09.68-.64.29-.87.06-1-.54a.65.65,0,0,0-.49-.32,2.17,2.17,0,0,0-1.8.42,1,1,0,0,1-1.1.34,3.81,3.81,0,0,0-2.56,0,3.44,3.44,0,0,1-1.39.09c-1.16-.18-2.22.42-3.44.26a13.8,13.8,0,0,0-3.36.42c-.73.11-1.52.24-1.85,1.13-.12.35-.4.41-.75.1a2.36,2.36,0,0,0-3,.36c-.35.57-.71.57-1.12.17a1.18,1.18,0,0,0-1.59-.09,6.44,6.44,0,0,1-2.63.9c-.87.06-1.94-.14-2.57.3a2.11,2.11,0,0,1-2.21.33.1.1,0,0,0-.09,0,5.35,5.35,0,0,1-2.3.69,12.3,12.3,0,0,1-1.93.53,10.53,10.53,0,0,0-2.48.46c-1,.25-1.78.79-2.79,1-.75.14-1.84.38-1.84,1.63,0,.34-.33.38-.6.28s-.53-.27-.79-.4c-.88-.43-2.67.58-2.71,1.54a1,1,0,0,1-.77,1c-.71.11-.9.53-.89,1.17a2.48,2.48,0,0,1-.12.77,2,2,0,0,0,.71,2.76,4.65,4.65,0,0,1,.53.45,6.27,6.27,0,0,0,4.56,2.09c.68,0,1.33.07,1.71-.72a.69.69,0,0,1,1-.23c.42.3.09.62-.14.88-.36.42-.31.71.26.76a26.75,26.75,0,0,0,4.19.38,6.14,6.14,0,0,1,2,.05c2.23.6,4.53.4,6.78.51a27.82,27.82,0,0,0,5.84-.06c1.32-.21,2.66.27,3.93,0,2-.47,4.07-.12,6.1-.27,1.6-.12,3.21-.23,4.81-.33a19.66,19.66,0,0,1,3.76-.08,2.4,2.4,0,0,0,1.93-.66.85.85,0,0,1,.93-.19,9.51,9.51,0,0,0,2.77.23c1.4-.06,2.79-.25,4.19-.33.68,0,1.28,0,1.67-.66a.54.54,0,0,1,.6-.28c.73.3,1.34.41,1.81-.44.13-.24.53,0,.81.08a3.77,3.77,0,0,0,2.06.22c1.14-.21,2.33-.23,3.48-.43,1.76-.31,3.63-.24,5.17-1.38.26-.2.58-.25.78.06.38.58.73.37,1,0a1.17,1.17,0,0,1,1.82-.26,1.25,1.25,0,0,0,1.41,0c.31-.18.68-.21,1-.35a6,6,0,0,1,2.41-.23,16.31,16.31,0,0,0,3.61-.6c1.08-.32,2.27-.32,3.2-1.1a.57.57,0,0,1,.66,0,2,2,0,0,0,2.1-.1,6,6,0,0,1,3.32-.91c.42,0,.57-.2.47-.62s-.14-.63.27-.72a.6.6,0,0,1,.7.4c.2.49.54.44.94.27a3.86,3.86,0,0,1,.66-.2c.75-.17,1.49-.32,1.83-1.16a.63.63,0,0,1,.75-.33,2,2,0,0,0,1.28-.18c1.14-.52,2.52-.48,3.44-1.49a.34.34,0,0,1,.15-.09,5.41,5.41,0,0,0,2.93-2.1,4.62,4.62,0,0,0,.46-4,1.74,1.74,0,0,0-.45-.4,10.34,10.34,0,0,0-4-2.07c-1.51-.3-3-.85-4.54-.42a.88.88,0,0,1-.91-.12,3,3,0,0,0-2.23-.64,42.91,42.91,0,0,1-6.89-.3c-1.44-.11-3-.46-4.38.35-.36.2-.42-.17-.46-.43a5.84,5.84,0,0,1,2.24-2.28c1.19.42,2.15-.27,3.09-.76,1.17-.61,3.76-.69,4.83.13a1.43,1.43,0,0,0,1.69.2,6.66,6.66,0,0,1,3.2-.21c.29,0,.42.29.55.52.4.72,1.14.9,1.62.41.93-.93,1.64-.23,2.38.11a2.1,2.1,0,0,0,1.15.21,5.94,5.94,0,0,1,2.65.78,14.48,14.48,0,0,1,2.18,1.45,17,17,0,0,1,2.07,1.76,2.49,2.49,0,0,1,.75,1.17,6.77,6.77,0,0,1-2.27,7.27,20.54,20.54,0,0,0-2.22,1.85,1.48,1.48,0,0,1-.64.44c-2.51.74-4.82,2.11-7.49,2.27a1.21,1.21,0,0,0-.52.08c-1.4,1-3.1,1.17-4.62,1.81a1.82,1.82,0,0,1-.58.2c-1.57.07-3.07.57-4.62.78a3.74,3.74,0,0,1-2-.21.86.86,0,0,0-1.14.29,3,3,0,0,1-2.4,1.1,5.94,5.94,0,0,0-3.38.71c-.5.3-.87.07-1.25-.29-.77-.72-1.13-.7-1.79.15a1.76,1.76,0,0,1-2,.77c-.11,0-.25-.09-.34-.05-1.88.7-4,.31-5.81,1.06-.46.18-.76-.06-1.13-.25s-.86-.7-1.05.19h-1.41c-.52-.07-.79.49-1.28.51a3.33,3.33,0,0,1-2.22-.34c-.8-.52-1.82,0-2.73.13a4.34,4.34,0,0,1-2.5,0c-.13-.05-.35-.1-.42,0-.74.75-1.77.43-2.64.69s-1.69.59-2-.68c-.06-.26-.32-.23-.51-.13-.41.22-1,.37-1.17.72-.56,1.2-1.65.92-2.58,1.06a10.21,10.21,0,0,1-1.66,0,6.59,6.59,0,0,0-2.34.26,2.57,2.57,0,0,1-1.48,0,3.87,3.87,0,0,0-2,.05,2.35,2.35,0,0,1-1.78-.15,1.51,1.51,0,0,0-1.28-.12,11.61,11.61,0,0,1-4.37.58c-1.77.07-3.55.08-5.31.14a64.45,64.45,0,0,1-9.63-.45c-.73-.08-1-.76-1.53-1.08s-.81-.31-.86.33-.42.77-.95.75a3.32,3.32,0,0,1-1.05,0c-2.46-1-5.2-.2-7.61-1.08-1.91-.7-4.2-.76-5.49-2.76a6.67,6.67,0,0,0-1-1,4.32,4.32,0,0,1-1-4.15c.5-2.82,2.42-4.45,4.86-5.63a23.51,23.51,0,0,1,3.59-1.78c1.48-.43,3-.9,4.44-1.34.29-.09.55-.18.65-.51h.87c.37,0,.69-.46,1.12,0,.25.24.37-.15.48-.33.62-1,1.09-1.15,2.19-.53a1,1,0,0,0,1.41-.23c.88-1.33,2.3-1.24,3.58-1.49.55-.11,1.09,0,1.5-.54.22-.28.6-.15.91-.19a11.91,11.91,0,0,0,3.77-.62c1.09-.51,2.23,0,3.35.09.44.17.34.56.36.89.05.53.39.69.84.66s.65-.35.64-.78-.06-.63-.09-.95c.3-.08.35-.32.37-.57,1.1.86,1.93.33,2.74-.5a7.26,7.26,0,0,1,1.05-.77c.11.1.25.23.39.14.4-.26.75-.4,1.08.11,0,.07.28,0,.42,0,1.48-.18,3-.33,4.43-.57a3.59,3.59,0,0,1,2.48.22c.44.24.86.25,1.14-.24s.57-.47,1-.13,1.06.52,1.47-.17a.75.75,0,0,1,1.25-.22.94.94,0,0,0,1.51-.14,1.27,1.27,0,0,1,1-.35c2.29-.2,4.59-.44,6.89-.65a4,4,0,0,1,2.34.17c.87.5,1.64.87,2.46-.06a1,1,0,0,1,.58-.18c.93-.12,1.85-.26,2.78-.32,1.38-.07,2.75,0,4.13-.15a11.49,11.49,0,0,1,3-.16A7.66,7.66,0,0,0,180.31,228.94ZM120,238c.59-.44,1.25-.25,1.89-.31.44,0,.5-.22.22-.55a2.08,2.08,0,0,0-2.5.26c-.07.14-.13.29,0,.41A1.57,1.57,0,0,0,120,238Z"/><path class="cls-3" d="M133.71,233.69c0,.32.08.63.09.95s-.17.75-.64.78-.79-.13-.84-.66c0-.33.08-.72-.36-.89-.29-.6-.44-1.2.35-1.51.43-.16.87-.13,1.05.44C133.46,233.11,133.6,233.4,133.71,233.69Z"/><path class="cls-3" d="M113.65,237.74h-.87c-.38-.08-1,.21-1-.48s.6-.88,1.21-.91.67.39.66.86C113.65,237.39,113.65,237.56,113.65,237.74Z"/><path class="cls-3" d="M166.62,253.76H168c.19,0,.45-.05.54.17s-.12.45-.3.58a1.37,1.37,0,0,1-1.49.11C166.33,254.42,166.68,254,166.62,253.76Z"/><path class="cls-1" d="M182.91,252.45c.25.3.92.07,1,.62,0,.33-.4.57-.67.54a.86.86,0,0,1-.73-.76C182.47,252.63,182.6,252.47,182.91,252.45Z"/><path class="cls-1" d="M205.38,229.27c-.11.29-.27.52-.51.46a.87.87,0,0,1-.72-.75.3.3,0,0,1,.39-.33A1.45,1.45,0,0,1,205.38,229.27Z"/><path class="cls-3" d="M154.83,255.2c.3,0,.49.18.48.49s-.31.51-.66.51-.48-.08-.43-.39A.64.64,0,0,1,154.83,255.2Z"/><path class="cls-1" d="M166.25,256.77c0,.31-.17.49-.49.47s-.52-.15-.47-.48a.55.55,0,0,1,.61-.49C166.21,256.29,166.25,256.53,166.25,256.77Z"/><path class="cls-1" d="M105.62,256.24c.19,0,.36,0,.39.25a.26.26,0,0,1-.3.32.37.37,0,0,1-.36-.32C105.33,256.31,105.47,256.26,105.62,256.24Z"/><path class="cls-1" d="M176.65,254.1l-.53.18c-.12-.17-.1-.33.09-.42S176.57,253.89,176.65,254.1Z"/><path class="cls-1" d="M189.74,226.66a.37.37,0,0,1,.28-.28Z"/><path class="cls-14" d="M121.23,157s.06,0,.08,0c1.09.84,2.06.17,3-.25,5.45-2.29,11.08-4.11,16.51-6.44l3.21-1.41,10.14,16.77c.76,1.26,1.53,2.5,2.27,3.77a4.08,4.08,0,0,1-.85,5.33c-.43.39-.86.8-1.28,1.2l-6.63,5.85-2,1.73c-1.59,1.4-3.17,1.24-4.4-.48-1.94-2.72-3.84-5.46-5.78-8.17a5.18,5.18,0,0,0-7.79-.68c-3.45,3.46-6.86,7-10.29,10.44a15.14,15.14,0,0,1-2,1.87,3.28,3.28,0,0,1-4.55-.63c-.28-.34-.54-.69-.81-1a36.63,36.63,0,0,0-2.41-4.05c-1-1.62-2-3.21-3-4.82-.34-.57-.67-1.17-1-1.72a.76.76,0,0,1,.15-1.14q5.18-4.86,10.33-9.78c1.41-1.35,2.82-2.72,4.19-4.13A12.76,12.76,0,0,1,121.23,157Z"/><path class="cls-10" d="M110.16,184.87c.27.34.53.69.81,1a3.28,3.28,0,0,0,4.55.63,15.14,15.14,0,0,0,2-1.87c3.43-3.48,6.84-7,10.29-10.44a5.18,5.18,0,0,1,7.79.68c1.94,2.71,3.84,5.45,5.78,8.17,1.23,1.72,2.81,1.88,4.4.48l2-1.73a65.27,65.27,0,0,0,4.7,5.41c2.15,2.34,4.37,4.61,6.7,6.79.23.22.43.46.65.7-.19.14-.38.27-.56.42a63.26,63.26,0,0,1-13.63,8.56c-2.26,1-4.61,1.85-6.93,2.74-10.84-4.78-21.47-9.92-30.91-17.21-.94-.73-1-.73-.19-1.64A19.11,19.11,0,0,1,110.16,184.87Zm25.36-8.29a1.61,1.61,0,0,0-2.29-.46c-.76.62-.79.91-.16,1.73.46.6,1.09.54,1.37-.22C134.65,177.08,134.86,176.65,135.52,176.58Z"/><path class="cls-1" d="M187,215.28a26.51,26.51,0,0,1-2.62,2.68A1,1,0,0,0,184,219a8.35,8.35,0,0,1-2.19,7.82l-1.92-.22c-.25,0-.48-.37-.72-.14s.17.41.21.64,0,.72-.36.8-.41-.31-.37-.6-.06-.4-.35-.48c-2.58-.75-5.17-.26-7.74,0a10.23,10.23,0,0,1-3.22,0,1.55,1.55,0,0,0-1-.07,4.71,4.71,0,0,1-3.1,0,2,2,0,0,0-1.49.2c-1,.46-2,.84-3.06.09a.88.88,0,0,0-1.25.09,2.72,2.72,0,0,1-1.68.78c-1.22-.11-2.37.32-3.57.3a5.81,5.81,0,0,0-2.08.08,3.54,3.54,0,0,1-2.06.12,1.85,1.85,0,0,0-1.46.1,3.09,3.09,0,0,1-2.53.25,1.38,1.38,0,0,0-1,.11c-.56.25-1.16.76-1.8.14a52,52,0,0,1,5.07-4.17,10.91,10.91,0,0,1,2.61-1,8.69,8.69,0,0,0,5.45-6.1,2.07,2.07,0,0,0-.11-1.45c-.9-2.07-1.8-4.14-2.66-6.22-.25-.6-.49-.69-1-.28s-1.3.9-2,1.34a52.59,52.59,0,0,0-5.45-2.51,16.09,16.09,0,0,1-1.67-.93,65.09,65.09,0,0,0,19.87-11.54A220.85,220.85,0,0,0,187,215.28Zm-30.84-4.11c-1.28,0-1.27,0-1.3,1.33,0,.64.42,1,.66,1.48s-.13,1.2.84.91c.74-.22,1.26-.49.69-1.36-.16-.26,0-.38.22-.42.78-.12.71-.54.47-1.13C157.38,211.21,156.78,211.16,156.11,211.17Z"/><path class="cls-4" d="M161.41,196.2a65.09,65.09,0,0,1-19.87,11.54,16.59,16.59,0,0,1-2.88-1.3c2.32-.89,4.67-1.7,6.93-2.74a63.26,63.26,0,0,0,13.63-8.56c.18-.15.37-.28.56-.42A8.18,8.18,0,0,1,161.41,196.2Z"/><path class="cls-1" d="M55.23,133.93l0-.17Z"/><path class="cls-7" d="M141.27,229.08c.64.62,1.24.11,1.8-.14a1.38,1.38,0,0,1,1-.11,3.09,3.09,0,0,0,2.53-.25,1.85,1.85,0,0,1,1.46-.1,3.54,3.54,0,0,0,2.06-.12,5.81,5.81,0,0,1,2.08-.08c1.2,0,2.35-.41,3.57-.3a2.72,2.72,0,0,0,1.68-.78.88.88,0,0,1,1.25-.09c1.05.75,2.08.37,3.06-.09a2,2,0,0,1,1.49-.2,4.71,4.71,0,0,0,3.1,0,1.55,1.55,0,0,1,1,.07,10.23,10.23,0,0,0,3.22,0c2.57-.25,5.16-.74,7.74,0,.29.08.38.2.35.48s-.07.69.37.6.44-.44.36-.8-.52-.35-.21-.64.47.11.72.14l1.92.22a12.88,12.88,0,0,1-1.49,2.1,7.66,7.66,0,0,1-4.11.23,11.49,11.49,0,0,0-3,.16c-1.38.19-2.75.08-4.13.15-.93.06-1.85.2-2.78.32a1,1,0,0,0-.58.18c-.82.93-1.59.56-2.46.06a4,4,0,0,0-2.34-.17c-2.3.21-4.6.45-6.89.65a1.27,1.27,0,0,0-1,.35.94.94,0,0,1-1.51.14.75.75,0,0,0-1.25.22c-.41.69-.95.61-1.47.17s-.69-.38-1,.13-.7.48-1.14.24a3.59,3.59,0,0,0-2.48-.22c-1.46.24-2.95.39-4.43.57-.14,0-.37,0-.42,0-.33-.51-.68-.37-1.08-.11-.14.09-.28,0-.39-.14Zm3.62,1.31a.83.83,0,0,0-.73-.62.56.56,0,0,0-.64.55c0,.39.31.51.65.54S144.8,230.81,144.89,230.39Z"/><path class="cls-12" d="M178.63,233.67c.36.63.51,1.4,1.19,1.82a.39.39,0,0,0,.43.28l.81.25c.46.26.65-.08.86-.38a.56.56,0,0,1,.32-.37c.22,0,.34-.2.5-.32.79-.6,1.47-1.51,2.64-1.23.69.17,1.48,0,2.07.55a.42.42,0,0,0,.5,0c1.1-.62,2.33-.23,3.49-.38a.88.88,0,0,1,.9.43.73.73,0,0,0,1,.31,6.08,6.08,0,0,1,3.53-.29c.56.08,1,.19,1.21.78.14.35.64.5.75,0s.43-.47.81-.48c2,0,3.78,1.11,5.72,1.46a.6.6,0,0,1,.5.45,7.34,7.34,0,0,1,.26,2.51c-.1.6-.66.77-1.09,1.07a3.88,3.88,0,0,0-.46.52c-.25.28-.47.63-.85.74-2,.61-3.82,1.75-6,1.73-.35,0-.86,0-1.06.46h-.18c-.59-.13-.94.41-1.45.53-2.05.46-4.07,1-6.16,1.3a1.77,1.77,0,0,1-1.34-.17c-.34-.24-.66-.2-.8.17-.26.7-.87.69-1.43.8a22.5,22.5,0,0,0-4.12.78,3.31,3.31,0,0,1-2,.33,2.62,2.62,0,0,0-1.38.14c-.9.23-1.84.69-2.64-.33a.66.66,0,0,0-1.07.08c-1,1.34-1.6,1.57-3.16,1.17-.17,0-.4-.14-.5-.07-.9.65-1.69.28-2.49-.21a.6.6,0,0,0-.85.22,2.33,2.33,0,0,1-1.56.87c-2,.53-4.09.41-6.13.78a16.31,16.31,0,0,1-4.79.3,3.42,3.42,0,0,0-1.38.19c-.35.11-.81.37-1,0s.34-.46.5-.72.46-.53,0-.82a.6.6,0,0,0-.93.1,3.84,3.84,0,0,0-.45.85,1.85,1.85,0,0,1-2,1.47c-.55,0-1.12.1-1.66.08a16.44,16.44,0,0,0-4.8.25h-.09c-1.48-.41-2.93.18-4.41.15-2.68-.07-5.37.36-8.06.36-2.24,0-4.48.06-6.73-.08s-4.33-.18-6.49-.27c-1,0-2.42.26-2.64-1.42,0-.08-.09-.15-.16-.21a1.14,1.14,0,0,0-1.23-.2c-.44.16-.08.5,0,.75.08.45-.17.58-.55.58h-3.06c-.4,0-.67-.14-.69-.61,0-1.16-.23-1.27-1.36-.85a1.65,1.65,0,0,1-2-.43c-.79-.81-.6-1.8-.69-2.72-.08-.73.63-1,1.2-1.22a.64.64,0,0,0,.25-.24,1.92,1.92,0,0,1,2.36-.84c.6.14,1.13,0,1.23-.77a.9.9,0,0,1,.6-.69c1.12-.53,2.42-.46,3.52-1.07.18-.1.4,0,.56.17a1,1,0,0,0,1.43-.14,4.07,4.07,0,0,1,2.78-1.3c.64-.09,1.27-.2,1.9-.32.24-.05.49-.29.72,0a.47.47,0,0,1,0,.51c-.16.36-.43.33-.73.18-.14-.08-.29-.09-.37.08a.38.38,0,0,0,.1.48,2.09,2.09,0,0,0,1.9.14c.51-.15.88-.41.91-.94a1.14,1.14,0,0,1,.79-1,6.86,6.86,0,0,1,1.65-.57,44,44,0,0,1,6-1,4.65,4.65,0,0,0,1.81-.27c1.29-.68,2.73-.57,4.07-.94a3.21,3.21,0,0,1,1.74-.11,1.64,1.64,0,0,0,1.35-.15,1.91,1.91,0,0,1,.75-.21q2.5-.27,5-.6c.75-.1,1.56-.59,2.22-.2a2,2,0,0,0,2.38-.13c1-.79,1.8-.27,2.68,0a7.11,7.11,0,0,1,.79.38.68.68,0,0,0,.94-.2,1.31,1.31,0,0,1,1.38-.55,37.91,37.91,0,0,0,6.47-.45c1.24-.1,2.48-.19,3.72-.17a1.79,1.79,0,0,1,1.56.63,1.16,1.16,0,0,0,1.76,0,1.36,1.36,0,0,1,2-.57,2.23,2.23,0,0,0,2.66-.16,1.21,1.21,0,0,1,1.26.11c.44.21.18.54.1.84s.11.43.34.54.54.15.7-.12C177.69,235,178.51,234.57,178.63,233.67ZM152,239a.68.68,0,0,1-.54.93c-.54.08-.44-.42-.45-.74,0-.63-.29-.8-.85-.5a2.47,2.47,0,0,1-1.2.16,19,19,0,0,0-4.43.44,25.17,25.17,0,0,1-3.06.67c-1.86.21-3.76-.14-5.59.44-1.05.33-2.14.52-3.22.78-.7.16-1.4.22-1.74,1.09-.19.49-.59.12-.78-.2s-.23-.53-.63-.48a13.81,13.81,0,0,0-3.36.56,8.16,8.16,0,0,1-2.84.82c-1.1,0-1.84.92-2.8,1.31-.19.07-.18.26-.19.45a2.47,2.47,0,0,1-1.58,2,1.66,1.66,0,0,0-1.22,1.24.43.43,0,0,0,.27.58,1.56,1.56,0,0,0,1.58-.22c.33-.21.66-.46,1-.32.93.36,2,.3,2.83.9a1.05,1.05,0,0,0,1.31,0,1.65,1.65,0,0,1,1.89,0,3.87,3.87,0,0,0,2.6.49c1.28-.23,2.56-.14,3.83-.25a5.55,5.55,0,0,0,2.56-.61,1.23,1.23,0,0,1,1.79.19,1.19,1.19,0,0,0,1.15.41c.68,0,1.29-.47,2-.34a1.16,1.16,0,0,0,1.37-.68c.37-.75.76-.68,1.26-.15a1.46,1.46,0,0,0,2.09.4,1.51,1.51,0,0,1,1.28-.11c2.43.76,4.83-.4,7.25-.11.14,0,.28-.1.42-.13a17.3,17.3,0,0,1,3.58-.65,23.16,23.16,0,0,0,4.25-.22c1.58-.26,3.15,0,4.79-.56s3.36-1.28,5.21-.71c.47.14.9-.07.57-.75-.16-.32,0-.57.33-.7s.47.06.59.34a1.1,1.1,0,0,0,2.06.2,1.07,1.07,0,0,1,1.3-.41,5.55,5.55,0,0,0,3.49-.07,8.52,8.52,0,0,1,1.78-.48c.69-.08,1.05-.33,1.1-1.08s.51-.88,1-.44a1.87,1.87,0,0,0,1.64.38,7.35,7.35,0,0,1,1.13-.12c.43,0,.71-.11.82-.6s.5-1.05.92-.85a6.87,6.87,0,0,0,1.88.26,4.6,4.6,0,0,0,3-.52c.19-.09.39-.18.42-.41a1.73,1.73,0,0,1,1.58-1.61c.11,0,.24-.07.23-.21s-.08-.19-.14-.2a2.25,2.25,0,0,1-1.48-1c-.19-.22-.43,0-.6.19a2.76,2.76,0,0,1-1.42.65c-.45.08-1.06.24-1.05-.61,0-.34-.33-.35-.57-.43a15.73,15.73,0,0,0-2.36-.18,1.2,1.2,0,0,0-1.24.37,1.26,1.26,0,0,1-1.82.16,1.15,1.15,0,0,0-1.14-.26,1.88,1.88,0,0,1-1.36-.15,2.66,2.66,0,0,0-1.11-.26c-1.74.05-3.52-.22-5.22.46a1.34,1.34,0,0,1-.69.05,22.51,22.51,0,0,0-6.19,0c-.62.07-1.2.57-1.79.34-1.87-.74-3.68.16-5.53.13a60.23,60.23,0,0,0-6.54.61c-.67.07-.93.33-.57,1,.11.19.38.37,0,.57a1.49,1.49,0,0,1-2-.81c-.07-.25-.08-.53-.33-.69s-.33-.32-.54-.24S152,238.76,152,239Zm-36.12,6.92c-.08.4-.09.71.27.9s.55.18.65,0c.43-.89,1.39-1.11,2-1.69.23-.19.37-.44,0-.64a2.88,2.88,0,0,0-2.69.05c-.78.3-.36.76-.3,1.2A.75.75,0,0,1,115.84,245.87Zm-2.25,1.24c.5.2,1.14.11,1.29.77.05.2.15.41.42.31a.39.39,0,0,0,.25-.5c-.12-.32.18-.82-.36-1S114.06,246.45,113.59,247.11Zm26.57-9.35c0-.28-.18-.51-.49-.5a.6.6,0,0,0-.62.6c0,.35.26.4.54.39S140.16,238.14,140.16,237.76Zm-19.34,5.34a.6.6,0,0,0-.61-.5c-.3,0-.37.25-.36.5s.23.44.53.43S120.83,243.42,120.82,243.1Z"/><path class="cls-15" d="M178.63,233.67c-.12.9-.94,1.34-1.36,2.05-.16.27-.44.25-.7.12s-.41-.25-.34-.54.34-.63-.1-.84a1.21,1.21,0,0,0-1.26-.11,2.23,2.23,0,0,1-2.66.16,1.36,1.36,0,0,0-2,.57,1.16,1.16,0,0,1-1.76,0,1.79,1.79,0,0,0-1.56-.63c-1.24,0-2.48.07-3.72.17a37.91,37.91,0,0,1-6.47.45,1.31,1.31,0,0,0-1.38.55.68.68,0,0,1-.94.2,7.11,7.11,0,0,0-.79-.38c-.88-.29-1.67-.81-2.68,0a2,2,0,0,1-2.38.13c-.66-.39-1.47.1-2.22.2q-2.5.33-5,.6a1.91,1.91,0,0,0-.75.21,1.64,1.64,0,0,1-1.35.15,3.21,3.21,0,0,0-1.74.11c-1.34.37-2.78.26-4.07.94a4.65,4.65,0,0,1-1.81.27,44,44,0,0,0-6,1,6.86,6.86,0,0,0-1.65.57,1.14,1.14,0,0,0-.79,1c0,.53-.4.79-.91.94a2.09,2.09,0,0,1-1.9-.14.38.38,0,0,1-.1-.48c.08-.17.23-.16.37-.08.3.15.57.18.73-.18a.47.47,0,0,0,0-.51c-.23-.27-.48,0-.72,0-.63.12-1.26.23-1.9.32a4.07,4.07,0,0,0-2.78,1.3,1,1,0,0,1-1.43.14c-.16-.14-.38-.27-.56-.17-1.1.61-2.4.54-3.52,1.07a.9.9,0,0,0-.6.69c-.1.73-.63.91-1.23.77a1.92,1.92,0,0,0-2.36.84.64.64,0,0,1-.25.24c-.57.25-1.28.49-1.2,1.22.09.92-.1,1.91.69,2.72a1.65,1.65,0,0,0,2,.43c1.13-.42,1.32-.31,1.36.85,0,.47.29.61.69.61h3.06c.38,0,.63-.13.55-.58,0-.25-.41-.59,0-.75a1.14,1.14,0,0,1,1.23.2c.07.06.15.13.16.21.22,1.68,1.62,1.38,2.64,1.42,2.16.09,4.33.14,6.49.27s4.49.09,6.73.08c2.69,0,5.38-.43,8.06-.36,1.48,0,2.93-.56,4.41-.15h.09a16.44,16.44,0,0,1,4.8-.25c.54,0,1.11-.06,1.66-.08a1.85,1.85,0,0,0,2-1.47,3.84,3.84,0,0,1,.45-.85.6.6,0,0,1,.93-.1c.41.29.12.55,0,.82s-.7.38-.5.72.69.13,1,0a3.42,3.42,0,0,1,1.38-.19,16.31,16.31,0,0,0,4.79-.3c2-.37,4.12-.25,6.13-.78a2.33,2.33,0,0,0,1.56-.87.6.6,0,0,1,.85-.22c.8.49,1.59.86,2.49.21.1-.07.33,0,.5.07,1.56.4,2.18.17,3.16-1.17a.66.66,0,0,1,1.07-.08c.8,1,1.74.56,2.64.33a2.62,2.62,0,0,1,1.38-.14,3.31,3.31,0,0,0,2-.33,22.5,22.5,0,0,1,4.12-.78c.56-.11,1.17-.1,1.43-.8.14-.37.46-.41.8-.17a1.77,1.77,0,0,0,1.34.17c2.09-.27,4.11-.84,6.16-1.3.51-.12.86-.66,1.45-.53a1.79,1.79,0,0,0,1.84.46c.07,0,.15-.14.14-.2s-.16-.23-.31-.24l-1.49,0c.2-.49.71-.46,1.06-.46,2.18,0,4-1.12,6-1.73.38-.11.6-.46.85-.74a3.88,3.88,0,0,1,.46-.52c.43-.3,1-.47,1.09-1.07a7.34,7.34,0,0,0-.26-2.51.6.6,0,0,0-.5-.45c-1.94-.35-3.68-1.48-5.72-1.46-.38,0-.7-.12-.81.48s-.61.38-.75,0c-.25-.59-.65-.7-1.21-.78a6.08,6.08,0,0,0-3.53.29.73.73,0,0,1-1-.31.88.88,0,0,0-.9-.43c-1.16.15-2.39-.24-3.49.38a.42.42,0,0,1-.5,0c-.59-.59-1.38-.38-2.07-.55-1.17-.28-1.85.63-2.64,1.23-.16.12-.28.29-.5.32a1,1,0,0,1,.23-.64l2.44-2.54c0,.26.1.63.46.43,1.41-.81,2.94-.46,4.38-.35a42.91,42.91,0,0,0,6.89.3,3,3,0,0,1,2.23.64.88.88,0,0,0,.91.12c1.56-.43,3,.12,4.54.42a10.34,10.34,0,0,1,4,2.07,1.74,1.74,0,0,1,.45.4,4.62,4.62,0,0,1-.46,4,5.41,5.41,0,0,1-2.93,2.1.34.34,0,0,0-.15.09c-.92,1-2.3,1-3.44,1.49a2,2,0,0,1-1.28.18.63.63,0,0,0-.75.33c-.34.84-1.08,1-1.83,1.16a3.86,3.86,0,0,0-.66.2c-.4.17-.74.22-.94-.27a.6.6,0,0,0-.7-.4c-.41.09-.33.44-.27.72s-.05.6-.47.62a6,6,0,0,0-3.32.91,2,2,0,0,1-2.1.1.57.57,0,0,0-.66,0c-.93.78-2.12.78-3.2,1.1a16.31,16.31,0,0,1-3.61.6,6,6,0,0,0-2.41.23c-.29.14-.66.17-1,.35a1.25,1.25,0,0,1-1.41,0,1.17,1.17,0,0,0-1.82.26c-.3.41-.65.62-1,0-.2-.31-.52-.26-.78-.06-1.54,1.14-3.41,1.07-5.17,1.38-1.15.2-2.34.22-3.48.43a3.77,3.77,0,0,1-2.06-.22c-.28-.11-.68-.32-.81-.08-.47.85-1.08.74-1.81.44a.54.54,0,0,0-.6.28c-.39.66-1,.62-1.67.66-1.4.08-2.79.27-4.19.33a9.51,9.51,0,0,1-2.77-.23.85.85,0,0,0-.93.19,2.4,2.4,0,0,1-1.93.66,19.66,19.66,0,0,0-3.76.08c-1.6.1-3.21.21-4.81.33-2,.15-4.07-.2-6.1.27-1.27.3-2.61-.18-3.93,0a27.82,27.82,0,0,1-5.84.06c-2.25-.11-4.55.09-6.78-.51a6.14,6.14,0,0,0-2-.05,26.75,26.75,0,0,1-4.19-.38c-.57-.05-.62-.34-.26-.76.23-.26.56-.58.14-.88a.69.69,0,0,0-1,.23c-.38.79-1,.77-1.71.72a6.27,6.27,0,0,1-4.56-2.09,4.65,4.65,0,0,0-.53-.45,2,2,0,0,1-.71-2.76,2.48,2.48,0,0,0,.12-.77c0-.64.18-1.06.89-1.17a1,1,0,0,0,.77-1c0-1,1.83-2,2.71-1.54.26.13.52.29.79.4s.61.06.6-.28c0-1.25,1.09-1.49,1.84-1.63,1-.19,1.83-.73,2.79-1a10.53,10.53,0,0,1,2.48-.46,12.3,12.3,0,0,0,1.93-.53,5.35,5.35,0,0,0,2.3-.69.1.1,0,0,1,.09,0,2.11,2.11,0,0,0,2.21-.33c.63-.44,1.7-.24,2.57-.3a6.44,6.44,0,0,0,2.63-.9,1.18,1.18,0,0,1,1.59.09c.41.4.77.4,1.12-.17a2.36,2.36,0,0,1,3-.36c.35.31.63.25.75-.1.33-.89,1.12-1,1.85-1.13a13.8,13.8,0,0,1,3.36-.42c1.22.16,2.28-.44,3.44-.26a3.44,3.44,0,0,0,1.39-.09,3.81,3.81,0,0,1,2.56,0,1,1,0,0,0,1.1-.34,2.17,2.17,0,0,1,1.8-.42.65.65,0,0,1,.49.32c.15.6.38.83,1,.54.4-.19.94-.05,1.09-.68a5,5,0,0,1,2.44-.9c.26.12.29.3.07.47s-.67.59-.24.91.73-.19,1-.46a.87.87,0,0,0,.19-.47c.08-.54.36-.59.7-.24.53.54.93.44,1.36-.12a1.58,1.58,0,0,1,1.19-.5l7.86-.68a1.2,1.2,0,0,1,.67.17.92.92,0,0,0,.93.05c1.11-.74,2.4-.47,3.59-.56,2.12-.18,4.26-.05,6.4-.1.46,0,.65,0,.45.51-.06.17.23.21.4.24Z"/><path class="cls-16" d="M181.92,235.64c-.21.3-.4.64-.86.38A1.52,1.52,0,0,1,181.92,235.64Z"/><path class="cls-16" d="M180.25,235.77a.39.39,0,0,1-.43-.28A.52.52,0,0,1,180.25,235.77Z"/><path class="cls-6" d="M75.36,116a44,44,0,0,1-2.84,5.11c-.79-.61-1.61-1.18-2.34-1.84a2.93,2.93,0,0,1-.35-4.11,2.82,2.82,0,0,1,4.07-.29Z"/><path class="cls-11" d="M86.42,132.12a11.78,11.78,0,0,1,3.15,2c-1.11.41-2.23.88-3.36.06-.53-.38-.88-.79-.2-1.38A2.73,2.73,0,0,0,86.42,132.12Z"/><path class="cls-11" d="M89.56,134.1l.26.18Z"/><path class="cls-6" d="M150.65,142.35c2,.24,3.94.63,5.9,1,.41,1.68.83,3.34,1.22,5a2.83,2.83,0,0,1-1.1,3.11,2.68,2.68,0,0,1-3,.22,2.19,2.19,0,0,1-1.15-1.15,51.08,51.08,0,0,1-1.93-7.8A2.09,2.09,0,0,1,150.65,142.35Z"/><path class="cls-8" d="M177.88,152.11c-1.2,0-2.4,0-3.6,0-.83,0-.87-.48-.86-1.09s.05-1.1.87-1.09c2.4,0,4.8,0,7.21,0,.75,0,.86.42.84,1s0,1.2-.86,1.17C180.28,152.08,179.08,152.11,177.88,152.11Z"/><path class="cls-7" d="M120,238a1.57,1.57,0,0,1-.39-.19c-.13-.12-.07-.27,0-.41a2.08,2.08,0,0,1,2.5-.26c.28.33.22.52-.22.55C121.29,237.79,120.63,237.6,120,238Z"/><path class="cls-11" d="M135.52,176.58c-.66.07-.87.5-1.08,1-.28.76-.91.82-1.37.22-.63-.82-.6-1.11.16-1.73A1.61,1.61,0,0,1,135.52,176.58Z"/><path class="cls-3" d="M156.11,211.17c.67,0,1.27,0,1.58.81.24.59.31,1-.47,1.13-.26,0-.38.16-.22.42.57.87.05,1.14-.69,1.36-1,.29-.65-.52-.84-.91s-.67-.84-.66-1.48C154.84,211.2,154.83,211.17,156.11,211.17Z"/><path class="cls-1" d="M144.89,230.39c-.09.42-.38.5-.72.47s-.68-.15-.65-.54a.56.56,0,0,1,.64-.55A.83.83,0,0,1,144.89,230.39Z"/><path class="cls-16" d="M152,239c0-.19-.2-.43.09-.53s.37.14.54.24.26.44.33.69a1.49,1.49,0,0,0,2,.81c.36-.2.09-.38,0-.57-.36-.64-.1-.9.57-1A60.23,60.23,0,0,1,162,238c1.85,0,3.66-.87,5.53-.13.59.23,1.17-.27,1.79-.34a22.51,22.51,0,0,1,6.19,0,1.34,1.34,0,0,0,.69-.05c1.7-.68,3.48-.41,5.22-.46a2.66,2.66,0,0,1,1.11.26,1.88,1.88,0,0,0,1.36.15,1.15,1.15,0,0,1,1.14.26,1.26,1.26,0,0,0,1.82-.16,1.2,1.2,0,0,1,1.24-.37,15.73,15.73,0,0,1,2.36.18c.24.08.57.09.57.43,0,.85.6.69,1.05.61a2.76,2.76,0,0,0,1.42-.65c.17-.16.41-.41.6-.19a2.25,2.25,0,0,0,1.48,1c.06,0,.13.13.14.2s-.12.19-.23.21a1.73,1.73,0,0,0-1.58,1.61c0,.23-.23.32-.42.41a4.6,4.6,0,0,1-3,.52,6.87,6.87,0,0,1-1.88-.26c-.42-.2-.81.39-.92.85s-.39.59-.82.6a7.35,7.35,0,0,0-1.13.12,1.87,1.87,0,0,1-1.64-.38c-.49-.44-1-.24-1,.44s-.41,1-1.1,1.08a8.52,8.52,0,0,0-1.78.48,5.55,5.55,0,0,1-3.49.07,1.07,1.07,0,0,0-1.3.41,1.1,1.1,0,0,1-2.06-.2c-.12-.28-.27-.47-.59-.34s-.49.38-.33.7c.33.68-.1.89-.57.75-1.85-.57-3.62.19-5.21.71s-3.21.3-4.79.56a23.16,23.16,0,0,1-4.25.22A17.3,17.3,0,0,0,154,248c-.14,0-.28.14-.42.13-2.42-.29-4.82.87-7.25.11a1.51,1.51,0,0,0-1.28.11,1.46,1.46,0,0,1-2.09-.4c-.5-.53-.89-.6-1.26.15a1.16,1.16,0,0,1-1.37.68c-.67-.13-1.28.3-2,.34a1.19,1.19,0,0,1-1.15-.41,1.23,1.23,0,0,0-1.79-.19,5.55,5.55,0,0,1-2.56.61c-1.27.11-2.55,0-3.83.25a3.87,3.87,0,0,1-2.6-.49,1.65,1.65,0,0,0-1.89,0,1.05,1.05,0,0,1-1.31,0c-.85-.6-1.9-.54-2.83-.9-.38-.14-.71.11-1,.32a1.56,1.56,0,0,1-1.58.22.43.43,0,0,1-.27-.58,1.66,1.66,0,0,1,1.22-1.24,2.47,2.47,0,0,0,1.58-2c0-.19,0-.38.19-.45,1-.39,1.7-1.3,2.8-1.31a8.16,8.16,0,0,0,2.84-.82,13.81,13.81,0,0,1,3.36-.56c.4,0,.48.23.63.48s.59.69.78.2c.34-.87,1-.93,1.74-1.09,1.08-.26,2.17-.45,3.22-.78,1.83-.58,3.73-.23,5.59-.44a25.17,25.17,0,0,0,3.06-.67,19,19,0,0,1,4.43-.44,2.47,2.47,0,0,0,1.2-.16c.56-.3.82-.13.85.5,0,.32-.09.82.45.74A.68.68,0,0,0,152,239Zm34.67,2.21a.91.91,0,0,0-.4-.65,3,3,0,0,1-1.63-1.45.39.39,0,0,0-.54-.12c-.16.09-.31.23-.27.41a14.71,14.71,0,0,0,.42,1.77.63.63,0,0,0,.84.44,1.33,1.33,0,0,1,1.07,0C186.39,241.67,186.63,241.52,186.63,241.16Zm-41.91,4.34c.55-.09,1.18-.17,1.8-.32.23-.06.54-.22.41-.56s-.33-.28-.59-.26c-.58,0-1.16,0-1.74.07-.4,0-.82,0-.81.57S144.28,245.44,144.72,245.5Zm6.8.52c.47,0,.63-.45.76-.89s-.22-.53-.54-.49a1.07,1.07,0,0,0-1.06.87C150.62,245.93,151,246,151.52,246Zm-5.36,1.53c.41-.09.75-.27.72-.74a.8.8,0,0,0-.83-.75.56.56,0,0,0-.64.65A.87.87,0,0,0,146.16,247.55Zm-18.09-1.24c0-.33-.12-.6-.49-.6a.79.79,0,0,0-.84.61c-.07.41.25.55.61.56S128,246.76,128.07,246.31ZM164.4,239a.45.45,0,0,0-.51-.36c-.32,0-.58.17-.56.54a.42.42,0,0,0,.47.41C164.14,239.61,164.28,239.33,164.4,239Zm-14.19,8.31a.38.38,0,0,0,.32-.51c-.06-.24-.14-.54-.47-.52s-.32.29-.31.52S149.88,247.34,150.21,247.35Z"/><path class="cls-16" d="M115.84,245.87a.75.75,0,0,0,0-.2c-.06-.44-.48-.9.3-1.2a2.88,2.88,0,0,1,2.69-.05c.33.2.19.45,0,.64-.66.58-1.62.8-2,1.69-.1.2-.43.13-.65,0S115.76,246.27,115.84,245.87Z"/><path class="cls-16" d="M113.59,247.11c.47-.66,1-.52,1.6-.38s.24.64.36,1a.39.39,0,0,1-.25.5c-.27.1-.37-.11-.42-.31C114.73,247.22,114.09,247.31,113.59,247.11Z"/><path class="cls-15" d="M140.16,237.76c0,.38-.25.48-.57.49s-.56,0-.54-.39a.6.6,0,0,1,.62-.6C140,237.25,140.11,237.48,140.16,237.76Z"/><path class="cls-13" d="M196.71,243.55l1.49,0c.15,0,.3.07.31.24s-.07.16-.14.2a1.79,1.79,0,0,1-1.84-.46Z"/><path class="cls-15" d="M120.82,243.1c0,.32-.18.42-.44.43s-.52-.1-.53-.43.06-.5.36-.5A.6.6,0,0,1,120.82,243.1Z"/><path class="cls-12" d="M186.63,241.16c0,.36-.24.51-.51.4a1.33,1.33,0,0,0-1.07,0,.63.63,0,0,1-.84-.44,14.71,14.71,0,0,1-.42-1.77c0-.18.11-.32.27-.41a.39.39,0,0,1,.54.12,3,3,0,0,0,1.63,1.45A.91.91,0,0,1,186.63,241.16Z"/><path class="cls-12" d="M144.72,245.5c-.44-.06-.93.09-.93-.5s.41-.55.81-.57c.58,0,1.16,0,1.74-.07.26,0,.5,0,.59.26s-.18.5-.41.56C145.9,245.33,145.27,245.41,144.72,245.5Z"/><path class="cls-12" d="M151.52,246c-.5,0-.9-.09-.84-.51a1.07,1.07,0,0,1,1.06-.87c.32,0,.64.11.54.49S152,246.07,151.52,246Z"/><path class="cls-12" d="M146.16,247.55a.87.87,0,0,1-.75-.84.56.56,0,0,1,.64-.65.8.8,0,0,1,.83.75C146.91,247.28,146.57,247.46,146.16,247.55Z"/><path class="cls-12" d="M128.07,246.31c0,.45-.33.58-.72.57s-.68-.15-.61-.56a.79.79,0,0,1,.84-.61C128,245.71,128.06,246,128.07,246.31Z"/><path class="cls-12" d="M164.4,239c-.12.29-.26.57-.6.59a.42.42,0,0,1-.47-.41c0-.37.24-.52.56-.54A.45.45,0,0,1,164.4,239Z"/><path class="cls-12" d="M150.21,247.35c-.33,0-.45-.22-.46-.51s0-.5.31-.52.41.28.47.52A.38.38,0,0,1,150.21,247.35Z"/></g></g></svg>