<svg xmlns="http://www.w3.org/2000/svg" viewBox="0 0 121.9 74.81"><defs><style>.cls-1{fill:#7891bc;}</style></defs><title>be</title><g id="Capa_2" data-name="Capa 2"><g id="Capa_10" data-name="Capa 10"><path class="cls-1" d="M0,2.32c.11-.15.28-.29.32-.46A2.4,2.4,0,0,1,2.9,0H13.27C20.58,0,27.9,0,35.21.06c8.91.11,17.33,7.28,19,16A20,20,0,0,1,52,30.23c-.53.93-.37,1.39.44,2.05,6.48,5.27,9.59,12.15,8.87,20.43a23.25,23.25,0,0,1-18.9,20.77,27.49,27.49,0,0,1-5.2.47c-10.93,0-21.85,0-32.78.06C2.36,74,.67,73.75,0,71.47ZM26.48,60.61c3.85,0,7.71,0,11.56,0a10,10,0,1,0-.16-20c-7.67-.09-15.33,0-23,0-1.07,0-1.37.42-1.37,1.41q0,8.64,0,17.28c0,1,.38,1.38,1.41,1.36C18.77,60.59,22.63,60.61,26.48,60.61ZM24.8,13.41c-3.38,0-6.75,0-10.13,0-.82,0-1.15.29-1.14,1.09,0,3.89,0,7.79,0,11.68,0,.7.24,1.09,1,1.08,6.79,0,13.58.06,20.37,0,3.53-.06,6.52-3.49,6.41-7a6.89,6.89,0,0,0-6.79-6.75Z"/><path class="cls-1" d="M79.29,49a44.7,44.7,0,0,0,1.88,4.64c4.54,8.44,15.39,10.06,21.78,4.41a3.5,3.5,0,0,1,2.14-.77c3.94-.08,7.87,0,11.8,0,2.06,0,2.45.69,1.48,2.45-3.78,6.91-9.33,11.73-16.93,13.91a26.4,26.4,0,0,1-23.55-4A27.66,27.66,0,0,1,66.4,51.84c-2-10.3.64-19.35,8-26.88a27.23,27.23,0,0,1,35.3-3,28.46,28.46,0,0,1,11.64,18.47A38.22,38.22,0,0,1,121.9,46c.06,1.84-1.18,2.91-3.16,2.91H81.3C80.76,48.94,80.21,49,79.29,49Zm26.85-11.57c-.37-.59-.58-1-.83-1.31a14.18,14.18,0,0,0-23.15.2,5.08,5.08,0,0,0-.44,1,4.37,4.37,0,0,0,1.27.44q10.73,0,21.44,0A8.73,8.73,0,0,0,106.14,37.47Z"/><path class="cls-1" d="M93,13H81c-1.7,0-2.39-.68-2.41-2.36s0-3.57,0-5.36c0-1.58.75-2.31,2.36-2.31q12.09,0,24.18,0c1.63,0,2.3.7,2.31,2.32,0,1.83,0,3.66,0,5.48,0,1.55-.69,2.23-2.27,2.23Z"/></g></g></svg>