<svg xmlns="http://www.w3.org/2000/svg" viewBox="0 0 254.93 260.42"><defs><style>.cls-1{fill:#bfb733;}.cls-2{fill:#e6e6e6;}.cls-3{fill:#c3bb40;}.cls-4{fill:#2f2b2d;}.cls-5{fill:#cbc3c3;}.cls-6{fill:#c3bba9;}.cls-7{fill:#537faa;}.cls-8{fill:#ccc4c4;}.cls-9{fill:#383537;}</style></defs><title>di</title><g id="Capa_2" data-name="Capa 2"><g id="Proyectos_Escritorio" data-name="Proyectos Escritorio"><path class="cls-1" d="M254.91,5.86V254.92a6.26,6.26,0,0,1-5.31,5.48H16.12c.3-1.08.53-1.18,1.31-.59a.78.78,0,0,0,1-.09c.26-.2.27-.64,0-.76-1-.44-1.55-1.58-2.85-1.76a2,2,0,0,0-2,.76c-.48.51-.32,1,.05,1.51a1.58,1.58,0,0,1,.18.93H5.32a7.83,7.83,0,0,1-2-.66A6.47,6.47,0,0,1,0,255.09V5.86c.06-.15.12-.31.17-.47A6,6,0,0,1,6.51.69H227.17c7.17,0,14.33,0,21.5,0a6,6,0,0,1,6,4.52ZM216.15,167.65a.33.33,0,0,0,0-.17c0-.35.06-.71.06-1.06V94.3c0-3.39-1.66-5.06-5-5.06H123.74l-14.07,0c-.37,0-.74.09-1-.32a4.21,4.21,0,0,0-3.78-1.67q-16.38,0-32.74,0H44.33A3.94,3.94,0,0,0,40.25,90,6.61,6.61,0,0,0,40,91.94q0,20.44,0,40.88,0,32.27,0,64.52a4,4,0,0,0,4.34,4.34H105a4.27,4.27,0,0,0,2.38-.52,4.11,4.11,0,0,0,2-3.79c0-5.54,0-11.09,0-16.63,8.82,0,17.64,0,26.46,0a2.47,2.47,0,0,1,2.71,1.8,17.81,17.81,0,0,1,.65,10.94.9.9,0,0,1-1.06.77c-3.77,0-7.55,0-11.33,0a1.69,1.69,0,0,0-1.93,1.88c0,1,0,2,0,2.92,0,1.23,0,1.23,1.18,1.23h42.13c4.75,0,9.5,0,14.24,0,.94,0,1.18-.28,1.11-1.14s0-1.77,0-2.66c0-1.69-.54-2.24-2.21-2.24h-9.73c-.41,0-.78.05-1-.51a16.83,16.83,0,0,1,.44-11.76,1.68,1.68,0,0,1,1.83-1.22q20.31.06,40.62,0c.3,0,.6,0,.89,0a1.71,1.71,0,0,0,1.74-1.76C216.19,175.2,216.16,171.42,216.15,167.65Zm-95,60.24a2.77,2.77,0,0,0-.19-.56,3.76,3.76,0,0,0-2.9-.73,2.54,2.54,0,0,0-.65.46c-.25.28-.25.77.11.78.92,0,.75.64.77,1.17s.24.92.87.59c.41-.21.57-.1.63.36s.48.34.79.33.54-.14.46-.41A2.45,2.45,0,0,1,121.12,227.89ZM248.26,97.73a2,2,0,0,0,1.68-.87c.26-.3.35-.8-.11-1-.61-.25-1.11-.65-1.68-.95s-1,.23-1.39.51,0,.55.29.75a.72.72,0,0,1,.24.64C247.27,97.53,247.64,97.79,248.26,97.73Z"/><path class="cls-2" d="M254.91,5.86l-.22-.64a6,6,0,0,0-6-4.52c-7.17,0-14.33,0-21.5,0H6.51A6,6,0,0,0,.18,5.39c0,.16-.11.32-.17.47C0,4.06,0,2.27,0,.47,0,.08.07-.06.46,0A2,2,0,0,0,.81,0h253.3c.66,0,.84.14.81.81C254.87,2.5,254.91,4.18,254.91,5.86Z"/><path class="cls-3" d="M13.82,260.4a1.58,1.58,0,0,0-.18-.93c-.37-.5-.53-1-.05-1.51a2,2,0,0,1,2-.76c1.3.18,1.82,1.32,2.85,1.76.27.12.26.56,0,.76a.78.78,0,0,1-1,.09c-.78-.59-1-.49-1.31.59h-.71c-.18-.36-.35-.36-.53,0Z"/><path class="cls-2" d="M249.6,260.4a6.26,6.26,0,0,0,5.31-5.48c0,1.68,0,3.36,0,5,0,.38-.08.46-.46.46C252.84,260.39,251.22,260.4,249.6,260.4Z"/><path class="cls-2" d="M0,255.09a6.47,6.47,0,0,0,3.31,4.65,7.83,7.83,0,0,0,2,.66c-1.62,0-3.24,0-4.87,0-.38,0-.46-.08-.45-.46C0,258.34,0,256.72,0,255.09Z"/><path class="cls-1" d="M14.88,260.4c.18-.36.35-.36.53,0Z"/><path class="cls-4" d="M109.43,180.74c0,5.54,0,11.09,0,16.63a4.11,4.11,0,0,1-2,3.79,4.27,4.27,0,0,1-2.38.52H44.39a4,4,0,0,1-4.34-4.34q0-32.26,0-64.52,0-20.44,0-40.88A6.61,6.61,0,0,1,40.25,90a3.94,3.94,0,0,1,4.08-2.75H72.12q16.36,0,32.74,0a4.21,4.21,0,0,1,3.78,1.67c.29.41.66.32,1,.32l14.07,0h87.43c3.38,0,5,1.67,5,5.06v72.12c0,.35,0,.71-.06,1.06H110.75c-.44,0-.92-.19-1.32.17Zm0-76v7.5l-.06,9c-.25,0-.56.06-.57.38s.33.3.57.34v8.31c-1.27,0-1.83,1.11-2.48,1.82-.41.44-.29,1.52-.7,2.25a.4.4,0,0,0,.17.6c.27.12.46-.06.56-.28a3.83,3.83,0,0,1,.9-.94c.44-.44,1.3-.62.94-1.6-.12-.32.32-.42.61-.48,0,.35,0,.7,0,1.06l0,19.88c0,2.15,0,4.31-.05,6.46,0,.9.23,1.13,1.13,1.13,7.43,0,14.86,0,22.3,0l73.79,0c3.1,0,4.53-1.43,4.54-4.55v-18q0-18.4,0-36.81c0-2.88-1.49-4.36-4.36-4.36H187.83q-37.86,0-75.74,0c-.86,0-2-.4-2.53.2s-.14,1.7-.14,2.58Zm-6.78,39.16V100.05c0-2.51-1.26-3.76-3.75-3.76H50.59c-2.53,0-3.78,1.22-3.78,3.72q0,16.71,0,33.44,0,27.12,0,54.24c0,2.63,1.23,3.86,3.84,3.86H99a3.45,3.45,0,0,0,2.65-1,3.91,3.91,0,0,0,1-2.94ZM75.22,193.49a2.83,2.83,0,0,0-3,2.95,3,3,0,1,0,6,.05A2.84,2.84,0,0,0,75.22,193.49ZM154.36,89.42c-.45-.1-.74.32-1.13.49-.2.09-.37.19-.32.45s.23.46.49.43c1-.1,1.65.2,1.59,1.35a.13.13,0,0,0,0,.07c.15.22.3.51.61.4a.49.49,0,0,0,.3-.71,2.93,2.93,0,0,1-.16-1.21A1.25,1.25,0,0,0,154.36,89.42Zm59,69.91c.54,0,1,0,1.05-.68,0-.53-.25-.75-.76-.73s-1.08.24-1.13.88S213,159.29,213.32,159.33Z"/><path class="cls-5" d="M109.43,180.74V167.65H216.15c0,3.77,0,7.55,0,11.32a1.71,1.71,0,0,1-1.74,1.76c-.29,0-.59,0-.89,0q-20.31,0-40.62,0a1.68,1.68,0,0,0-1.83,1.22,16.83,16.83,0,0,0-.44,11.76c.19.56.56.51,1,.51h9.73c1.67,0,2.21.55,2.21,2.24,0,.89,0,1.78,0,2.66s-.17,1.15-1.11,1.14c-4.74-.05-9.49,0-14.24,0H126.11c-1.18,0-1.18,0-1.18-1.23,0-1,0-1.94,0-2.92a1.69,1.69,0,0,1,1.93-1.88c3.78,0,7.56,0,11.33,0a.9.9,0,0,0,1.06-.77,17.81,17.81,0,0,0-.65-10.94,2.47,2.47,0,0,0-2.71-1.8C127.07,180.78,118.25,180.74,109.43,180.74Z"/><path class="cls-6" d="M216.15,167.65H109.43c.4-.36.88-.17,1.32-.17h105.4A.33.33,0,0,1,216.15,167.65Z"/><path class="cls-3" d="M121.12,227.89a2.45,2.45,0,0,0-.11,2c.08.27-.19.41-.46.41s-.72.12-.79-.33-.22-.57-.63-.36c-.63.33-.86,0-.87-.59s.15-1.13-.77-1.17c-.36,0-.36-.5-.11-.78a2.54,2.54,0,0,1,.65-.46,3.76,3.76,0,0,1,2.9.73A2.77,2.77,0,0,1,121.12,227.89Z"/><path class="cls-3" d="M248.26,97.73c-.62.06-1-.2-1-.9a.72.72,0,0,0-.24-.64c-.25-.2-.64-.49-.29-.75s.79-.82,1.39-.51,1.07.7,1.68.95c.46.18.37.68.11,1A2,2,0,0,1,248.26,97.73Z"/><path class="cls-7" d="M102.65,143.94v43.71a3.91,3.91,0,0,1-1,2.94,3.45,3.45,0,0,1-2.65,1H50.64c-2.61,0-3.83-1.23-3.84-3.86q0-27.12,0-54.24,0-16.72,0-33.44c0-2.5,1.25-3.72,3.78-3.72H98.9c2.49,0,3.75,1.25,3.75,3.76ZM74.8,119.35h-14c-1.16,0-1.17,0-1.17,1.16v25c0,1.18,0,1.19,1.23,1.2q13.93,0,27.87,0c.79,0,1.06-.21,1.06-1q0-12.65,0-25.3c0-.89-.3-1.08-1.12-1.07C84.06,119.37,79.43,119.35,74.8,119.35Zm-.09,35.33H71.53c-2.89,0-5.77,0-8.66,0a1.47,1.47,0,0,0-1.61,1.81c.14.82.74,1.23,1.86,1.23H86.36a2.81,2.81,0,0,0,.87-.11,1.53,1.53,0,0,0,.61-2.46,1.79,1.79,0,0,0-1.46-.48Zm-.09,8.77h12a1.38,1.38,0,0,0,1.54-1.27,1.42,1.42,0,0,0-1-1.67,2.8,2.8,0,0,0-.87-.1h-20c-1.21,0-2.42,0-3.62,0a1.51,1.51,0,0,0,0,3H74.62Z"/><path class="cls-8" d="M109.37,121.27l.06-9h94.25c1.27,0,1.28,0,1.28,1.23q0,18.94,0,37.88c0,1.22,0,1.23-1.27,1.23H109.43l0-19.88c0-.36,0-.71,0-1.06v-10.4Z"/><path class="cls-7" d="M109.43,152.61h94.25c1.27,0,1.27,0,1.27-1.23q0-18.94,0-37.88c0-1.23,0-1.23-1.28-1.23H109.43v-7.5h70.86c7.88,0,15.75,0,23.62,0,.8,0,1.11-.21,1.06-1-.07-1,0-2.12,0-3.18,0-1.29,0-1.29-1.31-1.29H145.7l-36.28,0c0-.88-.37-2,.14-2.58s1.67-.2,2.53-.2q37.88,0,75.74,0h18.94c2.87,0,4.36,1.48,4.36,4.36q0,18.4,0,36.81v18c0,3.12-1.44,4.55-4.54,4.55l-73.79,0c-7.44,0-14.87,0-22.3,0-.9,0-1.16-.23-1.13-1.13C109.46,156.92,109.42,154.76,109.43,152.61Z"/><path class="cls-5" d="M109.42,99.3l36.28,0h57.94c1.31,0,1.31,0,1.31,1.29,0,1.06,0,2.13,0,3.18.05.83-.26,1-1.06,1-7.87,0-15.74,0-23.62,0H109.43C109.43,103,109.43,101.12,109.42,99.3Z"/><path class="cls-5" d="M75.22,193.49a2.84,2.84,0,0,1,3,3,3,3,0,1,1-6-.05A2.83,2.83,0,0,1,75.22,193.49Zm2.32,3A2.28,2.28,0,0,0,75.31,194a2.57,2.57,0,0,0-2.55,2.51A2.81,2.81,0,0,0,75.12,199,2.38,2.38,0,0,0,77.54,196.52Z"/><path class="cls-9" d="M109.37,130.3v1.37c-.29.06-.73.16-.61.48.36,1-.5,1.16-.94,1.6a3.83,3.83,0,0,0-.9.94c-.1.22-.29.4-.56.28a.4.4,0,0,1-.17-.6c.41-.73.29-1.81.7-2.25C107.54,131.41,108.1,130.28,109.37,130.3Z"/><path class="cls-9" d="M154.36,89.42a1.25,1.25,0,0,1,1.42,1.27,2.93,2.93,0,0,0,.16,1.21.49.49,0,0,1-.3.71c-.31.11-.46-.18-.61-.4a.13.13,0,0,1,0-.07c.06-1.15-.58-1.45-1.59-1.35-.26,0-.43-.17-.49-.43s.12-.36.32-.45C153.62,89.74,153.91,89.32,154.36,89.42Z"/><path class="cls-9" d="M213.32,159.33c-.33,0-.89.11-.84-.53s.53-.87,1.13-.88.76.2.76.73C214.36,159.36,213.86,159.33,213.32,159.33Z"/><path class="cls-9" d="M109.37,121.27V122c-.24,0-.57,0-.57-.34S109.12,121.31,109.37,121.27Z"/><path class="cls-8" d="M74.8,119.35c4.63,0,9.26,0,13.89,0,.82,0,1.12.18,1.12,1.07q0,12.65,0,25.3c0,.83-.27,1-1.06,1q-13.94,0-27.87,0c-1.22,0-1.23,0-1.23-1.2v-25c0-1.15,0-1.16,1.17-1.16Z"/><path class="cls-5" d="M74.71,154.67H86.38a1.79,1.79,0,0,1,1.46.48,1.53,1.53,0,0,1-.61,2.46,2.81,2.81,0,0,1-.87.11H63.12c-1.12,0-1.72-.41-1.86-1.23a1.47,1.47,0,0,1,1.61-1.81c2.89,0,5.77,0,8.66,0Z"/><path class="cls-5" d="M74.62,163.45H62.76a1.51,1.51,0,0,1,0-3c1.2,0,2.41,0,3.62,0h20a2.8,2.8,0,0,1,.87.1,1.42,1.42,0,0,1,1,1.67,1.38,1.38,0,0,1-1.54,1.27h-12Z"/><path class="cls-4" d="M77.54,196.52A2.38,2.38,0,0,1,75.12,199a2.81,2.81,0,0,1-2.36-2.47A2.57,2.57,0,0,1,75.31,194,2.28,2.28,0,0,1,77.54,196.52Z"/></g></g></svg>