<svg xmlns="http://www.w3.org/2000/svg" viewBox="0 0 103.37 103.38"><defs><style>.cls-1{fill:#6f2b41;}.cls-2{fill:#c96f88;}</style></defs><title>id</title><g id="Capa_2" data-name="Capa 2"><g id="Intro_Escritorio" data-name="Intro Escritorio"><path class="cls-1" d="M83.58,103.38h-64c-.59-.46-1.32-.32-2-.49-9-2.27-14.67-7.83-17-16.81-.2-.76-.07-1.6-.56-2.29V19.59c.46-.59.33-1.33.48-2A22.19,22.19,0,0,1,22.43,0Q51.69,0,81,0a21.34,21.34,0,0,1,7.22,1.17,22.12,22.12,0,0,1,15.19,21.44q0,29.07,0,58.13a21,21,0,0,1-.49,5c-2.22,8.94-7.77,14.64-16.71,17A10,10,0,0,0,83.58,103.38ZM71.88,39.22c-.85-.4-1.53-.77-2.24-1-3.36-1.33-6.84-1.23-10.33-.79-6.55.82-10.72,5-11,11.5-.21,5.78-.17,11.58,0,17.36a10.81,10.81,0,0,0,6.57,10.07,24.11,24.11,0,0,0,10.67,2.18c3.57,0,7.12-.37,10.66-.75,1-.11,1.37-.43,1.37-1.52q-.06-26.49,0-53c0-.23,0-.47,0-.7,0-.46-.15-.68-.64-.68q-2.22,0-4.44,0c-.48,0-.65.18-.64.66,0,.84,0,1.68,0,2.52ZM35.94,49.73V46.61c0-7.91,0-15.81,0-23.71,0-.84-.23-1.08-1.07-1.06-3,0-6,0-9,0-.67,0-1,.16-.94.9.05,1.17.05,2.35,0,3.53,0,.66.22.88.87.88,1.07,0,2.15.15,3.22.08s1.2.33,1.19,1.27c0,8,0,16,0,24V76.21c0,1.32,0,1.33,1.37,1.33,1,0,2.09-.07,3.13,0S36,77.37,36,76.36C35.92,67.49,35.94,58.61,35.94,49.73Z"/><path class="cls-2" d="M71.88,39.22V25c0-.84,0-1.68,0-2.52,0-.48.16-.66.64-.66q2.22,0,4.44,0c.49,0,.66.22.64.68,0,.23,0,.47,0,.7q0,26.49,0,53c0,1.09-.34,1.41-1.37,1.52-3.54.38-7.09.72-10.66.75a24.11,24.11,0,0,1-10.67-2.18,10.81,10.81,0,0,1-6.57-10.07c-.17-5.78-.21-11.58,0-17.36.24-6.47,4.41-10.68,11-11.5,3.49-.44,7-.54,10.33.79C70.35,38.45,71,38.82,71.88,39.22Zm0,19.44c0-4.27,0-8.54,0-12.81a1.46,1.46,0,0,0-1-1.56,18.88,18.88,0,0,0-9.82-1.62,7.07,7.07,0,0,0-5.84,3.45A9.67,9.67,0,0,0,53.92,51c0,4.74,0,9.48,0,14.22a6.92,6.92,0,0,0,2.18,5.34,10,10,0,0,0,6.24,2.48A48.18,48.18,0,0,0,71,72.66c.74-.09.91-.39.9-1.09C71.86,67.27,71.88,63,71.88,58.66Z"/><path class="cls-2" d="M35.94,49.73c0,8.88,0,17.76,0,26.63,0,1-.28,1.27-1.23,1.19s-2.08,0-3.13,0c-1.36,0-1.37,0-1.37-1.33V52.5c0-8,0-16,0-24,0-.94-.17-1.33-1.19-1.27s-2.15-.09-3.22-.08c-.65,0-.89-.22-.87-.88.05-1.18.05-2.36,0-3.53,0-.74.27-.9.94-.9,3,0,6,0,9,0,.84,0,1.07.22,1.07,1.06,0,7.9,0,15.8,0,23.71Z"/><path class="cls-1" d="M71.88,58.66c0,4.3,0,8.61,0,12.91,0,.7-.16,1-.9,1.09a48.18,48.18,0,0,1-8.65.41,10,10,0,0,1-6.24-2.48,6.92,6.92,0,0,1-2.18-5.34c0-4.74,0-9.48,0-14.22a9.67,9.67,0,0,1,1.29-4.91,7.07,7.07,0,0,1,5.84-3.45,18.88,18.88,0,0,1,9.82,1.62,1.46,1.46,0,0,1,1,1.56C71.85,50.12,71.88,54.39,71.88,58.66Z"/></g></g></svg>