<svg xmlns="http://www.w3.org/2000/svg" viewBox="0 0 106.3 109.24"><defs><style>.cls-1{fill:#7891bc;}</style></defs><title>ig</title><g id="Capa_2" data-name="Capa 2"><g id="Capa_10" data-name="Capa 10"><path class="cls-1" d="M53.29,25.45a27.77,27.77,0,0,0-20.27,8,29.53,29.53,0,0,0-8.89,21.06,29.06,29.06,0,0,0,29,29A28.55,28.55,0,0,0,73.58,75a29.73,29.73,0,0,0,8.59-20.39c.18-8.09-2.31-15.11-7.19-20.32C69.83,28.76,62.33,25.71,53.29,25.45Zm19.1,28.91c-.23,10.85-8.69,19.35-19.24,19.35A19.26,19.26,0,0,1,33.91,54.47a19.66,19.66,0,0,1,5.93-14,18,18,0,0,1,12.64-5.21H53c6.37.19,11.5,2.17,14.83,5.72C70.94,44.25,72.51,48.89,72.39,54.36Z"/><path class="cls-1" d="M75.09,0H31.2A31.24,31.24,0,0,0,0,31.2V78a31.24,31.24,0,0,0,31.2,31.2H75.09A31.24,31.24,0,0,0,106.3,78V31.2A31.24,31.24,0,0,0,75.09,0ZM98.3,78a23.23,23.23,0,0,1-23.21,23.2H31.2A23.23,23.23,0,0,1,8,78V31.2A23.23,23.23,0,0,1,31.2,8H75.09A23.23,23.23,0,0,1,98.3,31.2Z"/><circle class="cls-1" cx="82.87" cy="24.63" r="6.77"/></g></g></svg>