<svg xmlns="http://www.w3.org/2000/svg" viewBox="0 0 255.1 260.57"><defs><style>.cls-1{fill:#be582d;}.cls-2{fill:#3280ad;}.cls-3{fill:#fefefe;}.cls-4{fill:#fcfbfb;}.cls-5{fill:#c2623a;}.cls-6{fill:#cfc4c4;}.cls-7{fill:#3180ac;}.cls-8{fill:#cebcad;}.cls-9{fill:#bca495;}.cls-10{fill:#2d2629;}.cls-11{fill:#b92b3e;}.cls-12{fill:#9d8681;}.cls-13{fill:#a04e2c;}.cls-14{fill:#334657;}.cls-15{fill:#1c455e;}.cls-16{fill:#87452c;}</style></defs><title>ilustracion</title><g id="Capa_2" data-name="Capa 2"><g id="Proyectos_Escritorio" data-name="Proyectos Escritorio"><path class="cls-1" d="M189.44,260.45H98c.06-.31.15-.62.18-.94,0-.7.42-1,1.1-.89.35.06.67.09.8-.31a.7.7,0,0,0-.25-.86c-.31-.19-.72-.53-1-.19-.44.49-1,.44-1.51.53-.78.13-1.1.65-.7,1.33a2.2,2.2,0,0,1,.34,1.33H19.05a.38.38,0,0,0-.44-.34,1.11,1.11,0,0,1-1.08-.74,3.44,3.44,0,0,0-2.77-1.16,2.6,2.6,0,0,0-1.37,2.24H2.6A7.77,7.77,0,0,1,.12,256V5.49A6.56,6.56,0,0,1,4.53.33,18.75,18.75,0,0,1,7.88.19H221.47l15,0c0,1,.2,1.93-.56,2.74a.42.42,0,0,0,.1.68c.3.17.51,0,.63-.27s.38-.82.74-.95c1.06-.39,1.27-1.25,1.39-2.19l11.69,0,.31.07.4.08a6.94,6.94,0,0,1,3.7,3V113q0,71.86,0,143.72a4.13,4.13,0,0,1-1.49,3.47c-.11.09-.21.21-.31.31H220.05c0-.35-.05-.7-.05-1.05V238.54a2.25,2.25,0,0,0-.12-1.12.69.69,0,0,0,0-.13c2-.65,2.63-1.53,2.63-3.62,0-.7,0-1.41,0-2.11a3,3,0,0,0-2.39-2.87,34.67,34.67,0,0,0-5.09-.2c-1,0-2,.11-3,.08a1.09,1.09,0,0,0-.12-.77c-.88-2-1.78-4-2.62-6-1.59-3.8-3.56-7.44-3.75-11.76-.18-4.13-.8-8.25-1.28-12.36a63,63,0,0,0-.83-7l7.33,1.09c6,.92,12.05,1.8,18.07,2.77,3.36.54,5.82-1.22,6.2-4.6a4.9,4.9,0,0,0-3.93-5.55c-7-1.1-14-2.15-21-3.23-2.59-.4-5.17-.82-7.75-1.24a.91.91,0,0,0-.56-1c-1.92-1.13-3.82-2.29-5.73-3.45l-8.42-5.12c0-.35,0-.7,0-1.06V137.39c0-4,0-8.07,0-12.11a1.64,1.64,0,0,0,2-1.62,2.29,2.29,0,0,1,.43-1.62c.17-.27.24-.59-.13-.75a.48.48,0,0,0-.68.37c-.18,1-1,1.19-1.65,1.67l0-7.51c0-1.33,0-1.33-1.28-1.33H112.91c-3.56,0-7.13,0-10.69,0-.21.06-.15.19-.09.32,0,1.41,0,2.81,0,4.22l0,.21a.35.35,0,0,0-.06.14c-1.71,0-3.42,0-5.13,0-.72,0-.89.22-.89.91q0,12.28,0,24.57,0,11.8,0,23.61c-.55,0-1.11,0-1.66,0s-.46.32-.46.66.18.49.54.46c.52,0,1,0,1.57,0,0,.35,0,.7,0,1.06q0,29.94,0,59.88c0,1.15,0,1.15,1.15,1.15h58.55q12.48,0,24.94,0c.73,0,1-.2,1-.94,0-1.3,0-2.6,0-3.89,1.73,0,3.46-.06,5.19,0,.73,0,.86-.24.85-.9,0-2.22,0-4.45,0-6.68l3.85,3.22a2.58,2.58,0,0,1,.85,1.21c.52,1.62,1,3.25,1.52,4.87-1.35,0-2.7,0-4,.05a2.74,2.74,0,0,0-2.31,1.22c-1,1.4-.78,2.93-.67,4.48a3.25,3.25,0,0,0,2.56,3,.5.5,0,0,0,0,.16ZM59.61,117.17a2.16,2.16,0,0,0,0,.44c.08.31-.27.83.41.85s.69-.4.7-.88c0-.82,0-1.65,0-2.47s-.22-1.18-1.06-1a1.08,1.08,0,0,0-.09.91v2.13ZM103.8,103.6a4.45,4.45,0,0,0,3.78,3.79c2.49.17,5-.09,7.48,0,1.1,0,2.24-.1,3.32-.06,2.69.09,5.39,0,8.08.1.88,0,1.74-.06,2.62,0,2.3.07,4.61.12,6.9,0a32.45,32.45,0,0,1,4.83,0,29.81,29.81,0,0,0,4.12,0c.6,0,1.19-.54,1.78-.3.81.32,1.62,0,2.39.18,2.05.39,4.09-.09,6.15.08,2.63.23,5.3-.07,8,0,2.27,0,4.53-.13,6.8,0,3.37.27,6.75-.11,10.14,0,4.32.14,8.64.07,13,0a4.39,4.39,0,0,0,3.62-2,6.19,6.19,0,0,0,1-3.66q0-12.08,0-24.14a15.71,15.71,0,0,1-.09-2.18,19.33,19.33,0,0,0,.21-4.49c-.15-1.68,0-3.35-.13-5,0-.62.29-1.21.14-1.84a21.21,21.21,0,0,1-.09-4.29,20.33,20.33,0,0,0-.28-4.62,3.9,3.9,0,0,0-1.89-2.57c0-1.27,0-2.53,0-3.8a4.53,4.53,0,0,0-4.93-4.87h-84.9c-3.1,0-5,1.82-5,4.92q0,25,0,50.06A4.72,4.72,0,0,0,103.8,103.6Zm99-59.39c-.16.37-.23.5-.27.63-.92,3.26-1.82,6.53-2.74,9.78a6.9,6.9,0,0,0-.27,1.92q0,14.54,0,29.08c0,5,0,10,0,14.94a2.84,2.84,0,1,0,5.68.1c0-.8.08-1.59.08-2.39q0-20.82.07-41.64a7.7,7.7,0,0,0-.13-1.66c-.61-2.67-1.2-5.35-1.79-8C203.25,46.12,203.08,45.29,202.84,44.21Zm45.72,51a1.91,1.91,0,0,0-1.38.8c-.22.4.07.7.46.9a.45.45,0,0,1,.17.37c-.06,1,.49,1.21,1.33,1.15.34,0,.79-.15.61.55-.06.25.37.31.63.32s.63.11.76-.26a.54.54,0,0,0-.18-.64c-.19-.16-.47-.27-.34-.62a2.12,2.12,0,0,1,2.63-1.21.57.57,0,0,0,.75-.25.6.6,0,0,0-.07-.8,1.82,1.82,0,0,0-2.22.14c-.33.55-.69.46-1.19.32C249.81,95.76,249.19,95.38,248.56,95.17Zm-157.29,38c-.64.62-1.55.52-2.29.9-.39.21-.4.54-.15.89a2.19,2.19,0,0,0,2.67.56,1.51,1.51,0,0,1,1.86-.13c.51.26,1,.26,1.27-.31A.84.84,0,0,0,94,134,17.38,17.38,0,0,1,91.27,133.14Zm88.46,126.07a1.13,1.13,0,0,0,1.29-.63,1,1,0,0,1,.46-.38c.36-.1.75-.17.67-.64a.89.89,0,0,0-.92-.8,1.89,1.89,0,0,1-1.5-.57c-.25-.25-.68-.15-.65.2.06.86-.35.69-.9.6-.79-.13-.56.76-.94,1.08-.1.08-.14.37,0,.35C178.19,258.32,178.74,259.39,179.73,259.21Zm44-256.49a.86.86,0,0,0-.28-.62,3.33,3.33,0,0,0-2.73-.75c-.76,0-1.59.22-2.4.26a.69.69,0,0,0-.71.54c-.08.33.18.49.42.58.8.33,1.61.63,2.42.92a.41.41,0,0,0,.6-.33c.13-.77.55-.69,1.08-.41a6.28,6.28,0,0,0,.79.37C223.46,3.47,223.73,3.26,223.75,2.72ZM49.87,125.35c.19-.26.29-.43.42-.58s.34-.58,0-.85a1.15,1.15,0,0,0-1.14-.33c-.35.13-.22.5-.13.78a.61.61,0,0,1-.26.83c-.42.25-.79.71-.45,1.07s.74.91,1.42.9c1.08,0,1.74-.91,2.61-1.34.26-.13.18-.56-.13-.74s-.79-.33-1.06,0S50.44,125.48,49.87,125.35ZM30,80.94c-1.27,0-1.72.66-1.2,1.92,0,0,.07.11.07.16-.16,1.25.53,1.63,1.63,1.63.23,0,.47.19.65,0a.6.6,0,0,0,0-.74,2.88,2.88,0,0,0-.41-.45c-.37-.38-.38-.66.2-.78s.47-.35.44-.78C31.27,81,30.65,81.05,30,80.94Zm196.66,44.53a.92.92,0,0,0-.84,1.35,2.1,2.1,0,0,1,.25.91c0,.47,0,1,.66.88s1-.37.82-1.07.17-1,.82-1c.21,0,.41,0,.62,0s.59.11.7-.2-.19-.52-.41-.7a1.11,1.11,0,0,0-.89-.27C227.79,125.42,227.22,126,226.66,125.47ZM196,119.08a.83.83,0,0,0,.83-.4.86.86,0,0,1,.68-.48c1.07,0,1.68-1,2.63-1.31a.32.32,0,0,0,.1-.57,4.07,4.07,0,0,0-2.64.34c-.49.53-.92,1.13-1.81,1-.52,0-.46.41-.46.76A.58.58,0,0,0,196,119.08ZM66.5,251.24a.67.67,0,0,0,.24-.07,13,13,0,0,1,3.91-1.93c.44-.17.23-.61.09-.92s-.29-.47-.69-.29a34.58,34.58,0,0,1-3.71,1.84.66.66,0,0,0-.54.79A.69.69,0,0,0,66.5,251.24ZM8.61,45.75c0-.34,0-.67-.39-.81a3.08,3.08,0,0,1-1.32-.82.43.43,0,0,0-.56-.1.43.43,0,0,0-.16.55,1.24,1.24,0,0,1-.28,1.65c-.13.13-.11.42.09.43a3.09,3.09,0,0,1,1.46.72.49.49,0,0,0,.68-.23C8.31,46.68,8.66,46.28,8.61,45.75Zm52.17,96.89h0c0-.53,0-1.06,0-1.59s0-.69-.54-.69-.65.28-.64.73c0,1,0,2.11,0,3.17,0,.46.18.63.63.62s.6-.19.56-.65S60.78,143.17,60.78,142.64Zm0-52.74c0-.55,0-1.12,0-1.67s-.2-.57-.57-.59-.62.08-.62.53c0,1.15,0,2.3,0,3.44,0,.43.22.55.61.55s.58-.17.57-.58C60.76,91,60.78,90.46,60.78,89.9Zm140.43,31.68a1.8,1.8,0,0,0-1.81.76c-.15.17-.43.29-.29.57s.43.25.7.18c.49-.13,1-.26,1.34.28.2.3.48.57.88.34a1.35,1.35,0,0,0,.8-1.17,1,1,0,0,0-.79-1A4.54,4.54,0,0,0,201.21,121.58ZM60.78,98.75h0c0-.56,0-1.12,0-1.67s-.14-.64-.61-.64-.57.2-.57.59c0,1.11,0,2.23,0,3.34,0,.42.18.6.58.58s.66-.11.61-.62A13.88,13.88,0,0,1,60.78,98.75Zm0-26.33c0-.59,0-1.18,0-1.77,0-.41-.16-.57-.58-.57s-.6.13-.59.56c0,1.12,0,2.24,0,3.35,0,.44.23.56.6.58s.6-.14.59-.56S60.77,73,60.77,72.42Zm-.84,183c-.07-.23.11-.58-.23-.75s-.54.12-.79.26c-.45.25-.77.69-1.3.86a.74.74,0,0,0-.39.88,1.61,1.61,0,0,0,1.29.93c.34,0,.8.12.91-.31A6.38,6.38,0,0,0,59.93,255.43Zm.84-121.7h0c0-.5,0-1,0-1.49s0-.62-.49-.62-.69,0-.69.56c0,1.12,0,2.23,0,3.34,0,.42.19.56.6.56s.57-.19.56-.59C60.76,134.91,60.77,134.32,60.77,133.73Zm0,17.8h0c0-.59,0-1.17,0-1.76,0-.38-.11-.6-.55-.6s-.63.16-.62.62c0,1.06,0,2.11,0,3.17,0,.51.19.64.67.66s.52-.31.51-.68S60.77,152,60.77,151.53Zm0-26.51h0c0-.56,0-1.12,0-1.68s-.25-.51-.62-.52-.54.12-.54.5c0,1.12,0,2.24,0,3.35,0,.42.18.57.58.58s.6-.13.59-.56S60.76,125.57,60.76,125ZM59.6,160.21h0c0,.53,0,1.06,0,1.59s.14.64.61.63.57-.17.56-.58c0-1.09,0-2.18,0-3.27,0-.4-.14-.59-.57-.59s-.64.17-.62.63S59.6,159.68,59.6,160.21Zm1.17-52.68h0c0-.53,0-1.06,0-1.59s0-.69-.56-.68-.62.2-.61.64c0,1.06,0,2.12,0,3.17,0,.45.15.64.61.63s.58-.27.57-.67S60.77,108,60.77,107.53Zm0-26.39c0-.56,0-1.12,0-1.68s-.18-.57-.58-.56-.6.14-.59.57c0,1.09,0,2.18,0,3.26,0,.48.2.61.64.61s.54-.24.53-.61C60.76,82.2,60.77,81.67,60.77,81.14ZM59.61,64.62v.71c0,.41.26.46.59.46s.62-.09.56-.49c-.13-.94.22-1.37,1.2-1.24.29,0,.43-.12.42-.42s.08-.58-.32-.71A1.72,1.72,0,0,0,59.61,64.62Zm1.66,105c.24,0,.47,0,.7,0,.43,0,.39-.33.4-.63s-.09-.53-.44-.48c-1,.15-1.33-.26-1.19-1.2,0-.32-.14-.49-.46-.5s-.47,0-.61.24A1.74,1.74,0,0,0,61.27,169.57Zm7.87,0h0c.53,0,1.06,0,1.59,0,.38,0,.63,0,.64-.48s-.11-.65-.59-.64c-1.12,0-2.24,0-3.35,0-.34,0-.63,0-.61.51s.2.61.64.6S68.58,169.54,69.14,169.54Zm9-1.1H76.51c-.34,0-.64,0-.66.49s.24.6.65.6c1.09,0,2.18,0,3.26,0,.4,0,.61-.06.63-.51s-.16-.64-.62-.62S78.71,168.44,78.19,168.44ZM78.1,64.07h0c.56,0,1.11,0,1.67,0,.37,0,.61-.1.61-.54s-.16-.58-.57-.58c-1.12,0-2.23,0-3.34,0-.37,0-.61.08-.62.54s.27.57.67.57Zm-9.06,0H70.8c.41,0,.58-.16.57-.58s-.18-.52-.54-.52H67.4c-.4,0-.56.15-.56.57s.26.53.62.53Zm18.08,0h1.67c.4,0,.61-.13.59-.55s-.21-.56-.61-.55H85.42c-.37,0-.54.14-.55.52s.16.59.57.58ZM87,169.54h1.86c.42,0,.45-.28.45-.59s-.13-.49-.47-.49H85.42c-.42,0-.56.21-.55.6s.23.5.57.49ZM17.91,5.67c.48,0,1.11,0,1.14-.87a1.3,1.3,0,0,0-1.31-1.25c-.64,0-1.18.15-1.17,1S17,5.66,17.91,5.67Zm9.1,204c0-.82-.51-1.45-1.17-1.41-.32,0-.8,0-.83.44-.08,1.17.39,2,1,2S27.1,210.34,27,209.69ZM95.06,64.08a2.19,2.19,0,0,1,.28,0c.39,0,.69,0,.69-.55s-.26-.58-.67-.56-.64,0-1,0-.43,0-.48.27a.8.8,0,0,0,.06.68C94.24,64.19,94.59,64,95.06,64.08ZM228.69,129c.56,0,1-.08,1-.53s-.41-.48-.74-.51a.61.61,0,0,0-.74.65C228.2,129,228.56,129,228.69,129Z"/><path class="cls-2" d="M219.88,237.42a2.25,2.25,0,0,1,.12,1.12V259.4c0,.35,0,.7.05,1.05H189.44l0-23,.51-.07H219.5Z"/><path class="cls-3" d="M253.13,260.45c.1-.1.2-.22.31-.31a4.13,4.13,0,0,0,1.49-3.47q-.06-71.87,0-143.72V3.37c0-.25,0-.51.18-.71q0,128.42,0,256.82c0,.83-.16,1.14-1,1A6.26,6.26,0,0,0,253.13,260.45Z"/><path class="cls-3" d="M236.5.21l-15,0H7.88A18.75,18.75,0,0,0,4.53.33C4.24.05,3.77.33,3.48,0H251.89l-.69.32-.4-.08-.31-.07L238.8.22Z"/><path class="cls-4" d="M3.48,0c.29.32.76,0,1.05.32A6.56,6.56,0,0,0,.12,5.49V.19L.3,0H2.6c.06.08.11.08.17,0Z"/><path class="cls-5" d="M13.39,260.45a2.6,2.6,0,0,1,1.37-2.24,3.44,3.44,0,0,1,2.77,1.16,1.11,1.11,0,0,0,1.08.74.38.38,0,0,1,.44.34Z"/><path class="cls-5" d="M96.9,260.45a2.2,2.2,0,0,0-.34-1.33c-.4-.68-.08-1.2.7-1.33.52-.09,1.07,0,1.51-.53.3-.34.71,0,1,.19a.7.7,0,0,1,.25.86c-.13.4-.45.37-.8.31-.68-.11-1,.19-1.1.89,0,.32-.12.63-.18.94Z"/><path class="cls-4" d="M251.2.33l.69-.32h3l.18.18V2.66c-.22.2-.16.46-.18.71A6.94,6.94,0,0,0,251.2.33Z"/><path class="cls-6" d="M.12,256a7.77,7.77,0,0,0,2.48,4.42c-.83,0-2,.33-2.39-.09S.12,258.8.12,258Z"/><path class="cls-3" d="M255.08.19,254.9,0C255.05,0,255.11,0,255.08.19Z"/><path class="cls-3" d="M2.77,0c-.06.08-.11.08-.17,0Z"/><path class="cls-3" d="M.3,0,.12.19C.09,0,.14,0,.3,0Z"/><path class="cls-3" d="M102.22,114.53c3.56,0,7.13,0,10.69,0h73.48c1.28,0,1.27,0,1.28,1.33l0,7.51v2c0,4,0,8.08,0,12.11v31.93c0,.36,0,.71,0,1.06-2-1.23-4.1-2.45-6.14-3.69a1.85,1.85,0,0,0-1.75-.2c-4.4,1.68-8.82,3.32-13.23,5-1.58.6-1.9,1.11-1.83,2.79l-2-.27c-.72,0-1.44.07-2.16.15L148,175.55a17.73,17.73,0,0,0-3.18.39c1.17.48,2,1.12,3,1.4,1.24.65,2.48,1.32,3.73,1.95l8.49,4.27a5.87,5.87,0,0,0,.31,1.65c.13,2.21.43,4.4.77,6.58a2.44,2.44,0,0,0,.8,2.15c2.63,2.73,5.24,5.49,7.89,8.21,5.75,5.91,11.68,11.65,17.86,17.11,0,2.23,0,4.46,0,6.68,0,.66-.12.92-.85.9-1.73-.06-3.46,0-5.19,0l-.26,0q-39.1,0-78.2,0c-.87,0-1.15-.19-1.14-1.12q0-52.18,0-104.38a6.57,6.57,0,0,0,0-1.93.35.35,0,0,1,.06-.14c.1,0,.12-.12,0-.21,0-1.41,0-2.81,0-4.22Z"/><path class="cls-4" d="M103.8,103.6a4.72,4.72,0,0,1-3-4.73q0-25,0-50.06c0-3.1,1.85-4.92,5-4.92h84.9a4.53,4.53,0,0,1,4.93,4.87c0,1.27,0,2.53,0,3.8V54c0,.38,0,.77,0,1.15V98.53a7.09,7.09,0,0,1-.23,2.1c-.64,2.1-2.3,3.19-4.82,3.19h-67.2l-18.47,0Zm43.91-44.51h-41a3.58,3.58,0,0,0-3.85,3.69q0,17.66,0,35.3a3.58,3.58,0,0,0,3.73,3.74c1.12,0,2.24,0,3.36,0h78.47c2.57,0,4-1.46,4-4V63.17c0-2.67-1.42-4.09-4.09-4.09Zm38-3.86a5.28,5.28,0,0,0,4.92-5,2.59,2.59,0,0,0-3.06-2.61,5.44,5.44,0,0,0-4.47,4.63A2.54,2.54,0,0,0,185.76,55.23Zm-74.63,0a2.5,2.5,0,0,0,2.64-2.67,5.35,5.35,0,0,0-4.7-4.94,2.55,2.55,0,0,0-2.8,2.25A5.21,5.21,0,0,0,111.13,55.23Z"/><path class="cls-6" d="M102,119.42a6.57,6.57,0,0,1,0,1.93q0,52.18,0,104.38c0,.93.27,1.12,1.14,1.12q39.1,0,78.2,0l.26,0c0,1.29-.06,2.59,0,3.89,0,.74-.23.94-1,.94q-12.46,0-24.94,0H97.18c-1.15,0-1.15,0-1.15-1.15q0-29.94,0-59.88c0-.36,0-.71,0-1.06s0-.74,0-1.1q0-11.81,0-23.61,0-12.29,0-24.57c0-.69.17-.94.89-.91C98.61,119.43,100.32,119.41,102,119.42Z"/><path class="cls-7" d="M162.73,174l2,.27a5,5,0,0,0,1.3.45,35.9,35.9,0,0,0,4.25.39c.78.12,1.56.25,2.34.35,2.29.31,4.56.78,6.87,1l0,0,.19.12a18.66,18.66,0,0,0,4.32.77q6.09,1,12.2,1.85a56.36,56.36,0,0,0,6.21.79c2.58.42,5.16.84,7.75,1.24,7,1.08,14,2.13,21,3.23a4.9,4.9,0,0,1,3.93,5.55c-.38,3.38-2.84,5.14-6.2,4.6-6-1-12-1.85-18.07-2.77l-7.33-1.09a8.08,8.08,0,0,0-1.1-.29q-3.65-.56-7.31-1.08L187,188.13l-11.31-1.73-9.06-1.33a20.1,20.1,0,0,1-1.53-2.95,3,3,0,0,0-3.34-2c.1-.67.16-1.35.29-2A36.16,36.16,0,0,1,162.73,174Z"/><path class="cls-8" d="M161.73,180.14a3,3,0,0,1,3.34,2,20.1,20.1,0,0,0,1.53,2.95,56.32,56.32,0,0,0,2.85,6,2.68,2.68,0,0,0,.75.86c2.69,2.1,5.39,4.18,8.09,6.27a.92.92,0,0,0,1.45-.11c1-1.1,2-2.18,3-3.26,1.21-1.31,2.22-2.84,3.86-3.71.46-.09.91-.21,1.38-.28a6.68,6.68,0,0,1,7.26,3.82c.95,1.92,1.64,4,2.41,6a7.23,7.23,0,0,1,.65,3c-.18,3.24-1.4,5.93-4.32,7.62a1.13,1.13,0,0,0-.56,1.66c.73,1.86,1.32,3.77,2,5.65s1.28,3.47,1.89,5.22c.54,1.58,1,3.18,1.55,4.77l-4.9,0c-.5-1.62-1-3.25-1.52-4.87a2.58,2.58,0,0,0-.85-1.21l-3.85-3.22c-6.18-5.46-12.11-11.2-17.86-17.11-2.65-2.72-5.26-5.48-7.89-8.21a2.44,2.44,0,0,1-.8-2.15c.73-2.17.22-4.25-.43-6.33,0-.11-.22-.17-.34-.25a5.87,5.87,0,0,1-.31-1.65C159.9,182.06,160.24,180.81,161.73,180.14Z"/><path class="cls-9" d="M198.81,228.52c-.51-1.59-1-3.19-1.55-4.77-.61-1.75-1.27-3.48-1.89-5.22s-1.25-3.79-2-5.65a1.13,1.13,0,0,1,.56-1.66c2.92-1.69,4.14-4.38,4.32-7.62a7.23,7.23,0,0,0-.65-3c-.77-2-1.46-4-2.41-6a6.68,6.68,0,0,0-7.26-3.82c-.47.07-.92.19-1.38.28a1.41,1.41,0,0,0,0-1.84c-.59-.85-.55-.88.44-1.12l8.08,1.19q3.66.52,7.31,1.08a8.08,8.08,0,0,1,1.1.29,63,63,0,0,1,.83,7c.48,4.11,1.1,8.23,1.28,12.36.19,4.32,2.16,8,3.75,11.76.84,2,1.74,4,2.62,6a1.09,1.09,0,0,1,.12.77Z"/><path class="cls-10" d="M202.84,44.21c.24,1.08.41,1.91.59,2.74.59,2.67,1.18,5.35,1.79,8a7.7,7.7,0,0,1,.13,1.66q0,20.82-.07,41.64c0,.8,0,1.59-.08,2.39a2.84,2.84,0,1,1-5.68-.1c0-5,0-10,0-14.94q0-14.53,0-29.08a6.9,6.9,0,0,1,.27-1.92c.92-3.25,1.82-6.52,2.74-9.78C202.61,44.71,202.68,44.58,202.84,44.21Z"/><path class="cls-11" d="M198.81,228.52l13.25,0c1,0,2,0,3-.08a34.67,34.67,0,0,1,5.09.2,3,3,0,0,1,2.39,2.87c0,.7,0,1.41,0,2.11,0,2.09-.64,3-2.63,3.62l-.4.1H191a.48.48,0,0,0-.54,0H190a.73.73,0,0,0-.54-.09,3.25,3.25,0,0,1-2.56-3c-.11-1.55-.3-3.08.67-4.48a2.74,2.74,0,0,1,2.31-1.22c1.35,0,2.7,0,4-.05Z"/><path class="cls-12" d="M179.43,176.4l0,0c-.29-.51-.59-1-.85-1.54a1.55,1.55,0,0,0-1.87-.94l-6.49,1.16a35.9,35.9,0,0,1-4.25-.39,5,5,0,0,1-1.3-.45c-.07-1.68.25-2.19,1.83-2.79,4.41-1.66,8.83-3.3,13.23-5a1.85,1.85,0,0,1,1.75.2c2,1.24,4.09,2.46,6.14,3.69l8.42,5.12c1.91,1.16,3.81,2.32,5.73,3.45a.91.91,0,0,1,.56,1,56.36,56.36,0,0,1-6.21-.79q-6.1-.88-12.2-1.85a18.66,18.66,0,0,1-4.32-.77Z"/><path class="cls-13" d="M195.63,54V52.56a3.9,3.9,0,0,1,1.89,2.57,20.33,20.33,0,0,1,.28,4.62,21.21,21.21,0,0,0,.09,4.29c.15.63-.17,1.22-.14,1.84.08,1.67,0,3.34.13,5a19.33,19.33,0,0,1-.21,4.49,15.71,15.71,0,0,0,.09,2.18q0,12.08,0,24.14a6.19,6.19,0,0,1-1,3.66,4.39,4.39,0,0,1-3.62,2c-4.32,0-8.64.12-13,0-3.39-.1-6.77.28-10.14,0-2.27-.18-4.53,0-6.8,0-2.66-.06-5.33.24-8,0-2.06-.17-4.1.31-6.15-.08-.77-.15-1.58.14-2.39-.18-.59-.24-1.18.26-1.78.3a29.81,29.81,0,0,1-4.12,0,32.45,32.45,0,0,0-4.83,0c-2.29.13-4.6.08-6.9,0-.88,0-1.74,0-2.62,0-2.69-.05-5.39,0-8.08-.1-1.08,0-2.22.09-3.32.06-2.49-.06-5,.2-7.48,0a4.45,4.45,0,0,1-3.78-3.79l1.06.24c0,.24-.06.57.07.69.89.89,1.77,1.82,3.17,1.82h13.53c.55,0,1.13.13,1.58-.35a.31.31,0,0,1,.48,0c.39.43.91.35,1.4.34,4.27-.08,8.54,0,12.81,0a51.24,51.24,0,0,1,7.33,0,3.74,3.74,0,0,0,2.54-.53.51.51,0,0,1,.65,0c1.24,1,2.58.59,3.92.31.58-.12,1.2-.46,1.78,0a2,2,0,0,0,1.26.3,16.06,16.06,0,0,0,4.05-.08c1.39-.37,2.62,0,3.93.08h6.11c7.72,0,15.45-.07,23.17,0a4.34,4.34,0,0,0,4.19-4.25c.11-1.83-.09-3.67-.14-5.51-.05-2.32.17-4.63.14-6.94,0-1.54,0-3.09-.09-4.64-.16-2.72,0-5.46-.06-8.19a15.94,15.94,0,0,0,.16-1.83c-.41-3,0-6.1-.07-9.15,0-1.19.09-2.39,0-3.59a20.22,20.22,0,0,1,0-3.89A5.36,5.36,0,0,0,195.63,54Z"/><path class="cls-5" d="M248.56,95.17c.63.21,1.25.59,2,.77.5.14.86.23,1.19-.32a1.82,1.82,0,0,1,2.22-.14.6.6,0,0,1,.07.8.57.57,0,0,1-.75.25,2.12,2.12,0,0,0-2.63,1.21c-.13.35.15.46.34.62a.54.54,0,0,1,.18.64c-.13.37-.48.26-.76.26s-.69-.07-.63-.32c.18-.7-.27-.57-.61-.55-.84.06-1.39-.17-1.33-1.15a.45.45,0,0,0-.17-.37c-.39-.2-.68-.5-.46-.9A1.91,1.91,0,0,1,248.56,95.17Z"/><path class="cls-5" d="M91.27,133.14A17.38,17.38,0,0,0,94,134a.84.84,0,0,1,.62,1.09c-.24.57-.76.57-1.27.31a1.51,1.51,0,0,0-1.86.13,2.19,2.19,0,0,1-2.67-.56c-.25-.35-.24-.68.15-.89C89.72,133.66,90.63,133.76,91.27,133.14Z"/><path class="cls-5" d="M179.73,259.21c-1,.18-1.54-.89-2.48-.79-.15,0-.11-.27,0-.35.38-.32.15-1.21.94-1.08.55.09,1,.26.9-.6,0-.35.4-.45.65-.2a1.89,1.89,0,0,0,1.5.57.89.89,0,0,1,.92.8c.08.47-.31.54-.67.64a1,1,0,0,0-.46.38A1.13,1.13,0,0,1,179.73,259.21Z"/><path class="cls-5" d="M223.75,2.72c0,.54-.29.75-.81.56a6.28,6.28,0,0,1-.79-.37c-.53-.28-1-.36-1.08.41a.41.41,0,0,1-.6.33c-.81-.29-1.62-.59-2.42-.92-.24-.09-.5-.25-.42-.58a.69.69,0,0,1,.71-.54c.81,0,1.64-.22,2.4-.26a3.33,3.33,0,0,1,2.73.75A.86.86,0,0,1,223.75,2.72Z"/><path class="cls-5" d="M49.87,125.35c.57.13,1,.19,1.3-.26s.72-.21,1.06,0,.39.61.13.74c-.87.43-1.53,1.3-2.61,1.34-.68,0-1.06-.52-1.42-.9s0-.82.45-1.07a.61.61,0,0,0,.26-.83c-.09-.28-.22-.65.13-.78a1.15,1.15,0,0,1,1.14.33c.32.27.21.56,0,.85S50.06,125.09,49.87,125.35Z"/><path class="cls-5" d="M30,80.94c.65.11,1.27.07,1.35.92,0,.43,0,.68-.44.78s-.57.4-.2.78a2.88,2.88,0,0,1,.41.45.6.6,0,0,1,0,.74c-.18.23-.42,0-.65,0-1.1,0-1.79-.38-1.63-1.63,0,0-.05-.11-.07-.16C28.28,81.6,28.73,80.93,30,80.94Z"/><path class="cls-5" d="M226.66,125.47c.56.52,1.13,0,1.73-.13a1.11,1.11,0,0,1,.89.27c.22.18.54.36.41.7s-.45.18-.7.2-.41,0-.62,0c-.65,0-1,.33-.82,1s-.26,1-.82,1.07-.68-.41-.66-.88a2.1,2.1,0,0,0-.25-.91A.92.92,0,0,1,226.66,125.47Z"/><path class="cls-5" d="M196,119.08a.58.58,0,0,1-.67-.63c0-.35-.06-.81.46-.76.89.1,1.32-.5,1.81-1a4.07,4.07,0,0,1,2.64-.34.32.32,0,0,1-.1.57c-1,.29-1.56,1.27-2.63,1.31a.86.86,0,0,0-.68.48A.83.83,0,0,1,196,119.08Z"/><path class="cls-5" d="M66.5,251.24a.69.69,0,0,1-.7-.58.66.66,0,0,1,.54-.79A34.58,34.58,0,0,0,70.05,248c.4-.18.56,0,.69.29s.35.75-.09.92a13,13,0,0,0-3.91,1.93A.67.67,0,0,1,66.5,251.24Z"/><path class="cls-5" d="M8.61,45.75c.05.53-.3.93-.48,1.39a.49.49,0,0,1-.68.23A3.09,3.09,0,0,0,6,46.65c-.2,0-.22-.3-.09-.43a1.24,1.24,0,0,0,.28-1.65A.43.43,0,0,1,6.34,44a.43.43,0,0,1,.56.1,3.08,3.08,0,0,0,1.32.82C8.58,45.08,8.63,45.41,8.61,45.75Z"/><path class="cls-5" d="M187.7,125.28v-2c.62-.48,1.47-.72,1.65-1.67a.48.48,0,0,1,.68-.37c.37.16.3.48.13.75a2.29,2.29,0,0,0-.43,1.62A1.64,1.64,0,0,1,187.7,125.28Z"/><path class="cls-14" d="M60.78,142.64c0,.53,0,1.06,0,1.59s-.09.65-.56.65-.64-.16-.63-.62c0-1.06,0-2.12,0-3.17,0-.45.1-.73.64-.73s.54.31.54.69,0,1.06,0,1.59Z"/><path class="cls-14" d="M60.78,89.9c0,.56,0,1.12,0,1.68,0,.41-.16.58-.57.58s-.61-.12-.61-.55c0-1.14,0-2.29,0-3.44,0-.45.25-.55.62-.53s.6.14.57.59S60.78,89.35,60.78,89.9Z"/><path class="cls-5" d="M201.21,121.58a4.54,4.54,0,0,1,.83,0,1,1,0,0,1,.79,1,1.35,1.35,0,0,1-.8,1.17c-.4.23-.68,0-.88-.34-.37-.54-.85-.41-1.34-.28-.27.07-.56.12-.7-.18s.14-.4.29-.57A1.8,1.8,0,0,1,201.21,121.58Z"/><path class="cls-14" d="M60.78,98.75a13.88,13.88,0,0,0,0,1.58c.05.51-.22.59-.61.62s-.58-.16-.58-.58c0-1.11,0-2.23,0-3.34,0-.39.14-.58.57-.59s.62.2.61.64,0,1.11,0,1.67Z"/><path class="cls-14" d="M60.77,72.42c0,.53,0,1.06,0,1.59s-.19.58-.59.56-.6-.14-.6-.58c0-1.11,0-2.23,0-3.35,0-.43.2-.56.59-.56s.59.16.58.57C60.76,71.24,60.77,71.83,60.77,72.42Z"/><path class="cls-5" d="M59.93,255.43a6.38,6.38,0,0,1-.51,1.87c-.11.43-.57.34-.91.31a1.61,1.61,0,0,1-1.29-.93.74.74,0,0,1,.39-.88c.53-.17.85-.61,1.3-.86.25-.14.47-.41.79-.26S59.86,255.2,59.93,255.43Z"/><path class="cls-14" d="M60.77,133.73c0,.59,0,1.18,0,1.76,0,.4-.14.59-.56.59s-.61-.14-.6-.56c0-1.11,0-2.22,0-3.34,0-.51.3-.55.69-.56s.52.22.49.62,0,1,0,1.49Z"/><path class="cls-14" d="M60.77,151.53c0,.47,0,.94,0,1.41s0,.69-.51.68-.69-.15-.67-.66c0-1.06,0-2.11,0-3.17,0-.46.17-.62.62-.62s.56.22.55.6c0,.59,0,1.17,0,1.76Z"/><path class="cls-5" d="M236.5.21h2.3c-.12.94-.33,1.8-1.39,2.19-.36.13-.55.58-.74.95s-.33.44-.63.27a.42.42,0,0,1-.1-.68C236.7,2.14,236.47,1.16,236.5.21Z"/><path class="cls-14" d="M60.76,125c0,.55,0,1.11,0,1.67s-.19.56-.59.56-.58-.16-.58-.58c0-1.11,0-2.23,0-3.35,0-.38.18-.51.54-.5s.64.06.62.52,0,1.12,0,1.68Z"/><path class="cls-14" d="M59.6,160.21c0-.53,0-1.06,0-1.59s.17-.63.62-.63.57.19.57.59c0,1.09,0,2.18,0,3.27,0,.41-.14.58-.56.58s-.63-.18-.61-.63,0-1.06,0-1.59Z"/><path class="cls-14" d="M60.77,107.53c0,.5,0,1,0,1.5s-.06.67-.57.67-.62-.18-.61-.63c0-1,0-2.11,0-3.17,0-.44.14-.63.61-.64s.56.29.56.68,0,1.06,0,1.59Z"/><path class="cls-14" d="M60.77,81.14c0,.53,0,1.06,0,1.59,0,.37-.08.61-.53.61s-.65-.13-.64-.61c0-1.08,0-2.17,0-3.26,0-.43.19-.56.59-.57s.59.14.58.56S60.77,80.58,60.77,81.14Z"/><path class="cls-14" d="M59.61,64.62a1.72,1.72,0,0,1,2.45-1.69c.4.13.3.43.32.71s-.13.46-.42.42c-1-.13-1.33.3-1.2,1.24.06.4-.22.49-.56.49s-.59-.05-.59-.46Z"/><path class="cls-15" d="M61.27,169.57a1.74,1.74,0,0,1-1.6-2.57c.14-.26.37-.24.61-.24s.51.18.46.5c-.14.94.22,1.35,1.19,1.2.35-.05.45.16.44.48s0,.61-.4.63C61.74,169.58,61.51,169.57,61.27,169.57Z"/><path class="cls-15" d="M69.14,169.54c-.56,0-1.12,0-1.68,0s-.61-.13-.64-.6.27-.51.61-.51c1.11,0,2.23,0,3.35,0,.48,0,.61.21.59.64s-.26.51-.64.48c-.53,0-1.06,0-1.59,0Z"/><path class="cls-15" d="M78.19,168.44c.52,0,1,0,1.58,0s.63.17.62.62-.23.52-.63.51c-1.08,0-2.17,0-3.26,0-.41,0-.66-.11-.65-.6s.32-.49.66-.49h1.68Z"/><path class="cls-15" d="M78.1,64.07H76.52c-.4,0-.68-.06-.67-.57s.25-.54.62-.54c1.11,0,2.22,0,3.34,0,.41,0,.57.17.57.58s-.24.54-.61.54c-.56,0-1.11,0-1.67,0Z"/><path class="cls-15" d="M69,64.07H67.46c-.36,0-.62-.07-.62-.53S67,63,67.4,63h3.43c.36,0,.54.14.54.52s-.16.59-.57.58Z"/><path class="cls-15" d="M59.61,116.23V115a1.49,1.49,0,0,0,.09-.91c.84-.2,1.11.18,1.06,1s0,1.65,0,2.47c0,.48-.06.9-.7.88s-.33-.54-.41-.85a2.16,2.16,0,0,1,0-.44A.93.93,0,0,0,59.61,116.23Z"/><path class="cls-15" d="M87.12,64.07H85.44c-.41,0-.59-.17-.57-.58s.18-.52.55-.52h3.35c.4,0,.6.14.61.55s-.19.56-.59.55Z"/><path class="cls-15" d="M87,169.54H85.44c-.34,0-.57-.09-.57-.49s.13-.61.55-.6h3.45c.34,0,.47.16.47.49s0,.6-.45.59H87Z"/><path class="cls-5" d="M17.91,5.67c-.93,0-1.33-.39-1.34-1.15s.53-1,1.17-1A1.3,1.3,0,0,1,19.05,4.8C19,5.64,18.39,5.63,17.91,5.67Z"/><path class="cls-5" d="M27,209.69c.09.65-.27,1-1,1s-1.13-.83-1-2c0-.46.51-.42.83-.44C26.5,208.24,27,208.87,27,209.69Z"/><path class="cls-15" d="M96,168.47c0,.36,0,.73,0,1.1-.52,0-1,0-1.57,0-.36,0-.54-.06-.54-.46s0-.66.46-.66S95.46,168.46,96,168.47Z"/><path class="cls-15" d="M95.06,64.08c-.47,0-.82.11-1.08-.16a.8.8,0,0,1-.06-.68c0-.27.27-.27.48-.27s.64,0,1,0,.68.05.67.56-.3.56-.69.55A2.19,2.19,0,0,0,95.06,64.08Z"/><path class="cls-5" d="M228.69,129c-.13,0-.49,0-.47-.39a.61.61,0,0,1,.74-.65c.33,0,.79,0,.74.51S229.25,129,228.69,129Z"/><path class="cls-16" d="M59.61,116.23a.93.93,0,0,1,0,.94Z"/><path class="cls-16" d="M59.7,114.13a1.49,1.49,0,0,1-.09.91A1.08,1.08,0,0,1,59.7,114.13Z"/><path class="cls-12" d="M189.44,237.3a.73.73,0,0,1,.54.09l-.52.07A1,1,0,0,1,189.44,237.3Z"/><path class="cls-12" d="M219.5,237.39l.4-.1a.69.69,0,0,1,0,.13Z"/><path class="cls-4" d="M250.49.18l.31.07Z"/><path class="cls-6" d="M102.22,114.53l-.09.32C102.07,114.72,102,114.59,102.22,114.53Z"/><path class="cls-6" d="M102.12,119.07c.09.09.07.16,0,.21Z"/><path class="cls-12" d="M190.49,237.39a.48.48,0,0,1,.54,0Z"/><path class="cls-15" d="M161.73,180.14c-1.49.67-1.83,1.92-1.67,3.42l-8.49-4.27c-1.25-.63-2.49-1.3-3.73-1.95.06-.59.13-1.19.2-1.79l12.53-1.41c.72-.08,1.44-.1,2.16-.15a36.16,36.16,0,0,0-.71,4.14C161.89,178.79,161.83,179.47,161.73,180.14Z"/><path class="cls-9" d="M160.37,185.21c.12.08.3.14.34.25.65,2.08,1.16,4.16.43,6.33C160.8,189.61,160.5,187.42,160.37,185.21Z"/><path class="cls-10" d="M148,175.55c-.07.6-.14,1.2-.2,1.79-1-.28-1.81-.92-3-1.4A17.73,17.73,0,0,1,148,175.55Z"/><path class="cls-10" d="M147.71,59.09H188.4c2.67,0,4.09,1.42,4.09,4.09V97.85c0,2.52-1.46,4-4,4H110c-1.12,0-2.24,0-3.36,0a3.58,3.58,0,0,1-3.73-3.74q0-17.64,0-35.3a3.58,3.58,0,0,1,3.85-3.69Z"/><path class="cls-16" d="M195.63,54a5.36,5.36,0,0,1,1.13,4.42,20.22,20.22,0,0,0,0,3.89c.1,1.2,0,2.4,0,3.59.07,3-.34,6.1.07,9.15a15.94,15.94,0,0,1-.16,1.83c0,2.73-.1,5.47.06,8.19.08,1.55.07,3.1.09,4.64,0,2.31-.19,4.62-.14,6.94.05,1.84.25,3.68.14,5.51a4.34,4.34,0,0,1-4.19,4.25c-7.72-.1-15.45,0-23.17,0h-6.11c-1.31-.06-2.54-.45-3.93-.08a16.06,16.06,0,0,1-4.05.08,2,2,0,0,1-1.26-.3c-.58-.41-1.2-.07-1.78,0-1.34.28-2.68.66-3.92-.31a.51.51,0,0,0-.65,0,3.74,3.74,0,0,1-2.54.53,51.24,51.24,0,0,0-7.33,0c-4.27,0-8.54,0-12.81,0-.49,0-1,.09-1.4-.34a.31.31,0,0,0-.48,0c-.45.48-1,.35-1.58.35H108.1c-1.4,0-2.28-.93-3.17-1.82-.13-.12-.05-.45-.07-.69l18.47,0h67.2c2.52,0,4.18-1.09,4.82-3.19a7.09,7.09,0,0,0,.23-2.1V55.12C195.58,54.74,195.61,54.35,195.63,54Z"/><path class="cls-10" d="M185.76,55.23a2.54,2.54,0,0,1-2.61-3,5.44,5.44,0,0,1,4.47-4.63,2.59,2.59,0,0,1,3.06,2.61A5.28,5.28,0,0,1,185.76,55.23Z"/><path class="cls-10" d="M111.13,55.23a5.21,5.21,0,0,1-4.86-5.36,2.55,2.55,0,0,1,2.8-2.25,5.35,5.35,0,0,1,4.7,4.94A2.5,2.5,0,0,1,111.13,55.23Z"/><path class="cls-3" d="M187,188.13c-1,.24-1,.27-.44,1.12a1.41,1.41,0,0,1,0,1.84c-1.64.87-2.65,2.4-3.86,3.71-1,1.08-2,2.16-3,3.26a.92.92,0,0,1-1.45.11c-2.7-2.09-5.4-4.17-8.09-6.27a2.68,2.68,0,0,1-.75-.86,56.32,56.32,0,0,1-2.85-6l9.06,1.33Z"/><path class="cls-4" d="M170.24,175.1l6.49-1.16a1.55,1.55,0,0,1,1.87.94c.26.53.56,1,.85,1.54-2.31-.19-4.58-.66-6.87-1C171.8,175.35,171,175.22,170.24,175.1Z"/><path class="cls-4" d="M179.43,176.4l.19.12Z"/></g></g></svg>