<svg xmlns="http://www.w3.org/2000/svg" viewBox="0 0 89.6 56.61"><defs><style>.cls-1{fill:#2d2628;}.cls-2{fill:#3280ad;}.cls-3{fill:#d0c4c4;}</style></defs><title>interfaz</title><g id="Capa_2" data-name="Capa 2"><g id="DI_Escritorio" data-name="DI Escritorio"><path class="cls-1" d="M41-11.09H77.52a0,0,0,0,1,0,0V51.78a0,0,0,0,1,0,0H41a2.18,2.18,0,0,1-2.18-2.18V-8.91A2.18,2.18,0,0,1,41-11.09Z" transform="translate(78.51 -37.82) rotate(90)"/><rect class="cls-2" x="29.61" y="4.58" width="57.4" height="31.48" rx="1.88" ry="1.88"/><rect class="cls-3" x="32.75" y="12.39" width="51.11" height="19.94"/><rect class="cls-3" x="32.75" y="5.94" width="51.11" height="2.71"/><path class="cls-3" d="M26.73,39.7v5.64a.89.89,0,0,0,.89.89h21.9s1.14.85,1.22,4.1a7.16,7.16,0,0,1-.41,2.57H44a.85.85,0,0,0-.85.85v2.13H73V53.75a.86.86,0,0,0-.86-.85H66.5A11.15,11.15,0,0,1,66,50.33c.12-3,1-4.1,1-4.1H88.71a.89.89,0,0,0,.89-.89V39.7Z"/><rect class="cls-1" width="35.26" height="56.61" rx="1.98" ry="1.98"/><rect class="cls-2" x="3.44" y="4.47" width="28.39" height="47.12" rx="1.62" ry="1.62"/><rect class="cls-3" x="9.96" y="15.89" width="15.34" height="13.52"/><rect class="cls-3" x="10.75" y="33.34" width="13.76" height="1.51" rx="0.76" ry="0.76"/><rect class="cls-3" x="10.75" y="36.19" width="13.76" height="1.51" rx="0.76" ry="0.76"/><path class="cls-3" d="M17.89,52.79A1.23,1.23,0,1,1,16.67,54a1.23,1.23,0,0,1,1.22-1.23m0-.31A1.54,1.54,0,1,0,19.43,54a1.53,1.53,0,0,0-1.54-1.54Z"/></g></g></svg>