<svg xmlns="http://www.w3.org/2000/svg" xmlns:xlink="http://www.w3.org/1999/xlink" viewBox="0 0 50.999 44"><defs><style>.cls-1,.cls-7{opacity:0.44;}.cls-2{opacity:0.17;}.cls-3,.cls-6,.cls-7,.cls-9{fill:#fff;}.cls-4{opacity:0.16;}.cls-5{fill:url(#linear-gradient);}.cls-6{opacity:0.29;}.cls-8{opacity:0.52;}.cls-9{opacity:0.49;}.cls-10{opacity:0.32;}.cls-11{opacity:0.38;}</style><linearGradient id="linear-gradient" x1="-193.006" y1="16.221" x2="-203.717" y2="10.037" gradientTransform="translate(212.321 10.301) rotate(2.925)" gradientUnits="userSpaceOnUse"><stop offset="0" stop-color="#1d1e1c"/><stop offset="0.166" stop-color="#232422"/><stop offset="0.39" stop-color="#343533"/><stop offset="0.648" stop-color="#4f514f"/><stop offset="0.927" stop-color="#767876"/><stop offset="0.995" stop-color="#808380"/></linearGradient></defs><title>logo</title><g id="Capa_2" data-name="Capa 2"><g id="Pagina_de_inicio" data-name="Pagina de inicio"><path d="M13.283,32.355s-6.4,11.559-10.362,9.091C.445,39.9,4.511,35.5,7.993,33.633a17.289,17.289,0,0,1,5.979-1.573,47.562,47.562,0,0,1,6.442-.349c5.137.014,10.152.608,17.615.435C48.2,31.91,51,25.193,51,25.193l-.142-3.024c-.026,0-4.968,9.063-20.221,7.331C1.6,26.2-3.008,39.971,1.485,43.041c7.268,4.966,14.174-10.972,14.174-10.972"/><path d="M28.448,20.308l0,0,0,0s-.464-3.422-2.059-3.5c-2.392-.122-6.33,8.427-7.536,7.859-.984-.464,2.823-7.591.391-7.646-2.54-.057-1.8,6.706-8.06,7.8-3.62.631,2.38-12.873,4.444-16.661.826-1.516,3.712-5.807,5.312-4.429,4.106,3.536-5.838,7.236-.826,9.069C23.077,13.88,27.077,1.637,19.375.083,11.885-1.428,1.393,22.766,7.828,26.62c1.361.815,4.028.733,6.115-1.264.719-.688,3.193-3.274,3.334-2.376.164,1.042-1.815,4.384-2.492,5.652a.22.22,0,0,0,.223.321l2.043-.276a1.4,1.4,0,0,0,.905-.51c1.012-1.258,3.978-4.831,7.137-8.07a.564.564,0,0,1,.8,0,2.237,2.237,0,0,1,.768,1.493c.024.147.052.292.071.437a.176.176,0,0,0,.308.089c.48-.568.952-1.124,1.438-1.638C28.472,20.417,28.454,20.368,28.448,20.308Z"/><path d="M34.5,27.7l1.4-.812a2.938,2.938,0,0,1,.6-.263c.882-.27,3.39-1.032,4.663-1.355a15.833,15.833,0,0,0,6.821-3.617.176.176,0,0,1,.277.208L47.242,23.91a3.155,3.155,0,0,1-1.107,1.244,14.345,14.345,0,0,1-4.016,1.763,49.046,49.046,0,0,1-7.486,1.2A.225.225,0,0,1,34.5,27.7Z"/><path d="M42.63,16.7a.6.6,0,0,0-.123-.275.666.666,0,0,0-.251-.165c-.048-.02-.1-.036-.148-.053-2.081-.066-4.5,1.595-5.471,2.337a.166.166,0,0,0,.117.3l.764-.074a.468.468,0,0,0,.1-.021c.495-.153,4.448-1.362,4.8-.9A1.75,1.75,0,0,0,42.63,16.7Z"/><g class="cls-1"><path d="M42.63,16.7a.6.6,0,0,0-.123-.275.666.666,0,0,0-.251-.165c-.048-.02-.1-.036-.148-.053-2.081-.066-4.5,1.595-5.471,2.337a.166.166,0,0,0,.117.3l.764-.074a.468.468,0,0,0,.1-.021c.495-.153,4.448-1.362,4.8-.9A1.75,1.75,0,0,0,42.63,16.7Z"/></g><path d="M44.6,17.517a2.882,2.882,0,0,0-2.4-1.309c.05.017.1.033.148.053a.678.678,0,0,1,.251.165.6.6,0,0,1,.123.275,1.75,1.75,0,0,1-.209,1.143.131.131,0,0,1,.021.033c.428,1.245-8.109,7.757-9.183,7.518-2.009-.448,4.107-5.765,1.97-7.916-.96-.966-3.231.375-4.878,1.589-.222.163-.433.324-.627.477l-.017.014a39.208,39.208,0,0,0-4.927,5.582.4.4,0,0,0-.032.057,1.579,1.579,0,0,0,.9,2.44c2.545,1.037,3.572-3.41,3.152-5.383a.336.336,0,0,0-.561-.17l-1.316,1.259a.334.334,0,0,0-.094.322c.163.644.433,2.9-.523,2.535-.8-.306-.6-1.15-.291-1.752a6.507,6.507,0,0,1,1.635-1.944,12.508,12.508,0,0,0,.982-.944,5.477,5.477,0,0,1,1.174-.83,17.894,17.894,0,0,1,2.35-1.216c.363-.152,1.267-.613,1.655-.311a.61.61,0,0,1,.183.568c-.06,2.2-5.142,7.535-1.846,8.348C34,28.551,45.606,18.969,44.6,17.517Z"/><g class="cls-2"><path class="cls-3" d="M10.1,31.551v0s0-.021,0,.011a.089.089,0,0,0,.033.059.631.631,0,0,0-.158.016,4.994,4.994,0,0,0-.724.224,17.064,17.064,0,0,0-2.492,1.155c-.494.281-1.027.587-1.56.952A15.328,15.328,0,0,0,3.6,35.2,8.815,8.815,0,0,0,2.21,36.782a4.756,4.756,0,0,0-.791,1.91,4.116,4.116,0,0,0-.029,1.016,3.557,3.557,0,0,0,.084.5l.031.137.033.116c.019.076.05.157.075.236a2.989,2.989,0,0,0,.447.825,2.087,2.087,0,0,0,.673.549,3.613,3.613,0,0,0,1.812.312,7.976,7.976,0,0,0,1.793-.325,7.947,7.947,0,0,0,.778-.272c.244-.1.474-.192.682-.3.419-.208.778-.4,1.064-.581.575-.349.887-.574.887-.574s-.312.225-.887.574c-.289.171-.637.385-1.049.609l-.656.36c-.233.125-.482.248-.742.381a9.875,9.875,0,0,1-1.779.7,4.521,4.521,0,0,1-1.08.162,3.031,3.031,0,0,1-1.195-.2,2.635,2.635,0,0,1-1.067-.758,2.755,2.755,0,0,1-.371-.544,4.016,4.016,0,0,1-.254-.591c-.032-.1-.067-.2-.093-.307l-.042-.158L.5,40.427a4.887,4.887,0,0,1-.1-.624,4.5,4.5,0,0,1,.059-1.274,5.7,5.7,0,0,1,1-2.26A8.852,8.852,0,0,1,3.079,34.6a12.885,12.885,0,0,1,1.754-1.2,16.639,16.639,0,0,1,1.683-.856,15.67,15.67,0,0,1,2.658-.917,5.033,5.033,0,0,1,.778-.127.583.583,0,0,1,.208.016c.054.018.034.06.036.055Z"/></g><g class="cls-4"><path class="cls-5" d="M10.287,25.319a4.727,4.727,0,0,1-.249-.728c-1.531-1.9,3.2-12.761,5.265-16.457.838-1.5,3.979-6.211,5.587-4.225,3.255,4.019-6.22,7.173-.776,8.808,2.491.748,6.262-11-.959-12.632C11.617-1.621.986,22.811,7.507,26.637a5.2,5.2,0,0,0,4.993-.35A1.859,1.859,0,0,1,10.287,25.319Z"/></g><path class="cls-6" d="M19.613,18.955c-.041-.435.119-1.276-.909-.979a1.724,1.724,0,0,0-.671.472,1.771,1.771,0,0,1,.4-.809c.686-.537,1.067-.389,1.324-.053a.441.441,0,0,1,.075.136.582.582,0,0,1,.021.166A2.282,2.282,0,0,1,19.613,18.955Z"/><path class="cls-7" d="M25.36,25.579c.075.436-.147,1.274,1.429,1a2.812,2.812,0,0,0,1.02-.454,1.559,1.559,0,0,1-.6.8c-1.043.518-1.635.36-2.04.017a.478.478,0,0,1-.119-.139.4.4,0,0,1-.038-.167A1.6,1.6,0,0,1,25.36,25.579Z"/><g class="cls-8"><path class="cls-3" d="M22.54,4.381l-.067-.088-.179-.251c-.082-.1-.171-.22-.289-.348a2.375,2.375,0,0,0-.184-.2,2.387,2.387,0,0,0-.212-.2,3.438,3.438,0,0,0-.5-.368,3.378,3.378,0,0,0-.6-.264,3.07,3.07,0,0,0-.669-.115,2.719,2.719,0,0,0-.7.05,3.238,3.238,0,0,0-.689.2,4.268,4.268,0,0,0-.636.333,4.473,4.473,0,0,0-.555.422c-.088.072-.165.151-.242.227s-.147.156-.218.231c-.136.154-.259.3-.361.445s-.19.268-.266.374c-.138.218-.227.349-.227.349l0-.11a3.052,3.052,0,0,1,0-.315,3.519,3.519,0,0,1,.066-.487,3.446,3.446,0,0,1,.188-.62,3.633,3.633,0,0,1,.368-.69,3.747,3.747,0,0,1,.585-.674,3.272,3.272,0,0,1,.375-.3,3.178,3.178,0,0,1,.426-.255,3.468,3.468,0,0,1,.969-.33,3.208,3.208,0,0,1,1.039-.026,3.146,3.146,0,0,1,.967.295,3.192,3.192,0,0,1,.755.545,2.972,2.972,0,0,1,.483.647,2.2,2.2,0,0,1,.152.314,2.028,2.028,0,0,1,.1.293,3.138,3.138,0,0,1,.1.488,2.784,2.784,0,0,1,.019.309Z"/></g><path class="cls-9" d="M19.325,11.206c.014-.295.332-.4.452-.15.134.28.418.428,1.027.228a.879.879,0,0,0,.1-.039c.248-.112.449.254.264.49l-.006.009a.389.389,0,0,1-.04.041c-.873.754-1.356.544-1.681.068a.673.673,0,0,1-.095-.2.944.944,0,0,1-.026-.238C19.32,11.348,19.322,11.277,19.325,11.206Z"/><g class="cls-2"><path class="cls-3" d="M11.156,25.517l.074.041a.426.426,0,0,0,.092.038.668.668,0,0,0,.126.034,1.27,1.27,0,0,0,.351.012,2.489,2.489,0,0,0,.447-.094,5,5,0,0,0,.506-.2c.174-.085.354-.183.536-.292a8.3,8.3,0,0,0,1.076-.786c.174-.146.343-.3.5-.456s.315-.315.457-.475.278-.317.4-.471.234-.3.336-.444.189-.272.265-.391.14-.224.2-.31l.164-.278s-.03.113-.091.311c-.036.1-.073.218-.131.349s-.122.283-.2.44a6.372,6.372,0,0,1-.661,1.024,6.72,6.72,0,0,1-.452.52c-.164.169-.337.333-.518.49s-.374.3-.569.432a5.735,5.735,0,0,1-.6.356,3.913,3.913,0,0,1-1.164.407,1.573,1.573,0,0,1-.874-.067.523.523,0,0,1-.125-.068.434.434,0,0,1-.082-.063Z"/></g><g class="cls-2"><path class="cls-3" d="M27.937,20.573s-.053-.1-.131-.288l-.32-.744c-.065-.151-.137-.313-.216-.478s-.166-.333-.261-.5a2.336,2.336,0,0,0-.322-.428.7.7,0,0,0-.348-.206.744.744,0,0,0-.407.061,2.518,2.518,0,0,0-.469.268c-.152.114-.3.228-.439.351s-.27.238-.39.35l-.6.55c-.145.136-.237.209-.237.209s.032-.112.1-.3a5.535,5.535,0,0,1,.361-.752,4.679,4.679,0,0,1,.31-.471A4.037,4.037,0,0,1,25,17.711a2.46,2.46,0,0,1,.607-.433,1.427,1.427,0,0,1,.884-.141,1.4,1.4,0,0,1,.771.469,2.392,2.392,0,0,1,.388.642,4.329,4.329,0,0,1,.287,1.175c.022.172.024.331.03.471s0,.263,0,.363C27.953,20.457,27.937,20.573,27.937,20.573Z"/></g><g class="cls-2"><path class="cls-3" d="M33.742,22.229s.037-.124.116-.332l.321-.845c.064-.173.138-.358.206-.554s.141-.4.205-.612a5.276,5.276,0,0,0,.156-.64,1.7,1.7,0,0,0,.02-.585.364.364,0,0,0-.183-.293.934.934,0,0,0-.489-.071,5.117,5.117,0,0,0-1.149.265c-.348.11-.639.223-.848.295s-.33.115-.33.115.085-.1.245-.252c.083-.076.182-.17.3-.267s.261-.207.423-.314a4.827,4.827,0,0,1,.552-.313,3.293,3.293,0,0,1,.7-.24,1.529,1.529,0,0,1,.921.069,1.034,1.034,0,0,1,.444.361,1.262,1.262,0,0,1,.2.5,2.174,2.174,0,0,1-.047.888,3.826,3.826,0,0,1-.255.735c-.05.113-.1.223-.158.325s-.109.2-.169.3c-.112.191-.233.361-.344.517a7.349,7.349,0,0,1-.6.707C33.839,22.143,33.742,22.229,33.742,22.229Z"/></g><g class="cls-2"><path class="cls-3" d="M33.218,25.349a.6.6,0,0,0,.153.035,1.166,1.166,0,0,0,.427-.06,6.116,6.116,0,0,0,1.387-.722c.273-.177.563-.382.868-.6s.616-.463.94-.714c.644-.505,1.317-1.063,1.973-1.641.327-.288.661-.569,1-.839s.674-.533.994-.8a7.115,7.115,0,0,0,1.536-1.657,3.127,3.127,0,0,0,.561-1.485.933.933,0,0,0-.09-.437.653.653,0,0,0-.06-.1l-.022-.034.022.034a.653.653,0,0,1,.06.1.933.933,0,0,1,.09.437,3.186,3.186,0,0,1-.558,1.486c-.351.563-.777,1.216-1.259,1.912-.242.348-.507.7-.794,1.036a9.645,9.645,0,0,1-.944.953,21,21,0,0,1-2.086,1.612c-.349.237-.7.448-1.035.641a10.489,10.489,0,0,1-.973.5,4.793,4.793,0,0,1-1.58.473,1.1,1.1,0,0,1-.467-.053A.518.518,0,0,1,33.218,25.349Z"/></g><g class="cls-10"><path class="cls-3" d="M32.06,25.485s-.007.082-.029.221-.052.332-.073.559a3.083,3.083,0,0,0-.021.352,1.051,1.051,0,0,0,.047.328c.039.09.071.124.132.144a.649.649,0,0,0,.3.016,3.754,3.754,0,0,0,.793-.223c.262-.1.51-.2.726-.29s.4-.161.533-.21.211-.074.211-.074a3.786,3.786,0,0,1-.56.584,4.078,4.078,0,0,1-.681.478,2.7,2.7,0,0,1-.951.339,1.094,1.094,0,0,1-.62-.089.786.786,0,0,1-.155-.1.794.794,0,0,1-.121-.14.759.759,0,0,1-.124-.306,1.3,1.3,0,0,1,.023-.513,2.077,2.077,0,0,1,.135-.389,2.791,2.791,0,0,1,.157-.3c.052-.086.1-.158.143-.215C32.005,25.546,32.06,25.485,32.06,25.485Z"/></g><g class="cls-2"><path class="cls-3" d="M18.29,23.464s0,.075-.007.2-.015.3-.009.5a1.841,1.841,0,0,0,.092.609.471.471,0,0,0,.137.2.361.361,0,0,0,.2.07.85.85,0,0,0,.292-.036,2.061,2.061,0,0,0,.321-.121,5.2,5.2,0,0,0,.583-.328c.174-.108.32-.206.426-.273s.17-.106.17-.106-.025.07-.079.186a2.8,2.8,0,0,1-.277.451,2.431,2.431,0,0,1-.551.535,1.722,1.722,0,0,1-.409.216,1.236,1.236,0,0,1-.524.082A.881.881,0,0,1,18.1,25.4a.915.915,0,0,1-.253-.49,1.478,1.478,0,0,1-.009-.448,1.992,1.992,0,0,1,.09-.36,2.268,2.268,0,0,1,.123-.279,2.3,2.3,0,0,1,.119-.2C18.242,23.521,18.29,23.464,18.29,23.464Z"/></g><path class="cls-7" d="M35.9,26.886a29.45,29.45,0,0,0,8.49-2.5,6.609,6.609,0,0,0,1.016-.636,22.809,22.809,0,0,0,1.616-1.717"/><g class="cls-11"><path class="cls-3" d="M17.038,29.236s.567-.034,1.558-.12,2.407-.2,4.113-.282c.853-.046,1.778-.078,2.759-.085s2.018,0,3.092.072c1.074.06,2.2.249,3.277.349a30.967,30.967,0,0,0,3.33.152,26.131,26.131,0,0,0,3.312-.228,22.243,22.243,0,0,0,3.145-.632,20.131,20.131,0,0,0,2.83-.989,18.168,18.168,0,0,0,2.388-1.24A15.172,15.172,0,0,0,48.69,24.9a10.513,10.513,0,0,0,1.248-1.244,5.687,5.687,0,0,0,.646-.938,2.428,2.428,0,0,0,.162-.373l-.02.1c-.015.068-.041.167-.082.3a4.853,4.853,0,0,1-.517,1.049A9.089,9.089,0,0,1,49,25.22a13.316,13.316,0,0,1-1.786,1.557,16.831,16.831,0,0,1-2.4,1.454,19.613,19.613,0,0,1-2.918,1.152,21.794,21.794,0,0,1-3.276.709,23.961,23.961,0,0,1-3.448.208,26.516,26.516,0,0,1-3.432-.267c-.28-.036-.564-.085-.838-.133s-.55-.1-.812-.144c-.53-.092-1.061-.155-1.584-.211-2.1-.214-4.082-.251-5.781-.274-.851-.013-1.631-.005-2.323-.01H18.6C17.606,29.254,17.038,29.236,17.038,29.236Z"/></g><g class="cls-2"><path class="cls-3" d="M44.2,18.324l-.4.561.05-.532a1.3,1.3,0,0,0-.037-.662c-.361-.785-.633-.616-.815-1.013l.544.183a1.1,1.1,0,0,1,.275.123,1.037,1.037,0,0,1,.176.168,1.944,1.944,0,0,1,.3.39.668.668,0,0,1,.073.476A.973.973,0,0,1,44.2,18.324Z"/></g></g></g></svg>