<svg xmlns="http://www.w3.org/2000/svg" viewBox="0 0 202.01 232.98"><defs><style>.cls-1{fill:#3280a9;}.cls-2{fill:#cacaca;}.cls-3{fill:#cd9501;}.cls-4{fill:#010202;}.cls-5{fill:#1a435d;}.cls-13,.cls-6{opacity:0.56;}.cls-13,.cls-7{fill:#808010;}.cls-8{fill:#2d2628;}.cls-9{fill:#ccc0c0;}.cls-10{opacity:0.04;}.cls-11{opacity:0.46;}.cls-12{fill:#0d0e0e;}.cls-14{fill:#fff;}</style></defs><title>mov_1</title><g id="Capa_2" data-name="Capa 2"><g id="Animacion_Escritorio" data-name="Animacion Escritorio"><path class="cls-1" d="M74.91,203a74.56,74.56,0,0,1,.88-149.11h.92A74.56,74.56,0,0,1,75.82,203Z"/><path class="cls-2" d="M75.79,55.17h.9a73.31,73.31,0,0,1-.86,146.62h-.91a73.31,73.31,0,0,1,.87-146.61m0-2.5A75.8,75.8,0,0,0,0,127.56H0a75.8,75.8,0,0,0,74.88,76.72h.94a75.81,75.81,0,0,0,75.78-74.9h0A75.8,75.8,0,0,0,76.72,52.68Z"/><path d="M15.93,46.8c3.14-.72,5.67-3.08,7.49-5.74s3.09-5.65,4.71-8.43C33.29,23.78,42.75,17.12,53,16.93S73.6,24,75.45,34.08c1.19,6.49,2.76,12.79.61,19-4.51-6.92-17.56-10-25.45-7.6-6.14,1.88-11,6.72-17.11,8.71A20.52,20.52,0,0,1,10,45a11.47,11.47,0,0,0,6.88,1.81"/><rect class="cls-3" x="62" y="75.38" width="14.12" height="16.16" transform="translate(-34.19 50.7) rotate(-32.79)"/><path class="cls-3" d="M76.73,52.14c0-3.78-1.45-6.85-3.34-6.88-1.12,0-2.12,1.06-2.76,2.72l-1.91-5.12a6.3,6.3,0,0,0-8.07-3.69l-24.26,9c-3.23,1.2-7.82,5.41-6.62,8.64L41.41,79.66a12.61,12.61,0,0,0,16.16,7.39h0A26,26,0,0,0,74.08,58.72C75.57,58,76.69,55.32,76.73,52.14Z"/><ellipse cx="57.7" cy="60.74" rx="1.97" ry="6.36" transform="translate(-17.34 23.5) rotate(-20.08)"/><ellipse cx="42.99" cy="66.11" rx="1.97" ry="6.36" transform="translate(-20.08 18.78) rotate(-20.08)"/><path class="cls-4" d="M47.13,59.22a10.44,10.44,0,0,1,2.66,8c-.14,1.44-.56,2.77,0,3.91a1.63,1.63,0,0,0,1.31,1.06,1.3,1.3,0,0,0,1.42-1,1.14,1.14,0,0,1-.37,1,1.78,1.78,0,0,1-1,.49,2.09,2.09,0,0,1-2-1.18,4.1,4.1,0,0,1-.47-2.23c0-.74.18-1.43.22-2.09A14,14,0,0,0,47.13,59.22Z"/><rect x="54.69" y="77.32" width="9.03" height="2.8" rx="1.4" ry="1.4" transform="translate(-26.91 30.91) rotate(-24.01)"/><path d="M50.07,53.31a.24.24,0,0,0,0,.17.32.32,0,0,0,.19.1,3.18,3.18,0,0,0,1.62-.07c1.35-.43,2.24-1.67,3.42-2.44a5.39,5.39,0,0,1,3.71-.82c.56.08,1.83,1.31,1.75,1.07a6,6,0,0,0-1.18-2,6.42,6.42,0,0,0-3-1.26C53.82,48.11,50,50.33,50.07,53.31Z"/><path d="M44.46,55.15s.11.06.13.12a.3.3,0,0,1,0,.21,3.23,3.23,0,0,1-.86,1.38c-1,1-2.54,1.16-3.78,1.82a5.37,5.37,0,0,0-2.52,2.85c-.2.52.27,2.23.1,2a5.74,5.74,0,0,1-1.16-2,6.3,6.3,0,0,1,.36-3.26C38.1,55.91,41.86,53.68,44.46,55.15Z"/><rect class="cls-3" x="112.52" y="123.48" width="6.61" height="13.89" rx="3.31" ry="3.31" transform="translate(-27.67 31.25) rotate(-13.74)"/><path class="cls-3" d="M160.33,207.92C141.15,195,123.83,177,113.44,161.24s-1.31,2.16-8.74-4.11c-.77-.65-.47.75-.74.9-2.61,1.45-2.61,4.29-1.35,6.69,18,22.72,31.87,32.72,56.12,48.6C159.14,211.32,160.64,211.07,160.33,207.92Z"/><rect class="cls-3" x="20.31" y="91.7" width="6.61" height="13.89" rx="3.31" ry="3.31" transform="translate(-68.07 55.26) rotate(-51.22)"/><path class="cls-5" d="M149.23,213l10.84-10.12,5,8h0a10.09,10.09,0,0,1-5.46,8.83L157.05,221,146,233l-.18,0a3.73,3.73,0,0,1-2.31-5.65l1.42-2.24,2.85-3.75a9.14,9.14,0,0,0,1.65-7.58Z"/><path class="cls-3" d="M110.81,205.37c-18.12-9-34.22-14.51-50.59-27.4,3.26-4.28,8.2-7.58,12.07-11,2.74-2.4,2.07-5.05.5-7.71a4.76,4.76,0,0,0-.68-.75c-2.33-2.33-5.08-2.25-7.71-.39-4.57,3.26-13.18,12.17-15.47,15s-.37.33-1,1.22a8.4,8.4,0,0,0-.78,1c-1.65,2.71-1.17,4.9.89,7a5.9,5.9,0,0,0,.52.41c.2.16.59.43.81.58a5.65,5.65,0,0,0,1.5.78c20.1,12.27,37.3,18.06,58.93,26.24C110.1,208.71,110.46,207,110.81,205.37Z"/><path d="M15.32,39.8a82.85,82.85,0,0,0,6.52-7,93.73,93.73,0,0,1,6.47-7c7.17-6.68,19.27-11.23,28.68-9s18.34,7.2,19.8,17c.95,6.33-4.74,11.19-5.87,17.13-1.38-7.4-6.25-3.27-7.26-5.53C59.1,35.15,52.39,42.52,48.15,44c-7.6,2.7-13.13,3-18.81,3.6-8.07.8-13.44-2.49-18.91-7.17a7.42,7.42,0,0,0,5.55-1"/><g class="cls-6"><path class="cls-7" d="M61.7,85.08c6.42-2,11-13.27,9.78-9.63-.88,2.55-4,6.07-4.24,8.75a43.54,43.54,0,0,0,.26,9.88C65.7,92,64,88.45,62.18,86.36"/></g><path class="cls-8" d="M70.31,148.4l-14,12.65,8.44,13.62a4,4,0,0,0,6.11.75L85,161.71A6.18,6.18,0,0,1,93.88,163l6.71,9.55a3.07,3.07,0,0,0,4.5.58l12.1-10.23a4.59,4.59,0,0,0,1-5.87l-16-26.49L75.65,143.34Z"/><path class="cls-9" d="M123.33,86.06c-.34-3-3.55-3.1-5.45-4.31a34,34,0,0,0-3.6-.47c-9.51-.32-20-.19-29.26,1.24-1.81.28-1.59.5-3,1-1.06-.14-2.5.59-3.56.75-4.17.64-11.38,5.89-12.88,8.37-2,3.37-3.62,10.42-4.16,12-2,5.58-2.88,5.84-5.46,9.88C45.7,106.63,35.52,102,24.87,95.14c-1.45,2.54-3,5-4.34,7.59,12.17,7.54,23.72,15,34.95,23.29,1.09.8.47.25.65.31a6.8,6.8,0,0,0,5.31,0,15,15,0,0,0,6.14-3.69c.4-.41.62-1.07,1-1.37,5.41,8.08,6.13,6.62,5.74,16.2-.22,5.39,1.87,3.56,4.46,5.57,10.1-4.23,19.65-6.51,29.51-11.67-2.76-19.47-4-21.74-15.35-37.74a112.25,112.25,0,0,1,20.74-.07c3.79,11.78-1.3,20.7-2.71,32.38,3,.55,6,1.14,9,1.63C120.71,113.09,125,100.93,123.33,86.06Z"/><path class="cls-10" d="M28.52,96.47l32.77,22.94L59,118.77a30,30,0,0,1-9.46-4.47L27.16,98.42Z"/><g class="cls-11"><path class="cls-12" d="M73.72,48.14a12.29,12.29,0,0,1,.71,2.79c.07.61.37,3.25-.81,3.15-.34,0-.33.49,0,.52,2.58.22,1-5.56.6-6.6-.12-.3-.62-.17-.5.14Z"/></g><polygon class="cls-13" points="72.59 59.53 72.99 59.06 74.08 58.72 74.33 60.17 72.59 59.53"/><path class="cls-5" d="M99.24,210.53l12.32-8.24,3.68,8.68h0a10.06,10.06,0,0,1-6.81,7.83l-2.76.9-12.88,10-.17-.07a3.75,3.75,0,0,1-1.37-6l1.76-2,3.42-3.24a9.22,9.22,0,0,0,2.85-7.23Z"/><rect class="cls-9" x="151.38" y="108.57" width="2.45" height="26.05" rx="1" ry="1" transform="translate(29.18 272.72) rotate(-89.31)"/><rect class="cls-9" x="141.12" y="112.44" width="2.45" height="29.66" rx="1" ry="1" transform="translate(13.37 268.06) rotate(-89.31)"/><rect class="cls-9" x="151.83" y="119.51" width="2.45" height="24.9" rx="0.93" ry="0.93" transform="translate(19.25 283.42) rotate(-89.31)"/><rect class="cls-9" x="141.98" y="131.24" width="2.45" height="10.35" rx="0.6" ry="0.6" transform="translate(5.07 277.97) rotate(-89.31)"/><rect class="cls-9" x="142.72" y="119.11" width="2.45" height="43.77" rx="1.22" ry="1.22" transform="translate(1.22 283.23) rotate(-89.31)"/><rect class="cls-9" x="173.59" y="82.35" width="2.45" height="26.05" rx="1" ry="1" transform="translate(77.34 269.02) rotate(-89.31)"/><rect class="cls-9" x="163.32" y="86.21" width="2.45" height="29.66" rx="1" ry="1" transform="translate(61.53 264.35) rotate(-89.31)"/><rect class="cls-9" x="174.04" y="93.29" width="2.45" height="24.9" rx="0.93" ry="0.93" transform="translate(67.41 279.71) rotate(-89.31)"/><rect class="cls-9" x="164.19" y="105.02" width="2.45" height="10.35" rx="0.6" ry="0.6" transform="translate(53.23 274.27) rotate(-89.31)"/><rect class="cls-9" x="164.92" y="92.89" width="2.45" height="43.77" rx="1.22" ry="1.22" transform="translate(49.37 279.52) rotate(-89.31)"/><polygon class="cls-14" points="202.01 35.99 141.38 0 140.53 70.5 202.01 35.99"/></g></g></svg>