<svg xmlns="http://www.w3.org/2000/svg" viewBox="0 0 155.61 155.6"><defs><style>.cls-1{fill:#fff;}</style></defs><title>msj_1</title><g id="Capa_2" data-name="Capa 2"><g id="Capa_10" data-name="Capa 10"><path class="cls-1" d="M0,151.65c.86-1,1.67-2,2.59-2.93q13.89-13.93,27.82-27.83a14.81,14.81,0,0,1,1.28-1l-5.6-5.6c-.13.12-.5.43-.84.77-3.83,3.83-7.65,7.67-11.5,11.48a5.42,5.42,0,0,1-2,1.36,2.72,2.72,0,0,1-3.23-1.05,2.75,2.75,0,0,1-.1-3.39,9.75,9.75,0,0,1,1.19-1.37L22,109.73c-.37-.41-.68-.79-1-1.13-3.51-3.51-7-7-10.52-10.53-5.76-5.85-5.78-13.75-.09-19.64.14-.15.29-.29.43-.43Q47.44,41.33,84.12,4.63C88.28.48,93.13-1.19,98.77.9a15.75,15.75,0,0,1,5.39,3.51q23.63,23.43,47.09,47a15.62,15.62,0,0,1,4.36,8.45v3a15.94,15.94,0,0,1-4.28,8.2q-37.08,37.05-74.14,74.14a13.66,13.66,0,0,1-7.65,4c-4.78.75-8.75-.85-12.11-4.2L37.34,125c-.39-.39-.79-.75-1.42-1.35a15.66,15.66,0,0,1-1.21,1.54Q20.92,139,7.09,152.79c-1,1-2.09,1.88-3.14,2.81H0ZM147.93,65.17c-3.5,0-7,0-10.57,0a3.31,3.31,0,0,0-2.64,1.13q-9.9,10-19.86,19.89c-2,2-3.73,2.26-5.14.9s-1.17-3.17.89-5.23l.64-.65,14.62-14.61c.36-.37.71-.75,1.25-1.3H92.41c0,2.52,0,4.94,0,7.37A13.38,13.38,0,0,1,89.68,81a13.24,13.24,0,0,1-10.9,5.32c-2.46,0-4.92,0-7.39,0v55.42ZM17.54,80.24c3.09,0,6.13,0,9.16,0a3.1,3.1,0,0,0,2.51-1.05Q44.06,64.3,59,49.45a10,10,0,0,1,1.61-1.38,3,3,0,0,1,3.63.43,2.91,2.91,0,0,1,.44,3.63,10.42,10.42,0,0,1-1.38,1.6Q50.7,66.32,38.12,78.87c-.37.38-.71.78-1.26,1.37,2.67,0,5,.08,7.4,0a3.9,3.9,0,0,0,2.33-1c3.89-3.77,7.7-7.64,11.54-11.46a9.07,9.07,0,0,1,1.37-1.18,3,3,0,0,1,3.63.37,2.9,2.9,0,0,1,.52,3.61A8.57,8.57,0,0,1,62.39,72c-2.62,2.65-5.26,5.27-8.19,8.2h1.54c7.59,0,15.19,0,22.78,0,4.79,0,7.8-3,7.8-7.76q0-30,0-60a6.28,6.28,0,0,0-.1-.93ZM92.49,6.39V58.93h57c-1.15-1.43-1.92-2.61-2.89-3.58q-17-17.12-34.14-34.17Q106.2,15,100,8.72C97.9,6.67,95.52,5.59,92.49,6.39Zm-27.41,80H12.48a7.26,7.26,0,0,0,2.23,7.37c2.32,2.34,4.65,4.66,7,7q19.87,19.86,39.76,39.72a41.27,41.27,0,0,0,3.63,2.86Z"/><path class="cls-1" d="M21.88,155.6c-2.82-1.77-3-3.55-.61-5.95,4.15-4.16,8.28-8.33,12.48-12.43a4.28,4.28,0,0,1,2.56-1.34,3.5,3.5,0,0,1,2.58,1.37A4.59,4.59,0,0,1,39,140.2c-.11.56-.76,1-1.22,1.51-3.92,3.94-7.85,7.89-11.81,11.8-.79.77-1.71,1.4-2.57,2.09Z"/><path class="cls-1" d="M0,132.2C.68,131,1.51,129.92,3.11,130a3,3,0,1,1-2.46,4.76c-.23-.32-.43-.66-.65-1Z"/><path class="cls-1" d="M72.52,43.17a3.08,3.08,0,0,1-3,3,3,3,0,0,1-3-3,3.07,3.07,0,0,1,3-3A3.12,3.12,0,0,1,72.52,43.17Z"/></g></g></svg>