<svg xmlns="http://www.w3.org/2000/svg" viewBox="0 0 99.56 99.57"><defs><style>.cls-1{fill:#653e66;}.cls-2{fill:#c180c8;}</style></defs><title>pr</title><g id="Capa_2" data-name="Capa 2"><g id="Intro_Escritorio" data-name="Intro Escritorio"><path class="cls-1" d="M80.3,99.57H19.05c-.16-.29-.45-.18-.69-.23Q4.19,96.68.5,82.73A7.38,7.38,0,0,0,0,80.51V19.07a6.49,6.49,0,0,0,.45-2,21.33,21.33,0,0,1,21-17C40.32,0,59.21,0,78.1,0A20.34,20.34,0,0,1,88.76,2.86a21,21,0,0,1,10.78,19c0,18.63,0,37.26,0,55.89q0,.63,0,1.26a21.31,21.31,0,0,1-16,19.86C82.43,99.13,81.36,99.33,80.3,99.57ZM23.81,47.85V59.7c0,4.6,0,9.2,0,13.8,0,1,.3,1.27,1.25,1.2a21.36,21.36,0,0,1,3.2,0c.87,0,1.15-.19,1.14-1.1-.05-5.15,0-10.3-.05-15.45,0-.93.3-1.12,1.15-1.11,3.85,0,7.71,0,11.56,0a19.28,19.28,0,0,0,3.87-.26c4.4-.89,7.84-3,9.43-7.43a30.42,30.42,0,0,0,1.11-16.84C54.79,24.71,50.09,21.12,42,21.06c-5.63,0-11.27,0-16.9,0-1.28,0-1.28,0-1.28,1.23Zm46-9.64a6.34,6.34,0,0,1,0-.91c.1-.75-.16-1-1-1a29.19,29.19,0,0,1-3.5,0c-.78,0-1,.24-1,1,0,4,0,8,0,12,0,8.1,0,16.2,0,24.3,0,.84.15,1.22,1.1,1.14a21.38,21.38,0,0,1,3.3,0c.92.07,1.19-.2,1.19-1.16,0-8.81,0-17.62,0-26.44a6.45,6.45,0,0,1,.26-2.39c.85-2.17,2.67-3.12,4.73-3.63a14.07,14.07,0,0,1,7.11.31c.62.17.91.08,1-.62a32.69,32.69,0,0,1,1-3.65c.21-.65,0-.77-.58-.86C78.79,35.48,74.19,35.44,69.83,38.21Z"/><path class="cls-2" d="M23.81,47.85V22.29c0-1.23,0-1.23,1.28-1.23,5.63,0,11.27,0,16.9,0,8.1.06,12.8,3.65,14.45,11.46a30.42,30.42,0,0,1-1.11,16.84c-1.59,4.42-5,6.54-9.43,7.43a19.28,19.28,0,0,1-3.87.26c-3.85,0-7.71,0-11.56,0-.85,0-1.16.18-1.15,1.11.05,5.15,0,10.3.05,15.45,0,.91-.27,1.15-1.14,1.1a21.36,21.36,0,0,0-3.2,0c-1,.07-1.26-.18-1.25-1.2.07-4.6,0-9.2,0-13.8ZM29.34,39c0,3.85,0,7.7,0,11.56,0,.9.17,1.21,1.15,1.19,3.07-.07,6.15,0,9.23,0a21.08,21.08,0,0,0,4.35-.18c3.05-.65,5.51-2.08,6.49-5.28a25.9,25.9,0,0,0,.39-13.14,7.89,7.89,0,0,0-7.28-6.5c-4.42-.39-8.86-.06-13.29-.18-.8,0-1.05.17-1,1C29.37,31.28,29.34,35.14,29.34,39Z"/><path class="cls-2" d="M69.83,38.21c4.36-2.77,9-2.73,13.65-2,.55.09.79.21.58.86a32.69,32.69,0,0,0-1,3.65c-.14.7-.43.79-1,.62a14.07,14.07,0,0,0-7.11-.31c-2.06.51-3.88,1.46-4.73,3.63a6.45,6.45,0,0,0-.26,2.39c0,8.82,0,17.63,0,26.44,0,1-.27,1.23-1.19,1.16a21.38,21.38,0,0,0-3.3,0c-1,.08-1.1-.3-1.1-1.14,0-8.1,0-16.2,0-24.3,0-4,0-8,0-12,0-.75.19-1,1-1a29.19,29.19,0,0,0,3.5,0c.79,0,1,.24,1,1A6.34,6.34,0,0,0,69.83,38.21Z"/><path class="cls-1" d="M29.34,39c0-3.85,0-7.71,0-11.56,0-.83.24-1,1-1,4.43.12,8.87-.21,13.29.18a7.89,7.89,0,0,1,7.28,6.5,25.9,25.9,0,0,1-.39,13.14c-1,3.2-3.44,4.63-6.49,5.28a21.08,21.08,0,0,1-4.35.18c-3.08,0-6.16,0-9.23,0-1,0-1.16-.29-1.15-1.19C29.37,46.69,29.34,42.84,29.34,39Z"/></g></g></svg>