<svg xmlns="http://www.w3.org/2000/svg" viewBox="0 0 102.99 102.99"><defs><style>.cls-1{fill:#393680;}.cls-2{fill:#809cc8;}</style></defs><title>ps</title><g id="Capa_2" data-name="Capa 2"><g id="Intro_Escritorio" data-name="Intro Escritorio"><path class="cls-1" d="M83.06,103H19.51c-.24-.38-.66-.26-1-.32C9.08,100.75,3.13,95.14.59,85.87A10.83,10.83,0,0,0,0,83.28V19.72a6.59,6.59,0,0,0,.46-2.11A22.12,22.12,0,0,1,22.27,0Q51.48,0,80.69,0A21.15,21.15,0,0,1,91.81,3C99.2,7.4,102.93,14,103,22.59c.05,19.28,0,38.55,0,57.82,0,.57,0,1.14,0,1.71a22.08,22.08,0,0,1-16.49,20.11C85.32,102.51,84.19,102.73,83.06,103ZM18.36,49.38V61.15c0,5,0,10.05,0,15.08,0,.75.15,1.08,1,1a31.23,31.23,0,0,1,3.62,0c.91.06,1.18-.22,1.17-1.15,0-5.33,0-10.66,0-16,0-.9.26-1.14,1.13-1.12,2.62,0,5.23,0,7.84,0s5.52.24,8.23-.29c4.51-.88,8.06-3.1,9.68-7.64a31.88,31.88,0,0,0,.84-18.79A13.39,13.39,0,0,0,46.13,24c-2.78-1.82-5.92-2.24-9.14-2.25-5.83,0-11.66,0-17.49,0-.95,0-1.16.29-1.16,1.19C18.37,31.75,18.36,40.57,18.36,49.38ZM61.55,67c-1,0-1.69.13-2.4.12s-.79.17-.72.82a10.42,10.42,0,0,0,5.38,8.16c5,2.88,10.31,3,15.65,1.32A10.12,10.12,0,0,0,87,68.68a10.84,10.84,0,0,0-5.1-11.13c-2.36-1.53-5.06-2.27-7.67-3.2a39.69,39.69,0,0,1-6.36-2.73,4.68,4.68,0,0,1-2.74-4.24,4.49,4.49,0,0,1,2.74-4.33A12.14,12.14,0,0,1,79,43.36c.87.46,1.08.32,1.32-.51a18.56,18.56,0,0,1,1.08-2.92c.41-.86.13-1.25-.65-1.6A20,20,0,0,0,68.87,37a10.81,10.81,0,0,0-7.54,4.5,9.73,9.73,0,0,0-1.59,8.93c.88,2.83,2.94,4.67,5.36,6.14,2.61,1.57,5.6,2.19,8.43,3.2a20.76,20.76,0,0,1,5.38,2.66c3.1,2.26,3.42,7.58-.79,9.54A11.92,11.92,0,0,1,68,72.08a6.77,6.77,0,0,1-3.61-3.32c-.28-.58,0-1.51-.74-1.73a7,7,0,0,0-2.1,0Z"/><path class="cls-2" d="M18.36,49.38c0-8.81,0-17.63,0-26.44,0-.9.21-1.2,1.16-1.19,5.83.05,11.66,0,17.49,0,3.22,0,6.36.43,9.14,2.25a13.39,13.39,0,0,1,5.67,8.26A31.88,31.88,0,0,1,51,51.08c-1.62,4.54-5.17,6.76-9.68,7.64-2.71.53-5.48.27-8.23.29s-5.22,0-7.84,0c-.87,0-1.14.22-1.13,1.12,0,5.33,0,10.66,0,16,0,.93-.26,1.21-1.17,1.15a31.23,31.23,0,0,0-3.62,0c-.84,0-1-.28-1-1,0-5,0-10,0-15.08Zm5.74-9c0,4,0,8.11,0,12.16,0,.8.23,1,1,1,3.89,0,7.77,0,11.66,0a12.28,12.28,0,0,0,2.5-.19c3.37-.69,5.92-2.33,6.9-5.89a27.07,27.07,0,0,0,.22-13.32,8.05,8.05,0,0,0-7.56-6.56c-4.68-.4-9.37-.08-14.06-.18-.77,0-.66.47-.66.93Z"/><path class="cls-2" d="M61.55,67h0a7,7,0,0,1,2.1,0c.73.22.46,1.15.74,1.73A6.77,6.77,0,0,0,68,72.08a11.92,11.92,0,0,0,10.11-.16c4.21-2,3.89-7.28.79-9.54a20.76,20.76,0,0,0-5.38-2.66c-2.83-1-5.82-1.63-8.43-3.2-2.42-1.47-4.48-3.31-5.36-6.14a9.73,9.73,0,0,1,1.59-8.93A10.81,10.81,0,0,1,68.87,37a20,20,0,0,1,11.88,1.38c.78.35,1.06.74.65,1.6a18.56,18.56,0,0,0-1.08,2.92c-.24.83-.45,1-1.32.51a12.14,12.14,0,0,0-11.11-.31,4.49,4.49,0,0,0-2.74,4.33,4.68,4.68,0,0,0,2.74,4.24,39.69,39.69,0,0,0,6.36,2.73c2.61.93,5.31,1.67,7.67,3.2A10.84,10.84,0,0,1,87,68.68a10.12,10.12,0,0,1-7.56,8.77C74.12,79.12,68.78,79,63.81,76.13A10.42,10.42,0,0,1,58.43,68c-.07-.65.11-.83.72-.82S60.56,67.08,61.55,67Z"/><path class="cls-1" d="M24.1,40.34V28.27c0-.46-.11-.94.66-.93,4.69.1,9.38-.22,14.06.18a8.05,8.05,0,0,1,7.56,6.56,27.07,27.07,0,0,1-.22,13.32c-1,3.56-3.53,5.2-6.9,5.89a12.28,12.28,0,0,1-2.5.19c-3.89,0-7.77,0-11.66,0-.79,0-1-.21-1-1C24.12,48.45,24.1,44.39,24.1,40.34Z"/></g></g></svg>