<svg xmlns="http://www.w3.org/2000/svg" viewBox="0 0 346.11 348.02"><defs><style>.cls-1{fill:#b00f41;}.cls-2{fill:#c29a24;}.cls-3{fill:#cbcb30;}.cls-4{fill:#552a7c;}.cls-5{fill:#fefdfd;}</style></defs><title>red_1</title><g id="Capa_2" data-name="Capa 2"><g id="Introduccion"><path class="cls-1" d="M0,322V26c.08-.49.16-1,.23-1.48a27,27,0,0,1,7.85-16A29.21,29.21,0,0,1,29.49,0Q173.07,0,316.65,0c.55,0,1.1,0,1.66,0A27.85,27.85,0,0,1,331.6,3.69c8.67,4.91,13,12.72,14.51,22.35v296.9a31.43,31.43,0,0,0-.93,3.42c-3.16,11.38-10.46,18.37-21.92,21.09a10.31,10.31,0,0,0-2.7.57H25.31c-.14-.34-.46-.23-.71-.26a28.46,28.46,0,0,1-17.47-9.2C2.76,334,.66,328.26,0,322Zm264.68,24.09a5.51,5.51,0,0,1,.71.06c1.26.26,1.73-.35,1.9-1.53.52-3.53,1.5-7,1.84-10.54.06-.55.13-1.11.21-1.87l1,1.22c2,2.45,4.77,2.59,6.92.34a7.24,7.24,0,0,0,1.74-3.55c.36-1.55-.11-3.1.34-4.68A87.5,87.5,0,0,1,287,307.84c2.26-4.2,4-8.54,3.48-13.4-.65-6.56-3.6-13-11.54-14.54a136.57,136.57,0,0,0,3.25-28.13,187.25,187.25,0,0,0-2.55-34A202.94,202.94,0,0,0,268,174.66c-1.25-3.1-2.48-6.22-3.7-9.33a22.26,22.26,0,0,0-5.1-7.75,39.06,39.06,0,0,0-6.58-5.35A91.63,91.63,0,0,0,236.91,144c-5.23-2.08-10.47-4.12-15.88-5.73a270,270,0,0,0-31.47-7.47,263.77,263.77,0,0,0-31.32-3.67,117.51,117.51,0,0,0-18.19.25,167.17,167.17,0,0,0-25.49,5,165.93,165.93,0,0,0-31.11,11.75A161,161,0,0,0,68.37,153,132.83,132.83,0,0,0,22.26,206.6a152.19,152.19,0,0,0-14.4,52.24c-.16,1.63-.72,3.22-.54,4.89,0,.27-.12.61.13.78s.58-.11.83-.27c.44-.27.85-.58,1.28-.86,4.77-3.14,9.38-6.52,14.33-9.37a40.69,40.69,0,0,1,15.37-5.13c-.35,1.91-1.34,3.6-1.86,5.46a188,188,0,0,0-7.28,47.47,146.89,146.89,0,0,0,.6,15,111.22,111.22,0,0,0,5.1,25.41c1.38,4.22,1.4,4.21,5.86,3.88.55,0,1.1.06,1.65.06H263C263.58,346.14,264.13,346.1,264.68,346.08ZM60.18,94.64h0c3.39,0,6.78,0,10.16,0,2.25,0,3.09-.75,3.52-2.87.28-1.39.49-2.79.8-4.17,1.32-5.78,3.93-11,6.62-16.25,2.17-4.23,4.16-8.53,5-13.29,1.38-7.86-.47-14.65-6.23-20.28-3.36-3.28-7.5-4.92-12-5.89a34.89,34.89,0,0,0-20.54,1.54c-5.64,2.24-9.95,6-12.12,11.82a20.37,20.37,0,0,0-1.26,6.94,35.67,35.67,0,0,0,4.56,17.72,65.22,65.22,0,0,1,6.23,14.64c.65,2.47,1.32,4.94,2,7.41.61,2.23,1.2,2.69,3.49,2.7C53.63,94.65,56.91,94.64,60.18,94.64Zm0,22.43h6.14c1.78,0,3.55,0,5.32,0,1.49,0,2-.53,2.07-2,.06-1,0-2.05,0-3.07-.06-2.09-.52-2.53-2.63-2.6h-.59q-9.91,0-19.85,0c-.62,0-1.26,0-1.88,0A1.68,1.68,0,0,0,47,111.2c0,1.11-.08,2.21-.06,3.31,0,2.11.49,2.55,2.62,2.56C53.11,117.08,56.66,117.07,60.2,117.07Zm.06-11.3h1.3c3.39,0,6.77,0,10.16,0,1.47,0,1.88-.41,2-1.87.06-.71,0-1.42,0-2.13,0-3.16-.3-3.47-3.41-3.47q-9.85,0-19.72,0c-.55,0-1.1,0-1.65,0-1.46.13-1.88.51-2,2a27.93,27.93,0,0,0,0,3.3c.08,1.82.47,2.17,2.31,2.17Zm18.27-78a3.14,3.14,0,0,0,1.73,2.89,2.7,2.7,0,0,0,3.09-.38,7.81,7.81,0,0,0,2-2.09c1.73-2.81,3.84-5.39,5.2-8.42A3,3,0,0,0,89.48,16a3.07,3.07,0,0,0-3.92.3,11.81,11.81,0,0,0-1.67,1.94c-1.61,2.48-3.16,5-4.72,7.5A3.57,3.57,0,0,0,78.53,27.74Zm-36.42.35A4.45,4.45,0,0,0,41.67,26,83.38,83.38,0,0,0,35.5,16.8,2.84,2.84,0,0,0,32,15.63a3.14,3.14,0,0,0-2.1,2.86,4.61,4.61,0,0,0,.84,2.66c1.61,2.43,3.2,4.87,4.82,7.28a6.9,6.9,0,0,0,1.73,1.92,2.93,2.93,0,0,0,3.22.24A2.83,2.83,0,0,0,42.11,28.09ZM15.93,70.36l4.71-.78c1.94-.33,3.89-.61,5.81-1,1.65-.33,3.09-1.89,3.1-3.17A3.64,3.64,0,0,0,27,62.34a4.81,4.81,0,0,0-2,0c-1.52.21-3,.4-4.55.68A30.13,30.13,0,0,0,14,64.4c-2.15.92-2.52,3-.86,4.68A5.14,5.14,0,0,0,15.93,70.36Zm79-8.12a3.62,3.62,0,0,0-3.6,2.33c-.4,1.23.17,2.47,1.52,3.41a6.06,6.06,0,0,0,2.54.87c2.76.43,5.52.86,8.28,1.33a5,5,0,0,0,2.55-.26,3.32,3.32,0,0,0,2.38-3.06,3,3,0,0,0-2.5-2.79C102.33,63.18,98.49,62.79,94.92,62.24ZM25.08,46.61a3.19,3.19,0,0,0,3.33-2.24A2.86,2.86,0,0,0,27,41a12.41,12.41,0,0,0-1.86-1c-2.37-1-4.76-2-7.14-3.07-.55-.23-1.09-.45-1.64-.66a3,3,0,0,0-3.44.85,2.87,2.87,0,0,0-.4,3.3,4.25,4.25,0,0,0,2.4,2.16c2.49,1.15,5,2.27,7.54,3.33A9.41,9.41,0,0,0,25.08,46.61ZM108.53,39c0-.12,0-.28,0-.44A3.16,3.16,0,0,0,104,36.29,81.29,81.29,0,0,0,93.75,41a2.74,2.74,0,0,0-1.38,3.68A3.11,3.11,0,0,0,96,46.53a57.14,57.14,0,0,0,10.89-4.73A3.43,3.43,0,0,0,108.53,39ZM63.41,17.83h0c0-2,0-3.93,0-5.89a3,3,0,0,0-2.35-2.89,3.15,3.15,0,0,0-3.35,1.87,4.52,4.52,0,0,0-.41,1.95c0,3.14,0,6.29,0,9.43a5.47,5.47,0,0,0,.23,1.51,3.3,3.3,0,0,0,3.36,2.42A3.05,3.05,0,0,0,63.41,23C63.44,21.29,63.41,19.56,63.41,17.83Z"/><path d="M39.26,248.88A40.69,40.69,0,0,0,23.89,254c-4.95,2.85-9.56,6.23-14.33,9.37-.43.28-.84.59-1.28.86-.25.16-.51.49-.83.27s-.1-.51-.13-.78c-.18-1.67.38-3.26.54-4.89a152.19,152.19,0,0,1,14.4-52.24A133.09,133.09,0,0,1,68.37,153a161,161,0,0,1,15.08-8.83,165.93,165.93,0,0,1,31.11-11.75,167.17,167.17,0,0,1,25.49-5,117.51,117.51,0,0,1,18.19-.25,263.77,263.77,0,0,1,31.32,3.67A270,270,0,0,1,221,138.28c5.41,1.61,10.65,3.65,15.88,5.73a91.63,91.63,0,0,1,15.66,8.22,39.06,39.06,0,0,1,6.58,5.35,22.26,22.26,0,0,1,5.1,7.75c1.22,3.11,2.45,6.23,3.7,9.33a202.94,202.94,0,0,1,11.7,43.09,187.25,187.25,0,0,1,2.55,34A136.57,136.57,0,0,1,279,279.9a8.76,8.76,0,0,0-.69,2.25c-.25.74-.53,1.48-.75,2.23q-2.14,7.11-4.25,14.23c-.39,1.31-1,2.46-2.41,2.82-2.38.6-4.32-.33-5-3.43a45.29,45.29,0,0,0-7.83-17.92c-1.79-2.43-3.71-4.77-5.66-7.09-2.73-3.25-5.14-6.78-7.89-10a50.56,50.56,0,0,1-7.58-13c-5.34-12.37-10.52-24.8-16.06-37.08-.39-.89-.85-1.28-1.89-1q-13.87,3.24-27.78,6.43-15.27,3.53-30.55,7c-10.64,2.45-21.31,4.81-31.91,7.41a331.81,331.81,0,0,1-34.94,6.73C85.38,240.62,77,242,68.62,243.37c-8.92,1.5-17.84,3-26.68,4.88A7.3,7.3,0,0,0,39.26,248.88Zm207.31-92.95c-.11.93-.21,1.87-.34,2.8a76,76,0,0,1-11,30.47A77.15,77.15,0,0,1,222.32,205a3.65,3.65,0,0,0-1.34,3.92c.2.65.51.92,1.21.52a17.44,17.44,0,0,0,4.17-3.26,86.66,86.66,0,0,0,12.1-17.68,73.68,73.68,0,0,0,7-21A50.05,50.05,0,0,0,246.57,155.93Z"/><path class="cls-2" d="M41.94,248.25c8.84-1.91,17.76-3.38,26.68-4.88,8.37-1.4,16.76-2.75,25.18-3.88a331.81,331.81,0,0,0,34.94-6.73c10.6-2.6,21.27-5,31.91-7.41q15.27-3.51,30.55-7,13.91-3.2,27.78-6.43c1-.25,1.5.14,1.89,1,5.54,12.28,10.72,24.71,16.06,37.08a50.56,50.56,0,0,0,7.58,13c2.75,3.24,5.16,6.77,7.89,10,1.95,2.32,3.87,4.66,5.66,7.09A45.29,45.29,0,0,1,265.89,298c.64,3.1,2.58,4,5,3.43,1.44-.36,2-1.51,2.41-2.82q2.12-7.11,4.25-14.23c.22-.75.5-1.49.75-2.23a10.62,10.62,0,0,1,8.43,5.9,17.75,17.75,0,0,1,.13,17,120.75,120.75,0,0,0-5.4,12.15c-1.47,4-3.05,7.94-3,12.32a5.4,5.4,0,0,1-1.58,3.61,3.43,3.43,0,0,1-5.45,0,5.85,5.85,0,0,1-1.45-2.8,26,26,0,0,1-.14-6.94,13.65,13.65,0,0,0-.89-5.78,1.67,1.67,0,0,0-1-1.14v1.29a127.17,127.17,0,0,1-.75,14.86,113.34,113.34,0,0,1-2.45,13.46c-.55,0-1.1.06-1.65.06H43.33c-.55,0-1.1,0-1.65-.06-1.28-3.62-2.74-7.19-3.81-10.88a117.67,117.67,0,0,1-4.23-29.74,159.71,159.71,0,0,1,1.67-27.81A137.25,137.25,0,0,1,38.53,261C39.7,256.77,41,252.56,41.94,248.25Zm156,62.11c-.22,3,1.2,6.07,3.36,8.85a12,12,0,0,0,12.87,4.64c4.92-1.1,7.37-4.94,8.82-9.3a14.82,14.82,0,0,0-1.89-13.07c-3.29-5.1-9.36-6.3-15.12-4.18C200.87,299.18,197.84,304,197.94,310.36Zm-100.66-.2a18.26,18.26,0,0,0-.28-3.31A11.86,11.86,0,0,0,82.65,296.6c-6.49,1.23-10.35,5.7-10.87,12.57a14.65,14.65,0,0,0,8.56,14.16c4.55,1.88,10.34,1,12.92-2.53A19.56,19.56,0,0,0,97.28,310.16ZM51.77,290.38a6.35,6.35,0,0,0,3.7-1.82c2.84-2.78,6.27-3.29,10-2.61,6.08,1.11,12,2.78,18.24,3.29A47.38,47.38,0,0,0,103.61,287a12.32,12.32,0,0,0,4.5-2.54,3.18,3.18,0,0,0-.33-5.18,5.51,5.51,0,0,0-2.59-1.08L95.33,277l-4.72-.53c.69.8,1.63,1.15,2.28,2.13a6.69,6.69,0,0,0-3.41.65c.24.45.8.34,1,.8a3.7,3.7,0,0,1-.62.26,42.77,42.77,0,0,1-14.78,1.06c-2.58-.24-5.14-.79-7.73-1C60.79,279.84,54.92,285.51,51.77,290.38ZM200,280.3a10.61,10.61,0,0,0-1.16.07c-4.26.74-8.57,1.19-12.82,2a7,7,0,0,0-3.06,1.15,3.29,3.29,0,0,0-.14,5.52,12,12,0,0,0,3.77,1.91c7.57,2.68,15.3,2.5,23.1,1.32a147.31,147.31,0,0,0,14.35-3.4c4.38-1.12,8.43-1,11.91,2.34a3.8,3.8,0,0,0,1,.65,3.38,3.38,0,0,0,2.14.47c-.59-1.41-1.79-2.18-2.7-3.18-4.48-4.89-9.87-7.23-16.54-5.48a44,44,0,0,1-17.7.63,4.93,4.93,0,0,1-2.05-.55c.24-.44.83-.33.91-.88-1-.61-2.18-.32-3.35-.54A12.1,12.1,0,0,1,200,280.3Zm-22.84,23.09a3.33,3.33,0,0,0-.4-.57,11.27,11.27,0,0,1-3.7-6.38,51,51,0,0,1-.57-5.5c0-.3.09-.69-.27-.83s-.67.13-.94.35a3,3,0,0,0-.89,1.5,12.47,12.47,0,0,0,.43,8.2C171.7,302.33,174.43,304.29,177.18,303.39Zm-53.09-13.93a2.57,2.57,0,0,0-1,1.3c-.91,1.82-1.85,3.64-2.71,5.5-1.56,3.38-3.52,6.27-7.61,6.8-.2,0-.44.09-.41.32a.8.8,0,0,0,.31.46,2.17,2.17,0,0,0,1.69.38,8.32,8.32,0,0,0,2.9-.91C121.53,301,124.82,294.38,124.09,289.46ZM165.66,333c-2.56-1.62-4.44-1.76-7.42-.56a7.42,7.42,0,0,0-2,1.05c-.21.18-.46.4-.3.69s.48.18.73.09a14.73,14.73,0,0,1,2.88-.51C161.59,333.51,163.62,333.48,165.66,333Zm-29.33.73a9.75,9.75,0,0,0-4.47.83c-.28.12-.61.31-.5.69s.4.19.61.18c2.39,0,4.8-.18,7.09.75a.56.56,0,0,0,.66-.12c.22-.26,0-.51-.12-.75A3,3,0,0,0,136.33,333.75Z"/><path class="cls-3" d="M60.18,94.64c-3.27,0-6.55,0-9.82,0-2.29,0-2.88-.47-3.49-2.7-.67-2.47-1.34-4.94-2-7.41a65.22,65.22,0,0,0-6.23-14.64,35.67,35.67,0,0,1-4.56-17.72,20.37,20.37,0,0,1,1.26-6.94c2.17-5.85,6.48-9.58,12.12-11.82A34.89,34.89,0,0,1,68,31.87c4.53,1,8.67,2.61,12,5.89C85.8,43.39,87.65,50.18,86.27,58c-.83,4.76-2.82,9.06-5,13.29C78.59,76.56,76,81.8,74.66,87.58c-.31,1.38-.52,2.78-.8,4.17-.43,2.12-1.27,2.84-3.52,2.87-3.38,0-6.77,0-10.16,0ZM76.1,52.42c.48-.88,1-1.74,1.44-2.64a14.07,14.07,0,0,0,.88-2.31c1.27-4.61-.85-8.16-5.48-9.31a20.4,20.4,0,0,0-6.23-.41,4.56,4.56,0,0,0-3.14,1.19c.43.22.78.39,1.12.59,3.28,1.88,6.56,3.78,9,6.75C75.18,48,76.34,49.93,76.1,52.42Z"/><path class="cls-4" d="M41.94,248.25c-.92,4.31-2.24,8.52-3.41,12.76a137.25,137.25,0,0,0-3.22,16.64,159.71,159.71,0,0,0-1.67,27.81,117.67,117.67,0,0,0,4.23,29.74c1.07,3.69,2.53,7.26,3.81,10.88-4.46.33-4.48.34-5.86-3.88a111.22,111.22,0,0,1-5.1-25.41,146.89,146.89,0,0,1-.6-15,188,188,0,0,1,7.28-47.47c.52-1.86,1.51-3.55,1.86-5.46A7.3,7.3,0,0,1,41.94,248.25Z"/><path class="cls-3" d="M60.2,117.07c-3.54,0-7.09,0-10.63,0-2.13,0-2.57-.45-2.62-2.56,0-1.1,0-2.2.06-3.31a1.68,1.68,0,0,1,1.79-1.78c.62,0,1.26,0,1.88,0q9.93,0,19.85,0h.59c2.11.07,2.57.51,2.63,2.6,0,1,0,2,0,3.07-.09,1.48-.58,2-2.07,2-1.77.06-3.54,0-5.32,0Z"/><path class="cls-3" d="M60.26,105.77h-11c-1.84,0-2.23-.35-2.31-2.17a27.93,27.93,0,0,1,0-3.3c.1-1.45.52-1.83,2-2,.55,0,1.1,0,1.65,0q9.87,0,19.72,0c3.11,0,3.41.31,3.41,3.47,0,.71,0,1.42,0,2.13-.12,1.46-.53,1.86-2,1.87-3.39,0-6.77,0-10.16,0Z"/><path class="cls-4" d="M264.68,346.08a113.34,113.34,0,0,0,2.45-13.46,127.17,127.17,0,0,0,.75-14.86v-1.29a1.67,1.67,0,0,1,1,1.14,13.65,13.65,0,0,1,.89,5.78,26,26,0,0,0,.14,6.94,5.85,5.85,0,0,0,1.45,2.8,3.43,3.43,0,0,0,5.45,0,5.4,5.4,0,0,0,1.58-3.61c0-4.38,1.54-8.33,3-12.32a120.75,120.75,0,0,1,5.4-12.15,17.75,17.75,0,0,0-.13-17,10.62,10.62,0,0,0-8.43-5.9,8.76,8.76,0,0,1,.69-2.25c7.94,1.56,10.89,8,11.54,14.54.48,4.86-1.22,9.2-3.48,13.4a87.5,87.5,0,0,0-7.72,17.69c-.45,1.58,0,3.13-.34,4.68a7.24,7.24,0,0,1-1.74,3.55c-2.15,2.25-5,2.11-6.92-.34l-1-1.22c-.08.76-.15,1.32-.21,1.87-.34,3.56-1.32,7-1.84,10.54-.17,1.18-.64,1.79-1.9,1.53A5.51,5.51,0,0,0,264.68,346.08Z"/><path class="cls-3" d="M78.53,27.74a3.57,3.57,0,0,1,.64-2c1.56-2.5,3.11-5,4.72-7.5a11.81,11.81,0,0,1,1.67-1.94,3.07,3.07,0,0,1,3.92-.3,3,3,0,0,1,1.11,3.74c-1.36,3-3.47,5.61-5.2,8.42a7.81,7.81,0,0,1-2,2.09,2.7,2.7,0,0,1-3.09.38A3.14,3.14,0,0,1,78.53,27.74Z"/><path class="cls-3" d="M42.11,28.09a2.83,2.83,0,0,1-1.61,2.5,2.93,2.93,0,0,1-3.22-.24,6.9,6.9,0,0,1-1.73-1.92c-1.62-2.41-3.21-4.85-4.82-7.28a4.61,4.61,0,0,1-.84-2.66A3.14,3.14,0,0,1,32,15.63,2.84,2.84,0,0,1,35.5,16.8,83.38,83.38,0,0,1,41.67,26,4.45,4.45,0,0,1,42.11,28.09Z"/><path class="cls-3" d="M15.93,70.36a5.14,5.14,0,0,1-2.82-1.28c-1.66-1.65-1.29-3.76.86-4.68A30.13,30.13,0,0,1,20.41,63c1.51-.28,3-.47,4.55-.68a4.81,4.81,0,0,1,2,0,3.64,3.64,0,0,1,2.59,3.06c0,1.28-1.45,2.84-3.1,3.17-1.92.4-3.87.68-5.81,1Z"/><path class="cls-3" d="M94.92,62.24c3.57.55,7.41.94,11.17,1.83a3,3,0,0,1,2.5,2.79,3.32,3.32,0,0,1-2.38,3.06,5,5,0,0,1-2.55.26c-2.76-.47-5.52-.9-8.28-1.33A6.06,6.06,0,0,1,92.84,68c-1.35-.94-1.92-2.18-1.52-3.41A3.62,3.62,0,0,1,94.92,62.24Z"/><path class="cls-3" d="M25.08,46.61a9.41,9.41,0,0,1-2.62-.76c-2.53-1.06-5.05-2.18-7.54-3.33a4.25,4.25,0,0,1-2.4-2.16,2.87,2.87,0,0,1,.4-3.3,3,3,0,0,1,3.44-.85c.55.21,1.09.43,1.64.66,2.38,1,4.77,2,7.14,3.07A12.41,12.41,0,0,1,27,41a2.86,2.86,0,0,1,1.41,3.42A3.19,3.19,0,0,1,25.08,46.61Z"/><path class="cls-3" d="M108.53,39a3.43,3.43,0,0,1-1.61,2.78A57.14,57.14,0,0,1,96,46.53a3.11,3.11,0,0,1-3.66-1.9A2.74,2.74,0,0,1,93.75,41,81.29,81.29,0,0,1,104,36.29a3.16,3.16,0,0,1,4.46,2.29C108.52,38.74,108.52,38.9,108.53,39Z"/><path class="cls-3" d="M63.41,17.83c0,1.73,0,3.46,0,5.19a3.05,3.05,0,0,1-2.54,3.21,3.3,3.3,0,0,1-3.36-2.42,5.47,5.47,0,0,1-.23-1.51c0-3.14,0-6.29,0-9.43a4.52,4.52,0,0,1,.41-1.95,3.15,3.15,0,0,1,3.35-1.87,3,3,0,0,1,2.35,2.89c.07,2,0,3.93,0,5.89Z"/><path class="cls-4" d="M246.57,155.93a50.05,50.05,0,0,1-1.06,11.58,73.68,73.68,0,0,1-7,21,86.66,86.66,0,0,1-12.1,17.68,17.44,17.44,0,0,1-4.17,3.26c-.7.4-1,.13-1.21-.52a3.65,3.65,0,0,1,1.34-3.92A77.15,77.15,0,0,0,235.2,189.2a76,76,0,0,0,11-30.47C246.36,157.8,246.46,156.86,246.57,155.93Z"/><path d="M197.94,310.36c-.1-6.33,2.93-11.18,8-13.06,5.76-2.12,11.83-.92,15.12,4.18A14.82,14.82,0,0,1,223,314.55c-1.45,4.36-3.9,8.2-8.82,9.3a12,12,0,0,1-12.87-4.64C199.14,316.43,197.72,313.37,197.94,310.36Z"/><path d="M97.28,310.16a19.56,19.56,0,0,1-4,10.64c-2.58,3.49-8.37,4.41-12.92,2.53a14.65,14.65,0,0,1-8.56-14.16c.52-6.87,4.38-11.34,10.87-12.57A11.86,11.86,0,0,1,97,306.85,18.26,18.26,0,0,1,97.28,310.16Z"/><path class="cls-4" d="M51.77,290.38c3.15-4.87,9-10.54,15.56-10,2.59.22,5.15.77,7.73,1a42.77,42.77,0,0,0,14.78-1.06,3.7,3.7,0,0,0,.62-.26c-.18-.46-.74-.35-1-.8a6.69,6.69,0,0,1,3.41-.65c-.65-1-1.59-1.33-2.28-2.13l4.72.53,9.86,1.17a5.51,5.51,0,0,1,2.59,1.08,3.18,3.18,0,0,1,.33,5.18,12.32,12.32,0,0,1-4.5,2.54,47.38,47.38,0,0,1-19.92,2.23c-6.19-.51-12.16-2.18-18.24-3.29-3.71-.68-7.14-.17-10,2.61A6.35,6.35,0,0,1,51.77,290.38Z"/><path class="cls-4" d="M200,280.3a12.1,12.1,0,0,0-2.36,2.07c1.17.22,2.36-.07,3.35.54-.08.55-.67.44-.91.88a4.93,4.93,0,0,0,2.05.55,44,44,0,0,0,17.7-.63c6.67-1.75,12.06.59,16.54,5.48.91,1,2.11,1.77,2.7,3.18a3.38,3.38,0,0,1-2.14-.47,3.8,3.8,0,0,1-1-.65c-3.48-3.3-7.53-3.46-11.91-2.34a147.31,147.31,0,0,1-14.35,3.4c-7.8,1.18-15.53,1.36-23.1-1.32a12,12,0,0,1-3.77-1.91,3.29,3.29,0,0,1,.14-5.52,7,7,0,0,1,3.06-1.15c4.25-.85,8.56-1.3,12.82-2A10.61,10.61,0,0,1,200,280.3Z"/><path class="cls-4" d="M177.18,303.39c-2.75.9-5.48-1.06-6.34-3.23a12.47,12.47,0,0,1-.43-8.2,3,3,0,0,1,.89-1.5c.27-.22.55-.51.94-.35s.24.53.27.83a51,51,0,0,0,.57,5.5,11.27,11.27,0,0,0,3.7,6.38A3.33,3.33,0,0,1,177.18,303.39Z"/><path class="cls-4" d="M124.09,289.46c.73,4.92-2.56,11.56-6.79,13.85a8.32,8.32,0,0,1-2.9.91,2.17,2.17,0,0,1-1.69-.38.8.8,0,0,1-.31-.46c0-.23.21-.29.41-.32,4.09-.53,6-3.42,7.61-6.8.86-1.86,1.8-3.68,2.71-5.5A2.57,2.57,0,0,1,124.09,289.46Z"/><path class="cls-4" d="M165.66,333c-2,.46-4.07.49-6.07.76a14.73,14.73,0,0,0-2.88.51c-.25.09-.57.23-.73-.09s.09-.51.3-.69a7.42,7.42,0,0,1,2-1.05C161.22,331.26,163.1,331.4,165.66,333Z"/><path class="cls-4" d="M136.33,333.75a3,3,0,0,1,3.27,1.58c.12.24.34.49.12.75a.56.56,0,0,1-.66.12c-2.29-.93-4.7-.79-7.09-.75-.21,0-.53.11-.61-.18s.22-.57.5-.69A9.75,9.75,0,0,1,136.33,333.75Z"/><path class="cls-5" d="M76.1,52.42c.24-2.49-.92-4.38-2.39-6.14-2.46-3-5.74-4.87-9-6.75-.34-.2-.69-.37-1.12-.59a4.56,4.56,0,0,1,3.14-1.19,20.4,20.4,0,0,1,6.23.41c4.63,1.15,6.75,4.7,5.48,9.31a14.07,14.07,0,0,1-.88,2.31C77.11,50.68,76.58,51.54,76.1,52.42Z"/></g></g></svg>