<svg xmlns="http://www.w3.org/2000/svg" viewBox="0 0 78.85 73.96"><defs><style>.cls-1{fill:#ba582d;}.cls-2{isolation:isolate;}.cls-3{fill:#2b6e91;}.cls-4{fill:#194055;}.cls-5{fill:#1f4f68;}.cls-6{fill:#cd9501;}.cls-7{fill:#010202;}.cls-8{fill:#a28909;}.cls-9{fill:#755707;}.cls-10{fill:#808010;opacity:0.56;}.cls-11{fill:#811d2b;}.cls-12{fill:#9d2335;}</style></defs><title>trid</title><g id="Capa_2" data-name="Capa 2"><g id="Modelado_3D_Escritorio" data-name="Modelado 3D Escritorio"><rect class="cls-1" x="11.2" y="31.87" width="16.87" height="1.58" rx="0.65" ry="0.65"/><rect class="cls-1" x="3.43" y="35.62" width="19.2" height="1.58" rx="0.65" ry="0.65"/><rect class="cls-1" x="11.94" y="38.58" width="16.12" height="1.58" rx="0.6" ry="0.6"/><rect class="cls-1" x="10.31" y="41.54" width="6.7" height="1.58" rx="0.39" ry="0.39"/><rect class="cls-1" y="44.5" width="28.35" height="1.58" rx="0.79" ry="0.79"/><rect class="cls-1" x="25.37" y="14.71" width="16.87" height="1.58" rx="0.65" ry="0.65"/><rect class="cls-1" x="17.6" y="18.46" width="19.2" height="1.58" rx="0.65" ry="0.65"/><rect class="cls-1" x="26.11" y="21.43" width="16.12" height="1.58" rx="0.6" ry="0.6"/><rect class="cls-1" x="24.48" y="24.39" width="6.7" height="1.58" rx="0.39" ry="0.39"/><rect class="cls-1" x="14.17" y="27.35" width="28.35" height="1.58" rx="0.79" ry="0.79"/><g class="cls-2"><polygon class="cls-3" points="63.11 58.69 62.84 69.22 15.41 68.38 15.68 57.84 63.11 58.69"/><polygon class="cls-4" points="15.68 57.84 15.41 68.38 12.27 62.66 12.54 52.13 15.68 57.84"/><polygon class="cls-5" points="63.11 58.69 15.68 57.84 12.54 52.13 59.97 52.97 63.11 58.69"/></g><g class="cls-2"><path d="M21.1,2.52,25,3.88a9.32,9.32,0,0,0,2.41,4.34L23.51,6.86A9.06,9.06,0,0,1,21.1,2.52Z"/><path d="M23.52,6.88l3.94,1.36A5.57,5.57,0,0,0,28,8.7L24,7.35C23.86,7.2,23.69,7,23.52,6.88Z"/><path d="M23.51,6.86l3.93,1.36a6.69,6.69,0,0,0,1.19.54L24.7,7.4A6.69,6.69,0,0,1,23.51,6.86Z"/><path d="M23.78,0l3.94,1.35a4.88,4.88,0,0,0,2.77,2.11L26.55,2.11A5,5,0,0,1,23.78,0Z"/><path class="cls-6" d="M30.73,30.16v0L26.8,28.82s0,0,0,0l.95.33.5.17.52.18,1,.35.49.17Z"/><path class="cls-6" d="M26.58,38.14l3.48,1.2-.43-.15L29.19,39l-.45-.15-.45-.16-.45-.15-.44-.15L27,38.28l-.4-.14Z"/><path class="cls-6" d="M30.52,39.5h0l-3.93-1.36h0l3.48,1.2C30.19,39.39,30.38,39.44,30.52,39.5Z"/><path class="cls-6" d="M30.73,30.16h0L30.27,30l-.49-.17-.51-.17-.51-.18-.52-.18-.5-.17L27.25,29l-.46-.16h0A5.48,5.48,0,0,1,27.2,27a5.42,5.42,0,0,1,2-1.8,5.91,5.91,0,0,1,3.74,0l3.94,1.35a5.94,5.94,0,0,0-3.75,0,5.23,5.23,0,0,0-2,1.8A5,5,0,0,0,30.73,30.16Z"/><path d="M31.2,27.23l3.94,1.35c-.14,0-.27-.09-.41-.12a4.11,4.11,0,0,0-2.95.39c-.37.2-1,1.35-1.05,1.33L26.8,28.82c.07,0,.67-1.12,1-1.32a4,4,0,0,1,3-.39A3,3,0,0,1,31.2,27.23Z"/><path class="cls-6" d="M30.06,39.34l.46.16-.46-.16-.49-.17L29.06,39l-.51-.18L28,38.64l-.5-.17L27,38.3l-.46-.16c-.78-.32-.54-2.74.54-5.42l.95.33.38.13.38.13,2.23.77-3-1-.12,0-.13-.05-.12,0-.12,0-.05,0-.06,0-.12,0-.11,0-.06,0c1.07-2.64,2.56-4.53,3.36-4.26l3.93,1.36c-.79-.28-2.28,1.62-3.35,4.26s-1.32,5.09-.54,5.42Z"/><path d="M30.51,28.47l3.93,1.36c.78.31.54,2.74-.54,5.42s-2.56,4.53-3.36,4.26l-3.93-1.36c.79.28,2.28-1.62,3.35-4.26S31.29,28.79,30.51,28.47Z"/><path d="M30.48,28.46l3.93,1.36h0l-3.93-1.36Z"/><path d="M38,20c-2.07-.72-5.43-.72-7.17.64L26.91,19.3c1.73-1.37,5.1-1.36,7.17-.65l.46.16Z"/><path class="cls-6" d="M34.08,18.65,38,20l.31.11-3.93-1.35Z"/><path class="cls-6" d="M35.14,28.58l.75.3L32,27.52l-.76-.29Z"/><path class="cls-6" d="M32,27.52l3.93,1.36c.25.1.5.21.75.3l-3.93-1.36Q32.34,27.69,32,27.52Z"/><path class="cls-6" d="M33.11,41.21l-3.93-1.35a3.37,3.37,0,0,1,.93-1.62l3.94,1.35A3.43,3.43,0,0,0,33.11,41.21Z"/><path class="cls-6" d="M33.59,43h0l-.45-.15-.49-.17-.5-.17-.51-.18-.51-.17-.5-.18-.48-.16-.46-.16a1.73,1.73,0,0,1-.47-1.77l3.93,1.35A1.72,1.72,0,0,0,33.59,43Z"/><path class="cls-6" d="M33.59,43h0l-3.93-1.36h0L33.55,43Z"/><path class="cls-6" d="M33.6,43a1.55,1.55,0,0,0,.36.19L30,41.83a1.24,1.24,0,0,1-.36-.19A29.41,29.41,0,0,1,33.6,43Z"/><path class="cls-6" d="M31.61,50h0l-.46-.16-.49-.17-.5-.17-.52-.18-.51-.17L28.62,49l-.49-.17-.45-.15h0Z"/><path d="M35.15,27.64,39.09,29a2.5,2.5,0,0,1-1.23.38,3.4,3.4,0,0,1-1.22-.2l-3.93-1.36a3.15,3.15,0,0,0,1.21.21A2.38,2.38,0,0,0,35.15,27.64Z"/><path d="M32.9,25.18l3.94,1.35a3.5,3.5,0,0,1,2.35,2.2l-3.93-1.35A3.5,3.5,0,0,0,32.9,25.18Z"/><path class="cls-7" d="M29.9,41.35l3.94,1.36a1,1,0,0,0,.45.3l-3.94-1.36A1.05,1.05,0,0,1,29.9,41.35Z"/><path d="M32.9,25.18a3.5,3.5,0,0,1,2.36,2.2v.13l-.12.13a2.38,2.38,0,0,1-1.23.39,3.15,3.15,0,0,1-1.21-.21q-.37-.13-.75-.3l-.76-.29a3,3,0,0,0-.4-.12,4,4,0,0,0-3,.39c-.37.2-1,1.35-1,1.32s0,0,0,0A5.48,5.48,0,0,1,27.2,27a5.42,5.42,0,0,1,2-1.8A5.91,5.91,0,0,1,32.9,25.18Z"/><polygon points="35.27 27.51 39.21 28.87 39.09 29 35.16 27.64 35.27 27.51"/><polygon points="35.26 27.38 39.19 28.73 39.21 28.87 35.27 27.51 35.26 27.38"/><path class="cls-6" d="M34.05,39.59h0l-.46-.16-.49-.17-.5-.17-.52-.18-.51-.17-.51-.18-.49-.17-.46-.15h0L34,39.59l-.46-.16-.48-.17-.51-.17-.51-.18-.52-.18-.5-.17-.49-.17-.46-.16c.42-.43.86-.77,1.25-1.15l3.92,1.35-.46-.16-.48-.17-.51-.17-.51-.18-.51-.17-.51-.18-.48-.17-.46-.15h0a12.07,12.07,0,0,0,3.23-5.75l3.94,1.35a12.16,12.16,0,0,1-3.24,5.76C34.91,38.81,34.47,39.15,34.05,39.59Z"/><path class="cls-7" d="M34.59,31.32l3.94,1.35A9.05,9.05,0,0,1,35.78,39c-.86.81-1.81,1.39-2.12,2.38a1.32,1.32,0,0,0,.18,1.35L29.9,41.35A1.37,1.37,0,0,1,29.72,40c.31-1,1.27-1.57,2.12-2.38A8.94,8.94,0,0,0,34.59,31.32Z"/><path class="cls-6" d="M35.2,42.84a.91.91,0,0,1-.91.17l-3.94-1.36a.9.9,0,0,0,.91-.16Z"/><path class="cls-7" d="M31.26,41.49l3.94,1.35a1,1,0,0,1-1.24.35L30,41.83A1,1,0,0,0,31.26,41.49Z"/><path class="cls-6" d="M33,49.29a1.13,1.13,0,0,0-1.39.75l-.46-.16-.49-.17-.5-.17-.52-.18-.51-.17L28.62,49l-.48-.17-.46-.15a1.11,1.11,0,0,1,1.39-.75Z"/><path class="cls-6" d="M31.61,50a1.13,1.13,0,0,0,.65,1.42l-3.93-1.35a1.11,1.11,0,0,1-.65-1.42Z"/><polygon class="cls-6" points="39.43 29.28 43.37 30.64 43.3 30.75 39.37 29.4 39.43 29.28"/><polygon class="cls-6" points="39.37 29.4 43.3 30.75 43.35 30.91 39.42 29.56 39.37 29.4"/><polygon class="cls-6" points="33.68 49.46 37.62 50.81 33 49.29 29.07 47.94 33.68 49.46"/><polygon points="32.94 51.63 36.88 52.99 32.28 51.47 28.34 50.12 32.94 51.63"/><path class="cls-6" d="M44.32,31.75l.24.1L40.63,30.5l-.25-.1a2.36,2.36,0,0,1-1-.84l3.93,1.36A2.43,2.43,0,0,0,44.32,31.75Z"/><path class="cls-6" d="M40.53,21.25l3.94,1.36c.86.44,1.78.87,2.78,1.29l.36.14-3.93-1.36-.37-.14C42.32,22.12,41.4,21.69,40.53,21.25Z"/><path d="M33.67,49.45l3.93,1.36a1.12,1.12,0,0,1,.67,1.43,1.13,1.13,0,0,1-1.39.75l-3.94-1.36a1.15,1.15,0,0,0,.73-2.18Z"/><path class="cls-6" d="M41.76,44.14h0l-3.93-1.36h0C39,43.19,40.59,43.7,41.76,44.14Z"/><path class="cls-6" d="M42.31,38.71c-1.09,2.68-1.33,5.1-.55,5.43l-3.93-1.35c-.78-.33-.54-2.76.54-5.43l1,.32,1.53.53,1.46.5-3.94-1.35c1.07-2.65,2.56-4.54,3.35-4.27l3.94,1.36C44.87,34.18,43.38,36.07,42.31,38.71Z"/><polygon class="cls-6" points="45.66 34.45 41.73 33.09 41.73 33.09 45.66 34.45 45.66 34.45"/><path class="cls-6" d="M48,29.84c-1.61-.55-3.52-.48-4.6.79l-3.48-1.19-.46-.16c1.09-1.27,3-1.35,4.6-.8Z"/><path d="M41.72,33.09l3.94,1.36h0c.78.33.53,2.75-.55,5.42s-2.56,4.54-3.36,4.27l-3.93-1.36c.79.28,2.29-1.62,3.36-4.27s1.32-5.09.54-5.41Z"/><path d="M44.32,30.91l3.93,1.36a3.17,3.17,0,0,0-.69-.17,17.44,17.44,0,0,1-3-.25L40.63,30.5a17.44,17.44,0,0,0,3,.24A5.78,5.78,0,0,1,44.32,30.91Z"/><path class="cls-6" d="M48.52,32.37l-.06,0-.06,0-.12,0-.07,0-.06,0-.06,0-.06,0-.4-.14-.43-.14-.44-.15-.45-.16-.45-.15-.44-.16L45,31.16l-.4-.14-.27-.11,3.93,1.36Z"/><polygon class="cls-6" points="44.9 23.02 48.83 24.37 55.06 26.89 51.13 25.54 44.9 23.02"/><path d="M48.53,23.91l3.93,1.35a22.52,22.52,0,0,0-2.54-.65l-1.09-.24c-.44-.1-.85-.21-1.22-.33l-3.93-1.36A11.21,11.21,0,0,0,44.9,23l1.08.23A21.24,21.24,0,0,1,48.53,23.91Z"/><path class="cls-6" d="M50.45,34.93l-.13,0-.15-.05-.14,0-.15-.05-.15,0-.15,0-.14-.05-.14,0L49,34.42l-.35-.12-.36-.12-.36-.13-.37-.12-.36-.12-.34-.12-.33-.12a4,4,0,0,0-.33-1.33A4,4,0,0,0,44.59,31l3.93,1.35a4.18,4.18,0,0,1,1.6,1.23A4,4,0,0,1,50.45,34.93Z"/><path d="M44,28.48,48,29.84a5.42,5.42,0,0,1,1.91,1.1,5.05,5.05,0,0,1,1,2.41L47,32a4.94,4.94,0,0,0-1.05-2.4A5.43,5.43,0,0,0,44,28.48Z"/><path class="cls-6" d="M50.45,34.93c0,.16,0,.28.07.28l-3.94-1.35a.91.91,0,0,1-.07-.29Z"/><path d="M47,32l3.93,1.36a5,5,0,0,1-.38,1.85h0l-3.94-1.35s0,0,0,0A5,5,0,0,0,47,32Z"/><path class="cls-6" d="M55.34,33.1a1.19,1.19,0,0,0,.36,1.22l-.46-.16L54.76,34l-.51-.17-.51-.18-.52-.18-.5-.17-.49-.17L51.77,33a1.15,1.15,0,0,1-.36-1.21c.77-2.34.78-4,.32-5.17l3.94,1.35C56.13,29.12,56.12,30.77,55.34,33.1Z"/><polygon class="cls-6" points="49.38 45.16 53.32 46.52 52.84 46.59 48.91 45.24 49.38 45.16"/><polygon class="cls-8" points="49.38 45.16 53.32 46.52 54.13 46.9 50.19 45.55 49.38 45.16"/><path class="cls-6" d="M56.88,35.5c.77.93,1.22,2.27-.37,4.91l-3.94-1.35c1.59-2.64,1.14-4,.37-4.91l2,.67.26.09.51.18.5.17.24.08A2.27,2.27,0,0,1,56.88,35.5Z"/><path class="cls-6" d="M56.05,44.11a.89.89,0,0,0,.41.29l-3.94-1.35a1,1,0,0,1-.4-.29l3.93,1.35,0,0-.06,0-.06,0-.05,0-.06,0-.06,0-.06,0-.06,0-.42-.14-.44-.15-.45-.16-.45-.15-.45-.16L52.94,43l-.42-.15-.4-.13a.22.22,0,0,1,.22-.35l3.94,1.36A.22.22,0,0,0,56.05,44.11Z"/><path class="cls-9" d="M52.34,42.41l3.94,1.36a.21.21,0,0,1,.08.06l-3.94-1.36A.16.16,0,0,0,52.34,42.41Z"/><path class="cls-9" d="M52.42,42.47l3.94,1.36a.54.54,0,0,0,.22.16l-3.93-1.36A.57.57,0,0,1,52.42,42.47Z"/><path d="M51.31,2.19l3.93,1.35C60,5.18,64.39,8.08,66.9,11.94c4.18,6.43,6.57,14.32,2.13,21.13a8.86,8.86,0,0,1-2.89,2.74,32.08,32.08,0,0,1-5.35,2.34,16.36,16.36,0,0,0-4.28,2.26l-3.94-1.35a16,16,0,0,1,4.29-2.26,33.71,33.71,0,0,0,5.34-2.34,9,9,0,0,0,2.89-2.74C69.53,24.9,67.15,17,63,10.59,60.45,6.72,56.07,3.83,51.31,2.19Z"/><path class="cls-6" d="M59.57,40.24c-.18.48-2,4.1-3,3.75l-3.93-1.36c1,.35,2.8-3.26,3-3.74Z"/><path class="cls-6" d="M59.84,40.12a.22.22,0,0,0-.27.12l-3.93-1.35a.21.21,0,0,1,.27-.13Z"/><path class="cls-9" d="M55.91,38.76A.19.19,0,0,1,56,39c-.3.78-2.15,4.49-3.5,4a1,1,0,0,1-.4-.29.22.22,0,0,1,.22-.35.16.16,0,0,1,.08.06.57.57,0,0,0,.23.16c1,.35,2.8-3.26,3-3.74A.21.21,0,0,1,55.91,38.76Z"/><path class="cls-6" d="M57,36.92c.94.91.43,3.11-1.11,5.19a10.3,10.3,0,0,1-.68.83c-1.73,1.93-3.79,3-5,2.61l-.81-.39-.47.08.62,1.29c-5.27,7.35-14.58,10.73-23,7.84L25.61,54c-5-2-7.33-8-5.23-13.26L26,20.49a2.82,2.82,0,0,1,.92-1.19c1.73-1.37,5.1-1.36,7.17-.65l.31.12,6.14,2.48c.87.44,1.79.87,2.78,1.29l.37.14A11.21,11.21,0,0,0,44.9,23l6.23,2.52c1,1.2,1.31,3.09.28,6.21-.64,1.93,4.34,2,1.16,7.31a16,16,0,0,1,4.29-2.26A.79.79,0,0,1,57,36.92Zm-25-9.4q.38.16.75.3a3.15,3.15,0,0,0,1.21.21,2.38,2.38,0,0,0,1.23-.39l.12-.13v-.13a3.5,3.5,0,0,0-2.36-2.2,5.91,5.91,0,0,0-3.74,0,5.42,5.42,0,0,0-2,1.8,5.48,5.48,0,0,0-.41,1.85s0,0,0,0,.67-1.12,1-1.32a4,4,0,0,1,3-.39,3,3,0,0,1,.4.12l.76.29M29.67,41.64a1.24,1.24,0,0,0,.36.19,1,1,0,0,0,1.23-.34.9.9,0,0,1-.91.16,1.05,1.05,0,0,1-.45-.3A1.37,1.37,0,0,1,29.72,40c.31-1,1.27-1.57,2.12-2.38a8.94,8.94,0,0,0,2.75-6.3,12.07,12.07,0,0,1-3.23,5.75c-.38.39-.83.73-1.25,1.17a3.37,3.37,0,0,0-.93,1.62,1.7,1.7,0,0,0,.49,1.78m16.93-7.8A5,5,0,0,0,47,32a4.94,4.94,0,0,0-1.05-2.4A5.43,5.43,0,0,0,44,28.48c-1.6-.55-3.51-.47-4.6.8l-.06.12.05.16a2.36,2.36,0,0,0,1,.84l.25.1a17.44,17.44,0,0,0,3,.24,5.78,5.78,0,0,1,.69.17,4,4,0,0,1,1.86,1.33c.26.33.33,1.59.4,1.62s0,0,0,0m-5.39,4.68c1.08-2.66,1.32-5.09.54-5.41l0,0c-.79-.27-2.28,1.62-3.35,4.27s-1.32,5.1-.54,5.43h0c.79.28,2.29-1.62,3.36-4.27M30,33.89c1.08-2.67,1.33-5.1.55-5.42h0c-.8-.27-2.29,1.62-3.36,4.26s-1.32,5.1-.54,5.42h0c.79.28,2.28-1.62,3.35-4.26m3,17.74a1.15,1.15,0,0,0,.74-2.17l-4.61-1.52a1.15,1.15,0,0,0-.74,2.17l4.61,1.52m19.58-8.58c1.35.46,3.2-3.25,3.5-4a.19.19,0,0,0-.11-.26.21.21,0,0,0-.27.13c-.19.48-2,4.09-3,3.74a.57.57,0,0,1-.23-.16.16.16,0,0,0-.08-.06.22.22,0,0,0-.22.35,1,1,0,0,0,.4.29"/><path d="M30.48,28.46h0c.78.32.53,2.75-.55,5.42s-2.56,4.54-3.35,4.26h0c-.78-.32-.54-2.74.54-5.42S29.68,28.19,30.48,28.46Z"/><path class="cls-7" d="M34.59,31.32a8.94,8.94,0,0,1-2.75,6.3C31,38.43,30,39,29.72,40a1.37,1.37,0,0,0,.18,1.35,1.05,1.05,0,0,0,.45.3.9.9,0,0,0,.91-.16,1,1,0,0,1-1.23.34,1.24,1.24,0,0,1-.36-.19,1.7,1.7,0,0,1-.49-1.78,3.37,3.37,0,0,1,.93-1.62c.42-.44.87-.78,1.25-1.17A12.07,12.07,0,0,0,34.59,31.32Z"/><polygon class="cls-6" points="34.39 18.77 38.32 20.12 44.47 22.61 40.53 21.25 34.39 18.77"/><path d="M34.62,16a58.9,58.9,0,0,0,9.85,6.65l-3.94-1.36a58.18,58.18,0,0,1-9.84-6.64,15.84,15.84,0,0,1-5.28-7L29.34,9A15.81,15.81,0,0,0,34.62,16Z"/><path d="M55.06,26.89l-3.93-1.35a5.62,5.62,0,0,0-2.6-1.63h0l.46.15,3.47,1.2A5.7,5.7,0,0,1,55.06,26.89Z"/><path class="cls-6" d="M55.06,26.89a4,4,0,0,1,.61,1l-.46-.15-.49-.17-.5-.18-.52-.17-.51-.18-.51-.18-.49-.16-.46-.16a3.78,3.78,0,0,0-.6-1C52.31,25.94,54,26.18,55.06,26.89Z"/><path class="cls-6" d="M55.7,34.32c.33.36.79.72,1.18,1.18l-.46-.16-.49-.17-.5-.17-.52-.18-.51-.17-.51-.18-.49-.17-.46-.15c-.38-.47-.84-.83-1.17-1.19l2,.68.51.18.26.08,1,.34A.83.83,0,0,1,55.7,34.32Z"/><path class="cls-9" d="M55.91,38.76l3.93,1.36a.18.18,0,0,1,.12.25c-.3.79-2.16,4.5-3.5,4l-3.94-1.35c1.35.46,3.2-3.25,3.5-4A.19.19,0,0,0,55.91,38.76Z"/><path class="cls-6" d="M60.79,38.15l.15.13L57,36.92a.79.79,0,0,0-.15-.12l2,.67.26.09,1.25.43A3.57,3.57,0,0,1,60.79,38.15Z"/><path class="cls-6" d="M57,36.92l3.93,1.36c.94.91.43,3.11-1.11,5.19-.2.28-.43.55-.67.83-1.74,1.92-3.79,3-5,2.6l-3.94-1.35c1.24.34,3.3-.68,5-2.61a10.3,10.3,0,0,0,.68-.83C57.44,40,58,37.83,57,36.92Z"/><path d="M66.14,35.81a26.85,26.85,0,0,1-6.31,7.66L55.9,42.11a26.91,26.91,0,0,0,6.3-7.65Z"/><path d="M51.31,2.19c4.76,1.64,9.14,4.53,11.66,8.4C67.15,17,69.53,24.9,65.09,31.72a9,9,0,0,1-2.89,2.74,33.71,33.71,0,0,1-5.34,2.34,16,16,0,0,0-4.29,2.26c3.18-5.28-1.8-5.38-1.16-7.31,1-3.12.71-5-.28-6.21a5.62,5.62,0,0,0-2.6-1.63A21.24,21.24,0,0,0,46,23.25L44.9,23a11.21,11.21,0,0,1-1.22-.34l-.37-.14c-1-.42-1.91-.85-2.78-1.29a58.18,58.18,0,0,1-9.84-6.64,15.84,15.84,0,0,1-5.28-7A29.28,29.28,0,0,1,23.78,0a5,5,0,0,0,2.77,2.11l.41.13a63.53,63.53,0,0,0,7.41-.78A67.84,67.84,0,0,1,41.81.67,27.08,27.08,0,0,1,51.31,2.19Z"/><path d="M25.41,7.61a15.84,15.84,0,0,0,5.28,7,58.18,58.18,0,0,0,9.84,6.64l-6.14-2.48-.31-.12c-2.07-.71-5.44-.72-7.17.65A16.76,16.76,0,0,1,21.1,2.52a9.06,9.06,0,0,0,2.41,4.34,6.69,6.69,0,0,0,1.19.54C24.93,7.48,25.17,7.55,25.41,7.61Zm-1.89-.73c.17.16.34.32.52.47l-.52-.47"/><path d="M33.67,49.45a1.15,1.15,0,0,1-.73,2.18l-4.6-1.52a1.15,1.15,0,0,1,.73-2.17Z"/><path d="M41.72,33.09l0,0c.78.32.54,2.75-.54,5.41s-2.57,4.55-3.36,4.27h0c-.78-.33-.54-2.76.54-5.43S40.93,32.82,41.72,33.09Z"/><path d="M44,28.48a5.43,5.43,0,0,1,1.91,1.11A4.94,4.94,0,0,1,47,32a5,5,0,0,1-.39,1.85s0,0,0,0-.14-1.29-.4-1.62a4,4,0,0,0-1.86-1.33,5.78,5.78,0,0,0-.69-.17,17.44,17.44,0,0,1-3-.24l-.25-.1a2.36,2.36,0,0,1-1-.84l-.05-.16.06-.12C40.52,28,42.43,27.93,44,28.48Z"/><path d="M46,23.25a21.24,21.24,0,0,1,2.55.66,5.62,5.62,0,0,1,2.6,1.63L44.9,23Z"/><polygon class="cls-6" points="48.91 45.24 52.84 46.59 53.47 47.88 49.53 46.53 48.91 45.24"/><path class="cls-6" d="M49.53,46.53l3.94,1.35c-5.27,7.36-14.59,10.74-23,7.85l-3.94-1.36C35,57.26,44.26,53.88,49.53,46.53Z"/><polygon class="cls-10" points="50.19 45.55 54.13 46.9 53.48 47.92 49.55 46.56 50.19 45.55"/><path class="cls-8" d="M50.19,45.55l3.94,1.35c-.21.34-.44.67-.66,1l-3.94-1.35C49.76,46.21,50,45.88,50.19,45.55Z"/><path class="cls-10" d="M50.19,45.55l-.64,1,0,0C49.76,46.21,50,45.88,50.19,45.55Z"/><path class="cls-8" d="M49.38,45.16l.81.39c-.21.33-.43.66-.66,1l-.62-1.29Z"/><path d="M62.2,34.46a26.91,26.91,0,0,1-6.3,7.65C57.44,40,58,37.83,57,36.92a.79.79,0,0,0-.15-.12A33.71,33.71,0,0,0,62.2,34.46Z"/></g><g class="cls-2"><polygon class="cls-11" points="55.76 73.96 48.57 72.73 58.61 25.58 65.8 26.81 55.76 73.96"/><polygon class="cls-12" points="65.8 26.81 78.85 64.75 55.76 73.96 65.8 26.81"/></g></g></g></svg>