<svg xmlns="http://www.w3.org/2000/svg" viewBox="0 0 124.26 85.01"><defs><style>.cls-1{fill:#7891bc;}</style></defs><title>you</title><g id="Capa_2" data-name="Capa 2"><g id="Capa_10" data-name="Capa 10"><path class="cls-1" d="M0,49.75V35.19c.07-.43.16-.86.19-1.3.27-3.5.42-7,.81-10.51.57-5.19,1.59-10.29,4.05-15C7.26,4.17,10.53,1.4,15.39,1,19.49.59,23.61.22,27.72.19Q57.5,0,87.27,0c6.75,0,13.5.41,20.24.75,5.54.28,9.41,3.08,11.87,8.07,2.53,5.14,3.53,10.64,4.05,16.24a179.16,179.16,0,0,1-.22,36.68,40.86,40.86,0,0,1-4,14.74c-2.06,3.9-5,6.63-9.47,7.36a41.33,41.33,0,0,1-5.54.6c-8.6.24-17.21.59-25.82.56-19.45-.07-38.89-.33-58.33-.56a20.41,20.41,0,0,1-9.2-1.84c-3.61-1.84-5.5-5.14-6.94-8.71C1.62,68.37,1,62.5.49,56.61.31,54.33.16,52,0,49.75Zm46.64,16L85.39,42.47,46.64,19.22Z"/></g></g></svg>